<?xml version="1.0" standalone="no"?>
<!DOCTYPE svg PUBLIC "-//W3C//DTD SVG 1.1//EN" "http://www.w3.org/Graphics/SVG/1.1/DTD/svg11.dtd" >
<svg xmlns="http://www.w3.org/2000/svg" xmlns:xlink="http://www.w3.org/1999/xlink" version="1.1">
<metadata>
Created by FontForge 20170731 at Fri Aug  3 22:11:15 2018
 By Aleksey,,,
Tikhon Reztcov
</metadata>
<defs>
<font id="Ustroke-Regular" horiz-adv-x="550" >
  <font-face 
    font-family="Ustroke"
    font-weight="400"
    font-stretch="normal"
    units-per-em="1000"
    panose-1="2 0 5 3 0 0 0 0 0 0"
    ascent="800"
    descent="-200"
    x-height="623"
    cap-height="684"
    bbox="33 -156 823 756"
    underline-thickness="50"
    underline-position="-200"
    unicode-range="U+000D-0451"
  />
<missing-glyph horiz-adv-x="364" 
d="M33 0v666h265v-666h-265zM66 33h199v600h-199v-600z" />
    <glyph glyph-name=".notdef" horiz-adv-x="364" 
d="M33 0v666h265v-666h-265zM66 33h199v600h-199v-600z" />
    <glyph glyph-name=".null" 
 />
    <glyph glyph-name=".null" 
 />
    <glyph glyph-name="nonmarkingreturn" horiz-adv-x="333" 
 />
    <glyph glyph-name="CR" unicode="&#xd;" 
 />
    <glyph glyph-name="space" unicode=" " 
 />
    <glyph glyph-name="exclam" unicode="!" horiz-adv-x="222" 
d="M126 -33q0 9 -11 18q-7 6 -8.5 4t-1.5 -14q0 -18 10 -18q11 0 11 10zM84 28q-6 12 -13 12q-15 0 -15 -38q0 -13 10.5 -32.5t18.5 -19.5q6 0 6 29q0 33 -7 49zM153 38q-8 10 -18 10q-6 0 -11 -5t-5 -16q0 -13 6.5 -24t15.5 -11q6 0 10.5 11.5t4.5 22.5q0 8 -3 12zM101 40
q5 0 7.5 3.5t0.5 7.5t-8 4t-8 -3.5t0.5 -7.5t7.5 -4zM129 89q18 6 28 6q25 0 25 -51q0 -36 -22 -69q-33 -49 -65 -49q-26 0 -41 33q-12 24 -12 56q0 20 6 32q10 18 81 42zM133 232q0 30 -7 40q-2 3 -3 3q-4 0 -4 -32q0 -41 7 -41t7 30zM103 329q1 12 1 32q0 50 -10 50
q-2 0 -5 -3q-5 -5 -5 -86q0 -74 6 -74q1 0 3 2q8 10 10 79zM131 432q0 4 0.5 13.5t0.5 14.5t-0.5 14.5t-0.5 13.5l-1 6q-2 0 -2 -36q0 -34 2 -34q1 3 1 8zM150 581q3 17 3 33q0 3 -0.5 7t-0.5 5q-1 8 -4 8t-6.5 -13t-3.5 -27q0 -6 2 -18l5 -28zM145 651q7 9 13 9q9 0 9 -27
v-11v-7q0 -26 6 -36q4 -6 4 -38q0 -13 -4 -101q-5 -98 -5 -152v-15v-13q0 -20 -4 -20l-6 4q-6 4 -7 4q-4 0 -5 -26q-2 -72 -20 -72q-10 0 -16 37q-5 31 -11 31q-1 0 -5 -2q-9 -8 -16 5q-4 7 -8 108.5t-4 170.5q0 37 2 47q3 13 7 13q9 0 9 -46q0 -84 12 -84h1q5 2 7 73
q1 104 41 148z" />
    <glyph glyph-name="quotedbl" unicode="&#x22;" horiz-adv-x="328" 
d="M72 623q12 20 23 20q7 0 7 -11q0 -10 14 -10q13 0 13 -17t-10 -63q-10 -45 -10 -68q0 -18 -21 -33q-20 -14 -28 -14q-10 0 -10 19q0 9 1 15q2 10 -6 29q-4 12 -4 18q0 9 8 30q11 28 11 46q0 17 12 39zM202 636q15 20 21 20q5 0 11 -14q6 -13 11 -7q3 5 9 5t11 -5.5
t5 -14.5q0 -15 12 -27q7 -9 7 -15q0 -10 -16 -59q-15 -48 -21 -70q-2 -9 -27 -9q-24 0 -43 24l-17 23l10 50q11 51 11 65q0 16 16 34z" />
    <glyph glyph-name="quotesingle" unicode="'" horiz-adv-x="169" 
d="M129 620q0 -10 -14 -71t-14 -70q-1 -12 -15.5 -24.5t-26.5 -12.5q-3 0 -5 1q-11 5 -7 27v9q0 21 -4 29q-3 6 -3 13q0 11 8 35q11 33 11 50t13 34q10 16 21 16q8 0 8 -10t14 -10t14 -16z" />
    <glyph glyph-name="comma" unicode="," horiz-adv-x="172" 
d="M45 -23q5 19 24.5 44.5t37.5 25.5q10 0 19 -10q6 -8 6 -22t-6 -50q-17 -120 -40 -120q-10 0 -2 15q8 14 4 18q-2 2 -7 -6q-2 -4 -4 -9q-7 -18 -21 -18h-15l14 17q14 18 18 40q2 10 2 13q0 12 -16 24t-16 23q0 3 2 15z" />
    <glyph glyph-name="period" unicode="." horiz-adv-x="182" 
d="M89 13q0 7 -3 7q-4 0 -8 -8q-3 -6 3 -6q8 0 8 7zM61 43q14 18 34 18q19 0 33.5 -15.5t14.5 -38.5q0 -11 -5 -24q-8 -20 -26.5 -33.5t-35.5 -13.5q-14 0 -21 9q-14 17 -14 42q0 30 20 56z" />
    <glyph glyph-name="zero" unicode="0" horiz-adv-x="526" 
d="M299 66q11 21 6 21q-19 -6 -94 -17q-35 -4 -35 -8q0 -3 7 -10q30 -33 66 -33q27 0 50 47zM331 144q7 14 4 14q-4 0 -11 -14t-4 -14q4 0 11 14zM124 92q-39 56 -53 90q-7 19 -9 19t-2 -9q-1 -23 12 -72.5t26 -77.5q19 -39 44 -60q25 -22 36 -22q6 0 17 3q16 4 31 13t15 14
q0 1 -1 2l-2 2q-3 1 -6.5 3t-8 4t-10.5 5t-11 6q-21 11 -36 27t-42 53zM198 101l-7 9q-7 10 -15.5 22t-19.5 26.5t-20 26.5t-16 20t-9 8q-3 0 -3 -6q0 -14 15 -53q11 -30 31 -48t41 -18q8 0 8.5 2t-5.5 11zM358 529q0 4 -3 4t-3 -4q0 -3 3 -3t3 3zM319 533q-25 23 -53 23
q-34 0 -69 -35q-27 -27 -54 -102q-27 -71 -27 -99q0 -25 22 -36q19 -10 19 -17q0 -5 -10 -5q-11 0 -11 -11q0 -26 42.5 -77t63.5 -51q28 0 60.5 34t51.5 82q23 60 23 125q0 116 -58 169zM192 572q0 9 -15 -9q-13 -17 3 -3q12 10 12 12zM418 570q-12 12 -27.5 21t-22.5 9
q-3 0 -3 -2q0 -1 25 -34q23 -31 30.5 -59.5t7.5 -87.5q0 -74 -15.5 -130.5t-65.5 -165.5q-28 -61 -28 -71q0 -2 2 -2q9 0 34.5 37.5t44.5 75.5q67 140 67 259q0 101 -49 150zM272 616q12 5 4 6h-11q-20 0 -32 -6q-8 -6 -2 -6h9q16 0 32 6zM233 642q27 8 41 8q20 0 48 -12
q32 -14 51 -18q53 -12 82.5 -68t29.5 -138q0 -78 -29 -167q-63 -188 -153 -235q-22 -12 -42 -32q-17 -18 -40 -30t-41 -12q-5 0 -8 1q-19 4 -48 33q-82 85 -82 237q0 43 7 81q15 92 18 117q4 45 24 88q17 35 67.5 87t74.5 60z" />
    <glyph glyph-name="one" unicode="1" horiz-adv-x="452" 
d="M260 -9q6 24 6 38q0 4 -1 4q-5 0 -18.5 -34t-13.5 -46q0 -9 4 -9q12 0 23 47zM250 49q9 36 9 54q0 10 -2 10t-13 -41q-9 -40 -9 -53q0 -5 1 -5q4 0 14 35zM294 293q7 23 7 66v10q-2 44 -5 44q-5 0 -9 -27t-6 -54l-2 -27q0 -11 1 -15l6 -25zM208 401q14 21 14 27v1
q-3 0 -16 -19q-21 -29 -21 -36q0 -1 1 -1q3 0 22 28zM156 423q0 6 -4 6q-8 0 -33 -33q-27 -38 -27 -43v-1q4 0 29 27q35 39 35 44zM360 401q12 10 10 32l-2 20l-6 -19q-8 -25 -9 -31l-2 -9q2 0 9 7zM309 508q0 4 -4 4q-3 0 -3 -4q0 -3 3 -3q4 0 4 3zM379 565q9 9 5 13
q-3 3 -7 -6q-1 -1 -1 -2q-4 -9 -2 -9zM316 590q0 5 -5 5q-11 0 -31 -20t-20 -29q0 -3 4 -3t12 4q12 6 25.5 20.5t14.5 22.5zM278 633l21 21l2 -18q2 -11 6.5 -16.5t17.5 -8.5q9 -3 15 -3q9 0 20 18q14 20 16 12q1 -1 1 -3q1 -9 3.5 -9.5t11.5 7.5q7 7 12 7q7 0 7 -14
q0 -13 -8 -45q-9 -36 -9 -45t7 -16q5 -7 5 -20q0 -33 -39 -228q-5 -27 -9.5 -54.5t-6.5 -40t-8.5 -37.5t-18.5 -61q-29 -87 -29 -109q0 -20 -6 -20t-9 22l-2 22l-11 -30q-14 -42 -32 -42q-6 0 -10 4q-9 9 -13 52l-4 44l-14 -27q-16 -31 -26 -31q-5 0 -5 12q0 11 28 101
q41 133 53 261l3 31l-25 -27q-23 -25 -32 -45q-6 -16 -16 -8q-8 7 -21 -6q-9 -10 -16 -10t-7 7q0 5 1 7q2 6 0 6q-1 0 -10 -5q-12 -8 -18 -4q-1 1 -1 3q0 12 77 114q48 63 48 75q0 3 -2 5q-5 6 -10 6q-9 0 -28 -40q-20 -41 -69 -91.5t-67 -50.5q-6 0 -6 8q0 9 69 102t73 111
q5 17 38 52q33 33 53 55z" />
    <glyph glyph-name="two" unicode="2" horiz-adv-x="710" 
d="M334 0q9 1 -1 2q-6 1 -15 1q-20 0 -19 -2q0 -1 4 -1q15 -2 31 0zM124 51q8 8 5 16q-3 10 -9 0q-3 -5 -3 -13q0 -6 1.5 -6.5t5.5 3.5zM81 58q0 4 -6 20q-5 10 -5.5 9.5t-0.5 -11.5q-2 -14 6 -19q6 -2 6 1zM96 99q0 -7 10 5q4 5 3 8q-4 4 -8.5 -1t-4.5 -12zM322 167
q10 9 10 12q0 2 -1 2q-5 0 -20 -10q-11 -8 -11 -12q0 -1 2 -1q8 0 20 9zM214 165q21 18 21 20q-5 0 -27 -14t-25 -20q-3 -5 -3 -6q0 -2 2 -2q7 0 32 22zM360 199q15 13 10 13q-6 0 -18 -8.5t-12 -12.5q0 -6 20 8zM436 283q0 3 -1.5 5t-3.5 1q-4 0 -57.5 -39.5t-79.5 -61.5
l-21 -17l28 15q17 9 41 27q13 11 55 38q39 23 39 32zM533 356q13 22 13 34q0 3 -2 3q-9 0 -40 -37q-40 -44 -40 -55q0 -4 5 -4q8 0 31 21t33 38zM514 419q11 11 11 26q0 11 -2 12q-3 1 -11 -11l-2 -2q-7 -8 -53.5 -45t-51.5 -42q-5 -9 -68 -53q-61 -43 -61 -58q0 -5 7 -5
q11 0 43 16.5t52 32.5q27 22 65 48q36 25 47 45q12 24 24 36zM205 522q2 8 2 9q0 6 -3 6q-5 0 -11 -11q-7 -14 0 -14t12 10zM513 491q0 16 -16 38q-6 7 -9.5 10t-5.5 4t-3.5 -0.5t-2.5 -5.5q-5 -12 -5 -25q0 -16 -23.5 -55.5t-48.5 -64.5q-32 -34 -32 -41t9 -1
q88 69 112.5 94t24.5 47zM569 535q-7 18 -13 18q-3 0 -3 -8q0 -7 3 -21q7 -30 10 -30q2 0 5 10q1 3 1 10q0 10 -3 21zM237 526q7 0 24.5 13.5t17.5 18.5q0 2 -3 2q-11 0 -26 -11.5t-15 -19.5q0 -3 2 -3zM429 575q0 6 -31 6q-38 0 -42 -7q-5 -7 -1 -11q2 -2 10 -2
q17 0 40.5 5t23.5 9zM313 583q0 3 -9 4q-9 0 -10 -2l2 -2q8 -2 17 0zM492 609q-11 8 -21 6q-8 0 7 -9q12 -6 19 -6q3 0 3 2q0 3 -8 7zM296 645q11 2 44 2q88 0 134 -12q11 -3 21 -4.5t13 -2.5t7 -5.5t12 -16.5q15 -25 21 -25q9 0 24 -17q17 -17 17 -53q0 -27 -10 -46
q-8 -16 -14 -54q-5 -36 -17 -56t-47 -49q-13 -11 -46.5 -41.5t-42.5 -38.5q-49 -45 -82 -68t-70 -37q-42 -16 -80 -52l-39 -36h27q21 0 22 3q0 2 -3 5q-7 7 -7 11q0 7 28 7q18 0 29 -1q12 -1 38 -1q51 0 274 18q68 5 98 5q15 0 16 -1q3 -3 3 -5q0 -12 -98 -20
q-167 -14 -167 -24q0 -4 39 -4q29 0 48 1q46 2 54 2q33 0 33 -8q0 -7 -43.5 -22t-62.5 -15q-15 0 -35 -10q-16 -7 -83 -16t-107 -10q-24 0 -41 4.5t-67 22.5q-30 12 -42.5 20.5t-24.5 29.5q-25 41 -25 55q0 19 39 57t86 64q40 21 69 52q17 20 57 54t56 53l23 29l-22 23
q-16 16 -16 24q0 1 1 2q7 5 19 -9q12 -12 20 -12q18 0 18 37q0 6 -2 24q-5 26 1 24q3 -2 9 -32t10 -33q1 -1 3 -1q15 0 32 61q8 27 8 38q0 17 -17 17q-2 0 -14 -2q-13 -3 -66 -10q-75 -11 -75 -41q0 -10 -20 -30t-30 -20q-8 0 -3 -17q1 -2 1 -7q0 -17 -15 -17q-6 0 -11 5
q-9 9 -9 35t9 37q7 7 7 11q0 1 -2 1q-5 0 -18 -11t-13 -26t-13 -32l-14 -17l-15 16q-11 11 -11 18q0 5 10 24q21 41 59 95.5t51 63.5q16 11 50 17z" />
    <glyph glyph-name="three" unicode="3" horiz-adv-x="570" 
d="M384 5q0 6 -4 6q-6 0 -38 -13q-28 -13 -50 -13q-24 0 -24 -7q0 -8 34 -8q27 0 54.5 12t27.5 23zM193 19l41 5h-48h-9q-39 0 -61 -9l-20 -10l27 4q12 3 70 10zM460 127q0 3 -7 3t-7 -8t10 0q4 3 4 5zM499 97q8 14 8 37v5q-2 14 -4 14q-5 0 -11 -44l-4 -31zM431 171
q-1 18 -9 18q-9 0 -24 -31q-17 -36 -26 -43t-9 -22q0 -12 -24 -36q-18 -17 -18 -22q0 -3 7 -5q10 -2 14 -2q29 0 59 28q23 22 28 61q3 19 3 39q0 3 -0.5 8.5t-0.5 6.5zM456 217q-20 28 -34 28q-3 0 -3 -3q0 -5 24 -33q17 -18 22 -18q2 0 2 2q0 7 -11 24zM464 276
q-12 14 -24 14q-10 -1 3 -12l3 -2q16 -14 23 -14q2 0 2 2q0 4 -7 12zM340 290q-30 0 -53 7q-13 4 -18 4l-2 -1q0 -4 65 -28q46 -17 54 -17q5 0 5 3q0 14 -14.5 23t-36.5 9zM371 352q8 0 -1 11q-3 3 -4 3q-3 0 -3 -7t8 -7zM322 377q6 8 -5 9h-14q-45 -1 -98.5 -20.5
t-53.5 -32.5q0 -3 6 -6h3q14 0 39 15q30 19 74 22q41 4 49 13zM354 410q3 5 1 18q-1 10 -5 10q-2 0 -22 -12l-24 -15l23 -2q22 -2 27 1zM394 443q1 3 1 9q0 16 -9 16q-2 0 -4 -2q-5 -7 -5 -20q0 -17 6 -17q7 0 11 14zM455 474q-11 24 -16 24t-14 -35q-5 -20 -5 -29
q0 -19 17 -19q2 0 12 2q18 5 18 20q0 13 -12 37zM310 601q-44 8 -61 8q-14 0 -27 -4.5t-13 -9.5q0 -1 1 -2q4 -2 172 -58q2 -1 5 -1q4 0 4 3q0 11 -21 33q-20 23 -60 31zM134 649q29 8 74 8q88 0 142 -28q43 -21 90.5 -88t47.5 -105q0 -18 -8.5 -24.5t-40.5 -14.5
q-18 -4 -23.5 -7.5t-5.5 -10.5v-5q2 -15 -10 -25q-8 -6 -8 -11q0 -11 40 -24q34 -11 51.5 -34t31.5 -76q13 -46 13 -63q0 -10 -5 -32q-9 -35 -38 -69q-39 -50 -40 -51q-17 -24 -104 -48q-11 -3 -25 -3q-27 0 -86 11q-65 10 -99 10q-12 0 -16 -1q-18 -2 -19 -2q-7 0 -9 2.5
t-2 10.5q0 9 -4 12t-17 3q-21 0 -21 9q0 13 39 31q36 16 124 23q69 4 93.5 14.5t27.5 36.5q1 18 19 25q14 5 29.5 32t15.5 46q0 18 -10 25q-15 13 -80 31.5t-98 20.5q-36 2 -70 16.5t-34 27.5q0 11 41 36t83 39q97 32 137 84q16 22 16 26q0 5 -18 15q-38 19 -91 33t-84 14
q-12 0 -20 -4q-5 -3 -9 0t-4.5 8t3.5 10q4 4 4 11q0 8 -5 15t-11 7q-12 0 -20 -8q-4 -4 -9 -4q-12 0 -12 18q0 11 7.5 16t26.5 11z" />
    <glyph glyph-name="four" unicode="4" horiz-adv-x="501" 
d="M209 24q-8 15 -9 -10q0 -13 3 -13q7 0 7 18v3zM256 29q0 30 -6 30q-7 0 -14 -31q-5 -22 -5 -28q0 -9 6 -9q1 0 9 2q10 4 10 36zM278 168q4 52 4 68v8q-1 15 -4 15q-7 0 -7 -77v-11l1 -59zM154 299q8 -4 10 1q-3 2 -5 3q-4 0 -5 -1t0 -3zM131 307q0 3 -4 3q-3 0 -3 -3
q0 -4 3 -4q4 0 4 4zM219 320q4 2 -2 4h-7q-7 0 -7 -2q-1 -2 3 -3q9 -3 13 1zM161 326q4 2 -2 3q-4 1 -11 1q-11 0 -11 -2l3 -2q11 -2 21 0zM312 424q0 -6 1 -7l3 3q3 10 0 13q-2 4 -4 -2v-7zM114 443q7 13 7 19q0 2 -1 2t-7 -9q-1 -2 -7 -11t-9 -15q-9 -13 -4 -13q1 0 2 1
q10 7 19 26zM289 483q2 8 0 17q-3 0 -4 -9q0 -9 2 -10zM254 411q16 62 14 90l-2 28l-20 -32q-16 -24 -61 -84q-35 -47 -35 -55q0 -5 46 -7l41 -2zM178 542q6 8 11 15.5t7.5 12t1.5 4.5q-5 0 -36 -41.5t-31 -48.5t12 8q12 20 35 50zM261 546q14 22 14 34q0 4 -2 4
q-3 0 -14 -11q-10 -11 -63 -84t-61 -86q-4 -5 -4 -9h1q6 0 58 62q45 51 71 90zM270 647q16 18 27 18q4 0 4 -4t-3 -10q-5 -9 -4 -11t10 -1q12 2 14 -6q1 -9 9.5 -15.5t17.5 -6.5q1 0 2.5 0.5t2.5 0.5q10 2 11 2q9 0 9 -10q0 -9 -4 -21q-7 -25 1 -29q3 -2 3 -6q0 -8 -10 -24
t-18 -69t-10 -107q0 -7 37 -13q88 -10 88 -21q0 -9 -49 -12q-36 -2 -46 -6t-23 -20q-17 -21 -24 -49q-20 -125 -20 -210q0 -61 -2 -61t-11 22q-7 18 -10 18q-2 0 -8 -11q-9 -15 -29 -15t-24 -15q-18 -68 -26 -68q-10 0 -10 23q0 24 7 67q11 70 11 113q0 44 10 57
q11 17 14 68l6 52l-38 8q-66 13 -81 13q-11 0 -21 -8q-7 -7 -13 -7q-8 0 -8 8q0 5 3 9q3 7 -1 7q-5 0 -15 6q-5 3 -5 8q0 8 11 27q11 21 11 28q0 6 -7 10q-5 3 -5 9q0 10 37 72q48 80 59 106q15 32 28 32q12 0 33 21q15 17 28 17h3h3q11 0 25 14z" />
    <glyph glyph-name="five" unicode="5" horiz-adv-x="645" 
d="M223 6q18 13 7 13q-11 -1 -58 -14t-54 -17t-7 -8q0 -7 19 -11q1 0 3.5 -0.5t3.5 -0.5q36 0 86 38zM283 77q11 13 5 13q-8 0 -49.5 -25t-41.5 -29q0 -1 3 -1q10 0 42 16t41 26zM363 91q12 24 12 37q0 5 -3 5q-12 0 -55 -71q-15 -26 -38 -52l-18 -19l22 10q20 10 42.5 35.5
t37.5 54.5zM333 233q-1 27 -17 38q-12 7 -13 7q-2 0 -2 -1q0 -3 17 -37l17 -34zM303 313q-4 8 -31 21.5t-42 13.5h-2q-13 0 -4 -4q4 -2 13 -6q35 -13 49 -20q17 -7 17 -5zM188 507q0 10 -7 10q-6 0 -26.5 -57t-20.5 -70q0 -6 14 21q39 78 40 96zM399 538q-21 0 -91 4
q-16 2 -40 2t-24 -4q0 -16 107 -16q75 0 75 7t-27 7zM161 546q10 3 1 8h-1q-7 0 -21.5 -33t-14.5 -47q0 -3 1 -3q4 0 15 25.5t12 35.5q0 12 8 14zM376 608q-38 0 -38 -6v-1q4 -7 46 -7q38 0 38 6q0 8 -46 8zM555 695q29 10 39 10q7 0 7 -5q0 -4 -36 -20t-45 -16
q-2 0 -36 -15l-33 -14l20 -17q18 -12 18 -21q0 -5 -5 -18q-6 -15 -6 -20t7 -9q10 -6 10 -13q0 -11 -25 -20q-29 -10 -138 -11l-111 -2l-24 -50q-23 -50 -23 -60q0 -8 12 -12t71 -16q51 -11 76 -29.5t46 -63.5q22 -47 22 -95q0 -117 -120 -199q-17 -12 -85 -31t-94 -19
q-19 0 -30 21q-13 23 -22 27q-8 5 -8 12q0 6 6 11.5t15 5.5q17 0 47 32q22 22 54.5 37t57.5 15q24 0 76 48l22 21l-10 35q-9 35 -24 60q-17 29 -49 47.5t-63 18.5q-6 0 -18 -2q-18 -4 -18 -21t20 -28q19 -9 11 -13l-4 -2t-6 -1q-11 0 -25 9q-13 8 -24 8q-5 0 -13 -2t-11 -2
q-9 0 -20 14q-11 15 -11 30q0 12 18.5 72t39.5 117q19 49 19 61q0 13 18 42q16 24 20 24q2 0 7 -6q6 -8 10 -8t17 10q17 14 28 10q11 -5 16 7q4 11 14 11t10 -11q0 -7 22 -7q37 0 112.5 18t148.5 45z" />
    <glyph glyph-name="six" unicode="6" horiz-adv-x="663" 
d="M446 16q0 4 -3 4q-4 0 -4 -4q0 -3 4 -3q3 0 3 3zM264 19q0 6 -25 17q-19 8 -20 8t7 -7q26 -21 35 -21q3 0 3 3zM243 102q-29 33 -44 64q-12 25 -20 25h-1q-5 -5 -5 -21q0 -32 14 -58q17 -35 73.5 -63t107.5 -28h10l30 3l-42 9q-44 10 -71 25t-52 44zM79 175q-4 39 -9 39
q-1 0 -4 -3q-5 -5 -5 -22t4.5 -33.5t10.5 -16.5q4 0 4 18q0 2 -0.5 8t-0.5 10zM484 244q-19 21 -26 21q-3 0 -3 -4t2 -8q13 -33 13 -75q0 -22 -5 -62q-5 -37 -5 -53q0 -10 2 -12q4 -2 7 -2q9 0 19 7.5t14 18.5q14 31 14 67q0 64 -32 102zM409 282q-14 10 -49 10
q-34 0 -69 -9.5t-51 -24.5q-17 -17 -17 -38q0 -20 10 -50q13 -46 53.5 -76t95.5 -36q18 -2 24 -2q24 0 30.5 16t8.5 71q0 5 0.5 13t0.5 12q0 88 -37 114zM545 307q-25 20 -29 20q-1 0 -1 -2q0 -5 15 -29q34 -56 34 -129q0 -53 -19 -90q-9 -18 -9 -23q0 -2 2 -2q7 0 34 39
q15 23 20.5 38t6.5 44q0 3 0.5 8t0.5 7q0 75 -55 119zM483 316q-16 17 -26.5 21.5t-33.5 4.5q-31 0 -31 -8t39 -28q65 -32 92 -83q14 -27 14 -10q0 19 -16.5 50.5t-37.5 52.5zM364 369q-57 -9 -67 -19q-8 -8 5 -8q16 0 43 8t27 13q0 6 -8 6zM212 346q3 25 3 38q0 11 -2 11
q-7 0 -29 -73q-8 -26 -8 -35q0 -7 4 -7q5 0 14 9q12 11 18 57zM170 404q8 29 8 40q0 1 -1 1q-7 0 -25 -39t-28 -75q-12 -47 -12 -72t12 -25q14 0 28 87q7 45 18 83zM211 572q8 8 0 8q-5 0 -55 -50q-76 -79 -86 -148q-2 -18 -2 -19q0 -5 2 -5q3 0 8 4q10 8 37 66t58 96
q8 9 16 20t14.5 19t7.5 9zM449 596q4 -3 8 0q2 3 -4 5q-7 0 -4 -5zM355 636q21 4 63 4h18q29 -1 42.5 -6.5t42.5 -27.5q43 -32 47 -44q4 -9 4 -18q0 -13 -9 -13q-11 0 -22 14q-12 13 -21 13q-11 0 -11 -20q0 -25 -14 -25q-12 0 -38 19q-48 33 -62.5 40.5t-33.5 7.5
q-24 0 -40 -19t-47 -85q-17 -32 -28 -69t-11 -55q0 -10 4 -10q5 0 28 17q41 31 94 31q33 0 70 -12q2 -1 70 -22q29 -7 60 -35.5t46 -60.5q14 -29 14 -60q0 -3 -0.5 -10.5t-0.5 -11.5q-3 -61 -41 -122q-6 -8 -6 -14t6 -17t6 -18q0 -12 -19 -12q-9 0 -15 1q-4 1 -12 1
q-22 0 -101 -30q-86 -34 -127 -34q-37 0 -89 21q-33 14 -51.5 26.5t-48.5 43.5q-46 46 -62 76q-18 34 -18 87q0 30 6 62q9 47 9 118q1 51 4.5 66t23.5 45q23 34 65.5 78t67.5 59q14 8 36.5 11.5t53.5 5.5t47 4z" />
    <glyph glyph-name="seven" unicode="7" horiz-adv-x="722" 
d="M416 499q-77 7 -82 8h-2h-2q0 -4 56 -22q66 -21 73 -21t12 8q8 11 6 17q-3 4 -61 10zM502 534q0 4 -4 4q-3 0 -3 -4q0 -3 3 -3q4 0 4 3zM204 531q-22 6 -35 6q-17 0 4 -6q20 -6 35 -6l11 1q-1 1 -15 5zM136 540q6 -3 12 0q7 3 0 4h-7q-8 0 -8 -2zM155 643q4 6 14 6
q15 0 96 -23q58 -17 85 -21t85 -4q82 0 140 -8l54 -8l21 20q15 15 22 15q3 0 6 -3t3 -8q0 -8 -17 -47q-19 -41 -19 -58q0 -8 1 -12q1 -6 1 -14q0 -12 -16 -17q-14 -5 -15 -7.5t9 -9.5q8 -6 8 -11q0 -6 -16 -29q-62 -94 -62 -116q0 -2 1 -3q7 -7 63 -11q58 -5 61 -13v-1l1 -2
q0 -8 -12 -14.5t-26 -6.5q-15 0 -15 -10q0 -18 -37 -18q-15 0 -5 -11q9 -11 4 -20q-4 -9 -24 -9q-4 0 -32 2l-52 5l-28 -44q-29 -44 -29 -53q0 -6 -25 -41q-25 -33 -47 -83q-26 -57 -37 -57q-3 0 -6 3q-2 2 -2 9q0 31 37 109q23 54 23 59v2q-3 0 -17 -31q-20 -41 -36 -56
q-22 -20 -32 -42t-19 -22q-7 0 -7 11q0 19 15 46q12 21 12 29q0 3 -4 11q-2 4 -2 8q0 15 25 72.5t25 76.5q0 15 -12 18q-16 2 -51 16q-23 9 -29.5 13t-6.5 13q0 6 1 9q3 19 -7 24q-8 3 -8 7q0 11 39 21l34 7l-52 18q-54 19 -54 31q0 7 20 9h2q23 0 102 -21q62 -17 85 -17
q4 0 5 1q8 9 23 44t15 44q0 2 -1 2q-3 3 -151 36q-105 23 -137.5 32.5t-32.5 16.5q0 1 0.5 2t0.5 2q0 8 -35 23q-36 15 -36 27q0 8 21 11q19 3 19 11q0 5 -11 5q-23 2 -28 7q-1 1 0 3.5t4.5 5t7.5 4.5q9 6 30 6q31 0 130 -16q50 -8 66 -8h2l-3 2q-2 1 -8 2.5t-13 4t-17 5
t-20 4.5q-69 16 -69 29q0 2 2 6z" />
    <glyph glyph-name="eight" unicode="8" horiz-adv-x="515" 
d="M351 -32q12 11 12 13t-5 2t-42 -5q-38 -7 -38 -12q0 -3 15 -9q17 -6 26 -6q14 0 32 17zM246 -13q6 -3 12 0q7 3 0 4h-7q-8 0 -8 -2zM181 12q-18 8 -23 8q-3 0 -3 -2q0 -4 23 -16q21 -10 21 -4q0 7 -18 14zM363 38l2 9q-2 0 -7.5 -2t-19 -6t-29.5 -9q-28 -7 -46 -7
q-8 0 -10 1q-11 4 -10 2l5 -5q11 -8 42 -11q5 -1 16 -1q46 0 57 29zM158 53q-9 15 -30 37.5t-26 22.5q-1 0 -1 -1q0 -14 13.5 -33.5t28.5 -26.5q18 -9 18 -7t-3 8zM416 192q0 3 -4 3q-3 0 -3 -3q0 -4 3 -4q4 0 4 4zM77 187l-9 17l-5 -19q-2 -10 -2 -16q0 -29 10 -47
q1 -2 3 -2q4 0 8 9.5t4 20.5q0 22 -9 37zM398 112q2 6 2 19q0 23 -9.5 50t-20.5 39l-17 20l5 -34q5 -32 5 -86q0 -51 4 -51q6 0 17 15t14 28zM409 208q0 7 -18 27l-19 19l16 -24q18 -27 20 -27q1 0 1 5zM330 220q-10 30 -32 30q-11 0 -33 -10q-19 -9 -53 -20
q-24 -9 -41.5 -22.5t-17.5 -21.5q0 -2 1 -3q4 -9 40 -23q34 -15 61 -38q18 -17 18 -19q0 -3 -8 -3q-17 0 -24 10q-7 8 -45 27t-47 19q-6 0 -6 -7q0 -9 8.5 -24.5t20.5 -25.5q23 -19 58 -28q27 -6 46 -6q35 0 50 20t15 63v7q-2 53 -11 75zM248 258l59 21h-39q-40 0 -59 -15
q-22 -16 -24 -18t0 -6h1q8 0 62 18zM361 300q-25 21 -38 21q-7 0 -9 -1t-1 -3t5 -7q8 -8 38 -20l28 -12zM287 523q-33 29 -39 29q-7 0 -22 -22q-11 -16 -11 -36q0 -10 1 -16q4 -24 14 -41.5t20 -17.5q8 0 20.5 -14.5t12.5 -24.5t9 -10q13 0 34 16.5t24 29.5q1 2 1 7
q0 19 -18 47t-46 53zM342 549q-17 17 -46 17q-13 0 -13 -6t28 -32q29 -29 42 -53q10 -18 13 -18q3 2 5 6q2 6 2 11q0 17 -9.5 40t-21.5 35zM211 609l23 20h-19q-29 0 -55.5 -26t-26.5 -53q0 -5 2 -13q5 -13 7 -6q1 3 3 13q5 21 24 34q8 5 42 31zM130 601q33 48 90 48
q54 0 122 -45q42 -28 52.5 -47t10.5 -73v-15q-1 -75 -13 -98l-12 -23l32 -35q61 -69 61 -156q0 -46 -10 -74q-6 -17 -32 -54.5t-57 -72.5q-22 -25 -51 -25q-25 0 -63 18q-50 24 -77 33q-29 11 -64 42.5t-57 68.5q-20 33 -20 74t20 81q12 24 25.5 37.5t48.5 37.5q56 37 56 45
t-22 34q-44 49 -52 135q-2 22 -2 26q0 18 14 38z" />
    <glyph glyph-name="nine" unicode="9" horiz-adv-x="576" 
d="M173 -36q-23 14 -35 14q-8 0 -8 -7t17.5 -14t33.5 -7q9 0 9 2q-2 3 -17 12zM411 -16q19 16 19 27q0 3 -3 3q-6 0 -29 -21q-19 -19 -19 -26q0 -3 2 -3q7 0 30 20zM179 13q0 20 -6 20q-5 0 -13 -12q-8 -13 0 -21q7 -7 12 -7q7 0 7 20zM280 26q-41 14 -51 14q-7 0 -14 -7
q-8 -10 -8 -22t7 -12q8 0 22 -17t34 -17t39 20q5 5 9.5 10.5t6 8.5t0.5 4q-5 4 -45 18zM492 64q3 5 0 10q-2 2 -3.5 0.5t-1.5 -5.5t1.5 -5.5t3.5 0.5zM411 68q8 18 3 20h-1q-3 0 -6 -9t-3 -17t5 2zM378 98q-4 6 -28 6q-34 0 -74.5 -9t-40.5 -18q0 -4 51.5 -16.5t66.5 -12.5
q7 0 16.5 18t9.5 28q0 3 -1 4zM432 155q7 12 5 25q-2 12 -8 -1q-5 -12 -5 -25q1 -8 2.5 -7.5t5.5 8.5zM438 215q0 15 -7 19q-3 2 -5 -1t-2 -9q0 -14 7 -18q3 -2 5 0.5t2 8.5zM361 441q0 18 -15 35l-14 16l4 -23q4 -26 4 -53q1 -23 3 -23t8 12q8 13 10 36zM241 542
q-18 9 -30 9q-19 0 -40 -28q-20 -28 -20 -49q0 -4 2 -28q7 -76 33 -76q18 0 18 -10q0 -6 -11 -9q-12 -4 -12 -12q0 -2 2 -14q5 -20 8.5 -23.5t27.5 -6.5q1 0 4 -0.5t5 -0.5q41 0 69 57q15 33 15 67q0 39 -19 72.5t-52 51.5zM329 576q-7 3 -12 3q-6 0 -6 -4q0 -6 15 -15
q14 -9 14 2q0 10 -11 14zM285 561q-34 19 -44 19q-6 0 -6 -6q0 -7 21 -14q26 -9 50 -37q18 -20 21 -20q0 1 -2 3q-7 9 -7 26q0 11 -33 29zM164 597q5 7 5 9t-4 2q-12 0 -33 -14q-24 -15 -24 -25q0 -3 5 -3q7 0 26 11.5t25 19.5zM320 645q-12 12 -23 12q-15 0 -15 -6
q0 -7 27 -21q18 -9 23 -9q3 0 3 2q0 4 -15 22zM246 668q21 9 50 9q27 0 38 -8q10 -9 28 -35q19 -28 42 -39q18 -10 36.5 -33t21.5 -41q11 -81 36 -147q21 -55 28.5 -91.5t7.5 -86.5q0 -6 -0.5 -18.5t-0.5 -19.5q-2 -58 -5 -78t-16 -44q-27 -54 -99 -87q-24 -11 -49 -14
t-109 -3q-88 0 -108.5 2.5t-31.5 13.5q-12 11 -12 23q0 3 2 17q10 50 108 107q43 24 59 28.5t60 4.5h61l2 80v31q0 59 -11 59q-6 0 -24 -21q-20 -25 -41 -36t-60 -17q-20 -3 -31 -3q-20 0 -46 13q-37 19 -59 42q-33 38 -57 107.5t-24 125.5q0 18 3 33q11 50 52 82.5t93 32.5
q40 2 56 11z" />
    <glyph glyph-name="colon" unicode=":" horiz-adv-x="183" 
d="M88 -1q0 7 -8 7q-10 0 1 -11q3 -3 4 -3q3 0 3 7zM63 38q17 17 37 17q18 0 31 -13.5t13 -34.5q0 -32 -20 -55.5t-43 -23.5q-22 0 -34 24q-7 16 -7 30q0 33 23 56zM86 617q3 5 -5 5t-5 -5q5 -3 10 0zM60 652q16 19 39 19q19 0 32 -12q12 -12 12 -35q0 -21 -9.5 -42
t-24.5 -30q-13 -7 -29 -7q-18 0 -26 9q-14 17 -14 42q0 30 20 56z" />
    <glyph glyph-name="semicolon" unicode=";" horiz-adv-x="182" 
d="M82 -146h1q4 0 10 11.5t6 17.5q0 2 -1 2q-4 0 -11 -13.5t-5 -17.5zM80 -40h2q1 0 1 2q0 4 -3 10.5t-5 6.5t-2 -7q0 -8 7 -12zM95 42q9 6 18 6q15 0 23 -14q2 -3 2 -18q0 -30 -9 -79t-19 -70q-7 -14 -13.5 -18t-22.5 -4q-20 0 -20 4q0 1 6 9q11 11 19 40q4 13 4 21
q0 9 -14 19q-17 12 -17 32q0 13 15 38t28 34zM85 617q3 5 -5 5t-5 -5q5 -3 10 0zM62 654q17 17 38 17q18 0 30.5 -13t12.5 -35q0 -32 -20 -55.5t-43 -23.5q-22 0 -34 24q-7 16 -7 30q0 33 23 56z" />
    <glyph glyph-name="question" unicode="?" horiz-adv-x="386" 
d="M183 -22q5 5 -8 9q-9 4 -9 2t4 -6q9 -9 13 -5zM200 12q0 7 -2 7q-5 0 -8 -8q-2 -6 3 -6q7 0 7 7zM207 49q0 18 -11 18q-8 0 -17 -10q-6 -8 -6 -11t19 -9q10 -3 12.5 -1t2.5 13zM173 96q0 6 -7 6q-6 0 -13 -8.5t-7 -14.5q0 -2 1 -3t3 -1q6 0 14.5 7.5t8.5 13.5zM139 115
q8 8 20 8q16 0 42 -16q24 -16 37 -56q8 -26 8 -40q0 -31 -38 -53q-25 -15 -46 -15q-16 0 -24 12q-7 13 -7 78q0 74 8 82zM159 231q0 6 -3 8.5t-7 0t-7 -9.5q-5 -12 -4 -14t10 1q11 5 11 14zM200 272q0 11 -6 11q-5 0 -12.5 -8.5t-7.5 -13.5q0 -2 1 -3q3 -3 7 -3q6 0 12 5.5
t6 11.5zM263 404q0 4 -4 4q-3 0 -3 -4q0 -3 3 -3q4 0 4 3zM268 417q3 4 0 8q-3 2 -5 -3q0 -4 1.5 -5t3.5 0zM159 556q0 4 -5.5 4t-10.5 -4q-5 -3 -5 -23v-18l10 18q8 13 11 23zM75 533q7 25 7 27q0 7 -6 7q-13 0 -13 -18q0 -5 2 -15l5 -19zM318 571q0 3 -3 3q-4 0 -4 -3
q0 -4 4 -4q3 0 3 4zM255 619q-11 23 -24 23q-6 0 -6 -6q0 -14 30 -30q5 -4 4 2zM166 663q26 8 54 8q32 0 48 -8q16 -9 43.5 -43t31.5 -50q2 -6 2 -20q0 -45 -29 -104q-10 -20 -22.5 -47t-22.5 -47.5t-24 -41.5q-18 -28 -18 -55v-7q0 -6 0.5 -14t0.5 -10q0 -23 -8 -23
q-2 0 -8 2q-14 3 -14 -2q0 -9 -9 -19q-7 -10 -9.5 -9.5t-8.5 13.5q-7 15 -14 15q-6 0 -15 -4q-19 -8 -28 1q-4 4 -4 11q0 33 92 105q17 13 28 59q16 72 39 106q13 19 13 44q0 29 -17 49q-15 18 -34.5 30t-31.5 12q-6 0 -9 -3q-10 -10 8 -23q16 -12 12 -13q-2 -1 -9 -1
q-14 0 -22 -11t-19 -47q-9 -30 -9 -37t9 -13t9 -17q0 -3 -2 -13q-5 -21 -17 -21q-6 0 -10 6t-24 10q-17 4 -38.5 30.5t-31.5 59.5q-5 12 -5 22t8 22q10 16 37 28q25 9 39 36q15 26 39 34z" />
    <glyph glyph-name="A" unicode="A" horiz-adv-x="682" 
d="M495 126q0 32 -6 52q-3 9 -4 9q-2 0 -2 -22q0 -29 6 -53q3 -12 4 -12q2 0 2 26zM189 170q14 26 14 35q0 5 -4 5q-6 0 -15.5 -9.5t-16.5 -23.5q-11 -21 -11 -33q0 -6 4 -6q12 0 29 32zM163 286q0 4 -4 4q-3 0 -3 -4q0 -3 3 -3q4 0 4 3zM246 303q2 10 2.5 15t-1.5 6
q-10 0 -25 -24t-15 -39q0 -5 3 -8q1 -1 3 -1q7 0 17 15.5t16 35.5zM461 319q2 19 -7 23q-1 1 -3 1q-3 0 -3 -6q0 -8 6 -23q6 -13 7 -6v11zM420 331q-6 13 -35 13h-13q-47 -1 -62.5 -8.5t-34.5 -41.5q-19 -33 -19 -44q0 -4 31 -4q43 0 98 5t55 10q0 4 -8 16q-6 7 -25 7
q-25 0 -83 -12q-14 -2 -16 -2q-7 0 -7 11q0 17 15.5 24.5t55.5 9.5q12 0 25.5 0.5t20.5 0.5l7 1v1q0 2 -1.5 5.5t-3.5 7.5zM506 345q-4 8 -11 8q-10 0 -10 -15q0 -6 4 -13q7 -19 7 -31q0 -16 14 -34q10 -13 10 -20t-4 -12q-4 -7 -4 -21q0 -37 27 -108q12 -32 15 -32t3 9
q0 21 -22.5 140t-28.5 129zM395 401q1 1 1 5q0 13 -10 42t-14 29t-25.5 -43t-21.5 -51q0 -1 2 -1q9 0 36 7t32 12zM306 451q14 40 14 56q0 4 -11 -16q-44 -77 -55 -113q-1 -3 -1 -4q0 -8 6 -8q18 0 47 85zM438 410q1 1 1 5q0 12 -8 44.5t-16.5 60t-10.5 27.5q-10 0 -10 -22
q0 -26 12 -62q17 -55 28 -55q2 0 4 2zM479 451q-6 13 -28 68q-11 28 -13 28q-1 0 -1 -3q0 -14 16 -79q7 -29 12 -39.5t12 -10.5q12 0 12 8q0 6 -10 28zM322 578q0 3 -3 3q-4 0 -4 -3q0 -4 4 -4q3 0 3 4zM392 593q0 9 -2 9q-3 0 -11 -22l-5 -18l7 8q11 15 11 23zM211 159
q0 -4 -24 -62.5t-24 -63.5q0 -13 -24 -49t-33 -36l-2 1q-3 3 -3 8q0 9 9 32q13 35 13 41q0 7 -6 7q-7 0 -29.5 -45.5t-22.5 -59.5q0 -7 -4.5 -9.5t-9 0.5t-4.5 10q0 29 70 213q18 47 18 66t9 28q5 5 3 9.5t-14 13.5q-19 15 -19 25t11 23t19 13q6 0 29 17q15 11 19.5 21.5
t6.5 36.5t29 113.5t35 95.5q4 3 13 -9q5 -7 7 -7q4 0 14 20q12 24 19 24t13 -16q5 -18 11 -18q5 0 21.5 38.5t16.5 51.5q0 17 16 25q13 7 19 7q5 0 5 -9q0 -3 -2 -23q-1 -8 -1 -19q0 -16 5 -16q6 0 13 15q7 14 14 14q6 0 6 -15q0 -9 -1 -14q-1 -6 -1 -18q0 -21 6 -40
q8 -20 27 -85.5t22 -74.5l9 -28l48 -2q50 -2 64 -5q15 -4 15 -8q0 -8 -42 -13q-35 -3 -35 -9l2 -2q10 -6 23 -6t25 -11t12 -22q0 -1 -1 -3v-2q-5 -11 -17 -11q-15 0 -18 14q-3 15 -27 15q-15 0 -15 -8q0 -15 17 -80q22 -84 26 -170q7 -121 26 -121q4 0 7 3q6 5 8.5 3
t5.5 -13q2 -10 2 -13q0 -19 -20 -19q-11 0 -22 14.5t-17 37.5q-6 24 -26 42q-22 22 -30 35q-7 11 -8 5v-16q-1 -16 -7.5 -28t-14.5 -12q-3 0 -6 3q-5 5 -22 92l-15 84h-20q-20 0 -20 7q0 6 17 11q7 1 12 5t5 7t-31 3q-29 0 -67.5 -2.5t-38.5 -5.5q0 -2 38 -7q48 -6 48 -9
t-15 -8q-13 -5 -34 -5q-41 0 -82 15q-17 5 -21 5q-8 0 -19 -16q-14 -17 -14 -26z" />
    <glyph glyph-name="B" unicode="B" horiz-adv-x="707" 
d="M455 33q0 5 -8.5 6.5t-13.5 -3.5q-4 -4 -61 -4q-56 0 -56 -3t37 -10q15 -3 34 -3q27 0 47.5 5t20.5 12zM580 67q0 7 -12 7t-26 -8q-18 -9 -42 -33q-25 -23 -50 -32.5t-65 -9.5t-159 32q-13 3 -13 1q0 -1 2 -3q8 -9 68.5 -27.5t108.5 -26.5q54 -10 82 -10q30 0 50 17
q15 13 35.5 46.5t20.5 46.5zM579 239q-13 30 -24 30q-8 0 -8 -22q0 -29 -5 -84q-3 -29 -3 -42q0 -18 8 -18t21 7q17 9 21.5 19.5t4.5 41.5q0 39 -15 68zM441 292q-13 1 -29.5 3.5t-27.5 4t-21 1.5q-22 0 -58 -9q-32 -8 -65 -8h-7q-3 0 -8 0.5t-7 0.5q-15 0 -15 -7v-5
q0 -17 -12 -67q-14 -56 -14 -91v-10q0 -19 10.5 -23.5t72.5 -14.5q37 -5 96 -5q110 0 130 10q14 7 24 45.5t10 79.5q0 19 -3 36q-7 37 -18 45.5t-58 13.5zM490 322q0 2 -12 2q-4 0 -6 -2.5t0 -4.5q3 -5 10.5 -3t7.5 8zM588 302q-49 33 -67 33q-4 0 -4 -3q0 -6 14.5 -17.5
t35.5 -20.5q20 -9 32 -25.5t23 -53.5q6 -22 12 -22q8 0 8 29q0 44 -54 80zM330 335q0 3 -4 3q-3 0 -3 -3q0 -4 3 -4q4 0 4 4zM351 342q0 3 -4 3q-3 0 -3 -3q0 -4 3 -4q4 0 4 4zM444 334q0 16 -10 16q-6 0 -17 -8q-14 -11 -7 -18q6 -6 15 -6q19 0 19 16zM154 424q2 14 2 16
q0 9 -3 9t-11 -18q-6 -16 -11 -71t-5 -103q0 -20 2 -44l4 -45l9 25q23 64 23 125q0 9 -2 15q-2 3 -2 9q0 10 10 29q10 22 10 29q0 3 -2 3t-9 -12q-5 -8 -8 -8q-9 0 -9 22q0 5 2 19zM170 488q0 3 -7 3t-7 -8t11 1q3 3 3 4zM489 474q2 13 -10 28v1q-8 10 -9 6q0 -2 -1 -9v-5
q0 -21 -13 -60q-10 -30 -10 -42t8 -12q2 0 4 1q6 2 18 38t13 54zM414 419q5 13 5 53q0 72 -16 72q-5 0 -39 -69.5t-34 -80.5q0 -1 5 -1q14 0 34 4q41 9 45 22zM338 576q-6 1 -20 4.5t-17 4.5q-8 2 -11 2q-18 0 -28.5 -20t-18.5 -66q-10 -57 -10 -81q0 -14 4 -16.5t25 -2.5
t28.5 5.5t26.5 35.5q47 75 47 113q0 5 -1 7q-5 10 -25 14zM371 641q-18 9 -40 9q-19 0 -34 -6t-15 -10q0 -3 12 -3q3 0 23 2q16 2 22 2q17 0 37 -12q25 -14 28 -14q2 0 2 1q0 4 -11.5 14t-23.5 17zM278 669q23 10 53 10q31 0 50 -9q17 -7 45.5 -35.5t28.5 -38.5q0 -5 24 -31
q33 -36 33 -77q0 -22 -6 -52q-10 -49 -14 -57q0 -1 -0.5 -1t-0.5 -1q0 -9 62 -35q117 -49 117 -129q0 -37 -26 -72q-23 -31 -40 -83q-26 -74 -54 -99t-83 -25h-4q-42 1 -137.5 24.5t-133.5 42.5q-34 18 -53 18q-6 0 -10 1t-6 4.5t-2.5 5.5t-1 9.5t-0.5 10.5q-1 15 -14 15
q-11 0 -15 -12q-4 -13 -23 -12q-13 1 -16 6.5t-5 23.5v9q0 52 39 258q18 92 20 157q1 47 12.5 91.5t23.5 49.5q9 2 23 -16q15 -17 26 -17q14 0 40 28t48 38z" />
    <glyph glyph-name="C" unicode="C" horiz-adv-x="705" 
d="M293 -9q0 7 -18 7q-13 0 -13 -5q0 -9 18 -9q13 0 13 7zM466 19q-10 6 -29 6q-25 0 -37 -9q-10 -8 -9 -10t15 -5q4 -1 13 -1q16 0 32.5 5.5t16.5 10.5q0 2 -2 3zM278 124q-17 21 -49 81q-19 41 -26 41q-1 0 -1 -2q-1 -6 -1 -18q0 -75 59 -120q22 -18 35 -18q5 0 5 4
q0 7 -22 32zM162 250q5 8 5 28q0 22 -5 22q-1 0 -2 -1q-6 -6 -6 -33q1 -21 3 -21q2 -1 5 5zM192 403q10 35 10 48l-1 3q-1 1 -2 1q-5 0 -16 -19t-19 -44q-8 -24 -8 -30q0 -8 6 -11q4 -3 7 -3q9 0 23 55zM210 477q0 -3 1 -5q2 -4 4 3q1 4 -1 7q-2 1 -3 0t-1 -5zM376 541
q0 5 -15 5q-23 0 -44 -9q-20 -9 -46.5 -42.5t-26.5 -49.5q0 -17 -7 -20q-7 -5 -7 -15q0 -1 1 -1q11 0 72 58q73 69 73 74zM413 618q0 3 -9 4q-9 0 -10 -2l2 -2q8 -2 17 0zM303 622q10 6 10 6.5t-13 1.5q-21 0 -50 -16.5t-40 -35.5q-13 -20 -13 -29q0 -3 3 -3q11 0 51 34
q44 38 52 42zM290 655q36 9 69 9q49 0 102 -20q57 -20 98 -20h12h15q38 0 46 -4q9 -5 21 -30t12 -38q0 -12 -30 -12q-5 0 -43 2q-44 2 -53 2q-24 0 -31 -4t-14 -4q-8 0 -20 6q-16 7 -25 7q-17 0 -38.5 -17t-67.5 -65q-62 -64 -83.5 -98t-21.5 -69q0 -12 1 -18
q6 -63 61.5 -132t100.5 -69q16 0 66.5 39t67.5 65q24 35 40 35q8 0 13 -11q1 -2 1 -7q0 -22 -59 -78l-46 -44l44 5q7 1 20 1q62 0 62 -39q0 -12 -8 -28q-6 -12 -10 -15.5t-15 -3.5q-2 0 -24 2q-9 1 -24 1q-22 0 -48 -11q-34 -14 -63 -14q-21 0 -41 7q-11 4 -18 4
q-9 0 -26 -13q-22 -16 -55 -16q-26 0 -37 10q-13 10 -62 77t-71 103q-23 39 -23 60q0 22 -18 72q-22 63 -22 105q0 59 55 105q35 31 52 57q29 47 60 71t78 35z" />
    <glyph glyph-name="D" unicode="D" horiz-adv-x="663" 
d="M397 1q5 6 4 8.5t-9 1.5q-8 0 -20 -3q-9 -4 -52 -9l-45 -5l30 -10q13 -4 31 -4q43 0 61 21zM575 285q3 4 0 8q-3 2 -5 -3q0 -4 1.5 -5t3.5 0zM529 278q1 -26 3 -26q5 0 5 41q0 17 -3 17q-5 0 -5 -25v-7zM127 203q3 41 3 80q0 27 -2 55l-6 52l-5 -80q-9 -150 -9 -176
q0 -20 3 -20q1 0 2 1q7 7 14 88zM310 516q-32 10 -43 10q-9 0 -9 -16q0 -17 10 -30q11 -14 11 -22q0 -7 -12 -7q-7 0 -11 1l-24 4l-14 -67q-34 -162 -38 -259v-12q0 -30 12 -36t67 -7h4q57 0 117 18t81 41q16 18 29.5 73t13.5 100q0 76 -22 113.5t-83 63.5q-50 22 -89 32z
M317 564q-19 10 -30 10q-8 0 -11 -6q-1 -1 1 -3t6 -4t10 -3q17 -4 29 -4q7 0 7 2q0 4 -12 8zM303 606q-23 10 -47 10q-39 0 -67.5 -25.5t-32.5 -66.5l-3 -29l15 27q14 26 28.5 42.5t23.5 16.5q7 0 29 12q17 9 27 9q3 0 23 -4q19 -6 25 -6q3 0 3 1q0 3 -24 13zM192 630
q35 21 58 21q28 0 74.5 -25t84.5 -61q58 -53 99 -86q70 -57 94 -93t24 -84q0 -46 -12 -73t-50 -67q-54 -58 -82 -98q-33 -46 -55 -66.5t-46 -30.5q-28 -11 -53 -11q-52 0 -110 43q-35 26 -44 26q-7 0 -7 -13q0 -15 -11 -57q-8 -26 -12 -32.5t-13 -6.5h-5q-13 2 -15.5 11
t-2.5 60q0 69 -7 73q-2 1 -3.5 0t-3.5 -4.5t-2 -7.5q-1 -11 -8 -17.5t-14 -6.5t-10 8q-4 15 -9 59t-5 70q0 3 0.5 7.5t0.5 5.5q25 202 34 245q10 58 10 105q1 35 4 48t13 24q13 16 27 16h5h4q18 0 48 18z" />
    <glyph glyph-name="E" unicode="E" horiz-adv-x="638" 
d="M178 -2q0 7 -7 7t-7 -7t7 -7t7 7zM294 35l7 1q0 1 -30 1q-31 0 -31 -1q2 -1 5 -1t11 -0.5t13 -0.5t13.5 0.5t11.5 0.5zM129 36q3 3 3 7q0 10 -6 10q-4 0 -4 -11q0 -4 2.5 -6t4.5 0zM238 90q3 5 -5 5t-5 -5q5 -3 10 0zM105 117q4 6 2 21l-3 16l-6 -16q-3 -8 -3 -13
q0 -10 5 -10q3 0 5 2zM212 219q0 15 -6 15q-12 0 -12 -34q0 -13 2 -19l5 -20l5 21q3 14 6 37zM157 225q0 26 -6 26q-4 0 -10.5 -43t-6.5 -65q0 -9 1 -10h1q4 0 12 36t9 56zM303 276q9 3 9 4t-21 2h-6q-24 0 -24 -6t12 -6t30 6zM171 321q0 3 -4 3q-3 0 -3 -3q0 -4 3 -4
q4 0 4 4zM294 310q20 0 20 3q0 4 -17.5 9t-27.5 5q-1 0 -3 -1h-1q-2 -2 -2 -5q0 -11 31 -11zM410 352q-18 7 -42 7q-19 0 -19 -4q0 -1 2 -3q12 -6 42 -6q22 0 22 2q0 1 -5 4zM486 508q-8 3 -11.5 3.5t-4.5 -2t-1 -8.5q0 -10 14 -10t14 7q0 5 -11 10zM312 583q0 3 -9 4
q-10 0 -11 -2l2 -2q8 -2 18 0zM133 658q3 6 15 6q19 0 86 -17q57 -14 109 -14q36 0 60 1q21 1 56 1q101 0 101 -15q0 -5 -56 -5h-23h-21q-46 0 -46 -5t59 -11q117 -11 124 -28q3 -10 -3 -15q-4 -2 -15 -2q-24 0 -107 11t-100 12l-52 4l80 -17q89 -19 116.5 -28.5t27.5 -22.5
t-24 -28q-17 -11 -38.5 -14.5t-92.5 -8.5q-100 -5 -109 -11q-3 -3 -9 -45l-5 -40h19q19 0 32 11q12 11 84 12l71 1l16 -23q16 -23 16 -33q0 -31 -152 -70q-84 -21 -98 -33.5t-16 -68.5l-1 -42l69 -19q78 -21 139 -27q93 -10 93 -27v-1l-1 -2q-1 -6 -31 -14.5t-30 -16.5
q0 -7 -21 -7q-5 0 -47 2q-19 2 -69 2t-68 -2q-40 -3 -52 -5.5t-12 -8.5q0 -9 10 -12.5t37 -6.5q105 -12 136 -18t31 -14q0 -3 -3 -7q-5 -8 -48 -8q-65 0 -126 14q-65 14 -84 14q-7 0 -7 -2t6 -5q12 -6 12 -14q0 -7 -9 -7q-15 0 -43 18q-23 17 -48 28q-24 13 -24 17t15 19
t15 26q0 4 -4 24q-3 15 -3 32q0 20 6 58q21 123 32 237q1 10 2 23.5t1.5 20.5t0.5 12q0 19 -11 26q-9 7 -9 14q0 13 28 19q23 5 27 13q14 42 20 42q4 0 8 -4q10 -10 7 -24q-5 -15 2 -20q8 -5 93 -12.5t126 -7.5q14 0 16 1q2 2 2 3q0 10 -167 54q-104 27 -104 40q1 24 44 24
h13q4 0 10 -0.5t8 -0.5q18 0 18 3q0 6 -52 17q-59 13 -59 24q0 3 1 4z" />
    <glyph glyph-name="F" unicode="F" horiz-adv-x="640" 
d="M190 161q0 17 -7 21q-1 0 -1 0.5t-1 0.5q-4 0 -7.5 -9.5t-3.5 -18.5q0 -7 3 -11q3 -5 7 -5q10 0 10 22zM125 119q8 10 8 45q0 40 -14 41q-1 0 -3 0.5t-3 0.5q-4 0 -6 -2t-4 -8t-2.5 -14t-1.5 -23v-9q0 -40 14 -40q5 0 12 9zM268 236q4 2 -3 3l-9 1q-11 0 -11 -2l3 -2
q11 -2 20 0zM312 283q13 0 13 8q0 6 -13 6q-14 -2 -14 -7q5 -7 14 -7zM190 310q0 -3 1 -4q2 -3 5 2q1 4 -1 7q-2 1 -3.5 0t-1.5 -5zM145 358q-3 8 -7 8q-9 0 -17 -35q-7 -32 -7 -47q0 -14 8 -14h4q13 1 17 40q3 20 3 37v7zM196 490q10 5 2 11q-6 4 -15 -6q-10 -11 -1 -11
q6 0 14 6zM235 484q6 0 62.5 -7.5t85.5 -7.5q43 0 43 15q0 8 -32 22q-31 13 -65 17h-10q-29 0 -58 -9t-29 -19q0 -11 3 -11zM127 509q0 17 -13 17t-17 -16q-4 -15 -4 -39q0 -58 13 -58q1 0 3 2q4 4 11 40.5t7 53.5zM207 560q3 7 -6 7q-11 0 -14 -7q-4 -6 6 -6t14 6zM320 571
q5 5 5 6q0 3 -36 4q-50 0 -50 -13q0 -4 5 -9q4 -4 17 -4q38 0 59 16zM218 633q8 22 25 22q3 0 13 -2q14 -4 97 -9q85 -5 125 -20q45 -15 82 -15q40 0 40 -5q0 -8 -10.5 -15.5t-21.5 -7.5q-16 0 -20 -18q-3 -11 -7.5 -13.5t-25.5 -2.5h-35q-24 1 -57 1q-45 0 -45 -8
q0 -9 79 -32q37 -10 51 -18q8 -8 8 -18q0 -17 -15 -23q-18 -8 -77 -18t-105 -14q-62 -6 -75 -14q-14 -7 -16.5 -15t-2.5 -43q0 -48 5 -51h2q1 -1 2 -1q11 0 33 8t29 15q8 8 31 8q33 0 33 -28q0 -8 -3 -17q-6 -15 -6 -19q0 -5 20 -16q20 -10 20 -22q0 -8 -9 -8q-2 0 -18 2
q-6 1 -14 1q-13 0 -16 -7q-4 -9 -54 -12q-51 -4 -59 -16q-7 -10 -7 -14q0 -10 28 -10q45 0 45 -18q0 -7 -8.5 -11t-37.5 -10q-23 -4 -29 -12q-7 -12 -14 -83q-12 -110 -29 -110q-12 0 -12 19q0 14 8 38q11 36 11 83q0 37 -8 37h-1q-8 -3 -17 -73q-9 -88 -25 -88q-2 0 -5 3
q-2 2 -2 14q0 16 3.5 63.5t3.5 55.5q0 7 -5 7q-8 0 -18.5 -10.5t-15.5 -23.5q-7 -23 -7 -62q0 -40 -11 -49q-7 -6 -11 -6q-9 0 -9 38q0 51 13 211q6 78 6 118q0 55 -15 72q-11 12 -2 27q6 9 6 40q0 9 -2 59q-2 24 -2 66q0 33 2 38q4 18 16 18q10 0 16 -17l6 -17l30 17
q25 15 60 21q31 4 36 20z" />
    <glyph glyph-name="G" unicode="G" horiz-adv-x="737" 
d="M499 -9q0 13 -9 13q-12 0 -37 -14q-26 -14 -68 -16q-40 0 -44 -4q-1 -1 -1 -2q0 -8 31.5 -20t53.5 -12q20 0 30 3.5t23 16.5q21 21 21 35zM331 6q0 7 -23 7q-18 0 -18 -2t22 -8q19 -5 19 3zM166 50q-23 11 -28 11q-3 0 -3 -5q0 -10 13 -19.5t26 -9.5q16 0 16 5
q0 8 -24 18zM227 85q-25 25 -32 25q-3 0 -3 -4q0 -2 2 -10q14 -48 42 -48q17 0 17 6q0 7 -26 31zM492 90q0 28 -15 28t-71 -29q-63 -33 -63 -41q0 -2 8 -2q18 0 46 6q57 13 72 15q15 3 19 7t4 16zM148 139q-1 14 -5 27t-8 13q-2 0 -2 -1q-3 -6 6 -28q6 -13 8 -13q1 0 1 2z
M553 254q-33 10 -50 10q-4 0 -4 -1q0 -3 21 -10q48 -15 89 -15q16 0 16 4q0 6 -17 4q-1 0 -3 -0.5t-3 -0.5q-18 0 -49 9zM584 341q8 8 -8 8q-11 0 -12 -2t3 -6q9 -9 17 0zM114 337q0 33 -3 33q-8 0 -8 -40q0 -15 3 -18q2 -2 3 -2q5 0 5 27zM410 539q-3 6 -16 6q-18 0 -18 -9
q0 -5 7 -8q6 -2 9 -2q19 0 19 10q0 2 -1 3zM142 518q0 27 -7 27q-11 0 -37 -42t-26 -59q0 -10 16 -10q18 0 29 11q25 25 25 73zM345 567q-13 4 -29 4q-28 0 -67 -21q-16 -9 -36.5 -31.5t-20.5 -31.5q0 -2 1 -3h2q11 0 68.5 24.5t77.5 38.5l20 15zM401 623q0 6 -18 6
q-12 0 -13.5 -2.5t3.5 -12.5q8 -14 18 -5q10 7 10 14zM301 598l37 7q-7 5 -20 15t-20 15l-51 -22q-40 -16 -55 -31.5t-20 -44.5l-4 -23l30 28q29 27 48.5 38t54.5 18zM583 55q-5 0 -10.5 7t-9.5 7q-6 0 -18.5 -25.5t-21.5 -55.5q-21 -73 -86 -79q-6 -1 -18 -1
q-25 0 -49.5 10.5t-73.5 39.5q-39 24 -58 31t-53 10q-48 5 -64 18t-19 53q-4 39 -20 80q-38 98 -38 234q0 59 11 94q13 35 95 118q55 55 70.5 68t28.5 13q1 0 4.5 -0.5t5.5 -0.5q28 -4 84 -11q50 -6 67.5 -13t17.5 -22q0 -10 -6 -26q-3 -8 -3 -13q0 -11 31 -37
q35 -33 35 -45q0 -7 -3.5 -9.5t-18.5 -2.5q-4 0 -54 2q-34 3 -52 3q-28 0 -75 -17q-115 -42 -123 -66q-5 -21 -10 -70q-3 -24 -3 -46q0 -50 16 -89q6 -16 63 -79.5t69 -68.5h3q15 0 61 23.5t72 43.5q25 20 43 20q14 0 30.5 -16.5t16.5 -29.5q0 -9 6 -9q8 0 21 17
q14 17 14 34q0 14 -7 27q-8 15 -18.5 21t-45.5 16q-40 11 -55 28t-24 17q-10 0 -38 22t-28 30q0 12 16.5 26.5t29.5 14.5h3q15 -4 19 11t21 20q4 1 21 1q38 0 98 -7t68 -13q9 -6 30 -44q19 -35 35 -49q11 -11 11 -19q0 -14 -19 -14q-32 0 -32 -40q0 -19 -27.5 -80.5
t-35.5 -61.5z" />
    <glyph glyph-name="H" unicode="H" horiz-adv-x="650" 
d="M513 79q0 -6 1 -7l3 3q3 10 0 13q-2 4 -4 -2v-7zM526 122q0 3 -3 3q-4 0 -4 -3q0 -4 4 -4q3 0 3 4zM132 232q2 11 0 21q-2 -3 -3 -13l2 -11zM274 295q-50 15 -72 15q-14 0 -18 -6q-4 -4 -4 -8q0 -8 31 -21q19 -7 37 -7q10 0 15 1q40 6 40 13q0 5 -29 13zM520 310
q0 -6 1 -7l3 3q3 10 0 13q-2 4 -4 -2v-7zM100 281q5 7 5 26q0 18 -5 18q-1 0 -2 -1q-6 -4 -6 -30q1 -19 3 -19q1 0 5 6zM531 348q2 8 0 17q-3 6 -3 -9q0 -11 2 -10zM538 397q2 8 0 17q-3 6 -3 -9q0 -11 2 -10zM153 407q2 12 0 25q-2 5 -3 -1v-12q0 -16 2 -15zM431 436
q8 38 8 51q0 2 -2 2q-5 0 -11 -56l-4 -45zM491 570q0 10 -5 10q-6 0 -18.5 -66t-12.5 -95q0 -8 1 -9q8 -8 14 -2q4 4 12.5 70t8.5 92zM549 659q7 26 12 26q3 0 4 -0.5t2 -4t1 -10.5v-21v-53v-21q0 -51 3 -51q5 0 12 32q10 42 22 42q5 0 5 -12q0 -22 -17 -87
q-17 -74 -31 -154q-20 -117 -24 -134q-5 -24 -5 -41q0 -8 2 -8q6 0 6 -47q0 -60 -8 -90q-7 -27 -23 -33q-17 -6 -24 -36q-5 -22 -14 -38.5t-16 -16.5q-2 0 -3 1q-7 7 -7 141q0 138 7 202q7 68 7 82q0 20 -6 20q-2 0 -5 -3q-5 -5 -14.5 -66.5t-20.5 -120t-20 -58.5h-1
q-9 1 -9 60v30v89l-25 -13q-52 -26 -126 -26q-16 0 -23 1l-34 5l5 -27v-9q0 -35 -12 -97q-11 -58 -11 -96v-8q2 -14 2 -23q0 -49 -16 -54q-2 -1 -6 -1q-16 0 -16 39v5q0 35 -4 51q-4 19 -10 19q-1 0 -9 -4q-11 -6 -19 -6q-36 0 -36 104q0 60 10 144q6 55 6 76q0 19 -5 26
q-6 6 -6 46v23q1 38 4 47.5t12 9.5q8 0 10.5 6t2.5 28q0 28 7 52t15 24h2q7 -3 7 -36q0 -32 -6 -121q-3 -43 -3 -61q0 -25 9 -25q11 0 16 41q6 51 22 126t23 83t25.5 18.5t25.5 10.5l2 -1q2 -2 -5 -100q-7 -103 -7 -119q0 -19 3.5 -28.5t8 -12t17.5 -7.5q21 -8 32 -8
q6 0 22 4q24 7 66 7h39l5 53q3 26 3 53q0 15 -2 31q-1 6 -1 18q0 23 4 32l8 20l9 -18q8 -13 10 -41q0 -20 4 -20q9 0 21 57q17 73 35 73q11 0 15 -31q2 -18 2 -34q0 -57 -21 -210q-25 -183 -25 -249q0 -15 2 -31q3 -25 7 -25q7 0 9 59q1 52 27.5 268.5t37.5 262.5z" />
    <glyph glyph-name="I" unicode="I" horiz-adv-x="258" 
d="M187 264q2 8 0 17q-3 0 -4 -9q0 -9 2 -10zM201 725q6 6 11 6q10 0 10 -25q0 -13 -5 -40q-5 -22 -5 -42q0 -17 5 -31q6 -18 6 -59q0 -32 -3 -95q-4 -79 -7 -256q-1 -129 -12 -144q-13 -19 -14 -79q-3 -64 -14 -64q-4 0 -12 5q-10 5 -15 92q-5 90 -8 90q-2 0 -5 -7
q-7 -11 -7 -44q0 -32 -12 -38h-2l-2 -1q-12 0 -30.5 21t-23.5 42q-7 24 -7 161v57q0 98 -3 131q-2 28 -2 35q0 33 11 33q4 0 14 -8q14 -4 15 0q0 9 -12 45q-8 20 -8 48q0 14 1 21q6 49 18 49q6 0 12 -9q5 -7 5.5 -8t3.5 -2t4.5 1t5.5 8q10 13 21 9t11 -31q0 -5 -2 -43
q-2 -34 -2 -39q0 -12 2 -12q5 0 28 116q18 96 29 107z" />
    <glyph glyph-name="J" unicode="J" horiz-adv-x="593" 
d="M296 6l-1 6q-4 0 -16 -6q-10 -4 -9.5 -5t11.5 -1q15 -2 15 6zM412 38q15 21 15 25q0 2 -1 2q-5 0 -18 -10q-22 -16 -50 -31q-33 -18 -33 -27q0 -5 13 -5q17 0 38 13t36 33zM312 56l16 12h-28q-25 -1 -76 -9t-51 -13q0 -4 22.5 -7t46.5 -3q12 0 26 2q32 6 44 18zM366 178
q2 7 4 13.5t2.5 10.5t-0.5 4q-4 0 -34 -14q-45 -24 -129 -40q-34 -6 -34 -13q0 -5 50 -18q35 -8 57 -8q62 0 84 65zM505 255q7 5 7 24q0 1 -0.5 4t-0.5 4q-1 14 -3 13q-1 0 -1 -4q0 -6 -5 -31q-5 -15 0 -13zM457 377q0 37 -7 37q-6 0 -9 -36q-2 -30 -2 -32q0 -11 4 -11
q1 0 6 3q8 4 8 39zM373 514q0 3 -3 3q-4 0 -4 -3q0 -4 4 -4q3 0 3 4zM419 570q11 8 9 9t-7 1q-13 0 -16 -7t-27 -3l-15 1q1 -1 7 -4q13 -7 24 -7q14 0 25 10zM240 651q0 13 19 13q23 0 80 -18q50 -15 77 -15q10 0 15 1q8 1 18 1q17 0 22 -11q7 -14 18 -14q15 0 15 -16
q0 -9 -8 -19q-8 -8 -8 -18q0 -6 3 -15q4 -12 7 -15t13 -3q2 0 7 0.5t8 0.5h8q20 0 20 -6q0 -7 -27 -21q-27 -13 -27 -21q0 -5 9 -13q10 -8 15 -35q6 -28 8 -32q4 -5 6 -28t7 -50q1 -5 1 -16q0 -49 -33 -130.5t-80 -142.5q-33 -43 -56.5 -53.5t-89.5 -12.5h-34q-29 0 -41.5 4
t-38.5 20q-44 27 -77 39q-34 13 -34 19q0 7 18.5 15.5t42.5 12.5q26 4 26 11t-43 27q-41 18 -54 31q-6 8 -5 10.5t12 7.5q17 7 62 11q110 11 166.5 29t90.5 52q18 17 23.5 35.5t10.5 80.5q2 34 2 42q0 27 -9 36.5t-40 18.5q-28 7 -101.5 41.5t-91.5 48.5q-4 3 -4 7
q0 6 14 20l19 21q-7 5 -20.5 16t-20.5 17l18 8q8 4 16 4q9 0 26 -10q25 -15 32 -15q2 0 2 1q0 2 -5 7q-9 9 -9 21z" />
    <glyph glyph-name="K" unicode="K" horiz-adv-x="726" 
d="M354 238q6 4 6 10q0 9 -10 9q-7 0 -11 -6q-3 -5 -3 -8q0 -8 9 -8q5 0 9 3zM484 186q-28 37 -59.5 70t-39.5 33h-1q-5 -4 9 -18q13 -13 13 -40q0 -26 9 -37q8 -11 48.5 -35t50.5 -24h2q4 4 -32 51zM357 324q0 4 -3 4q-8 0 -58 -38q-49 -38 -60 -56q-12 -16 -12 -35
q0 -11 6 -11q8 0 22 17.5t14 27.5q0 11 24 21q15 6 41 33t26 37zM190 370q5 25 5 51v9l-3 28l-4 -28q-5 -25 -5 -60v-32zM238 656q7 8 14 8q12 0 17 -26q4 -20 4 -44q0 -36 -18 -116q-23 -96 -23 -112q0 -10 7 -10q10 0 18 8q6 6 11 6q7 0 7 -9q0 -7 -6 -16q-7 -11 -7 -15
q0 -1 1 -1q8 0 38 31q41 42 131 123.5t122 106.5q41 31 59 31q10 0 10 -11q0 -13 -75 -84q-70 -68 -70 -75q0 -2 2 -2q12 0 121 95q66 57 79 57q6 0 6 -8q0 -9 -55 -66t-125 -122q-86 -77 -86 -83q0 -5 78 -92q160 -178 160 -208q0 -9 -13 -9q-14 0 -37 25q-15 17 -62.5 44
t-59.5 27l-2 -1q-1 -1 -1 -2q0 -5 11 -16.5t26 -20.5q25 -16 56.5 -55.5t31.5 -55.5q0 -21 -17 -21q-37 0 -196 165q-92 96 -106 96h-2q-15 -7 -39 -38q-21 -24 -26 -37.5t-9 -54.5q-6 -71 -9.5 -90t-10.5 -27q-6 -6 -13 -6q-10 0 -10 9q0 4 1 6q3 10 -9 26q-14 18 -17 29
q-4 11 -10 11q-10 0 -10 -26v-5v-6q0 -26 -15.5 -48.5t-35.5 -24.5q-2 0 -5 -0.5t-4 -0.5q-18 0 -18 21q0 10 3 27q7 32 9 95q2 61 52 444q5 56 34 57q9 0 16 37t14 47q5 6 7 6q6 0 10 -13.5t4 -23.5l1 -22l16 28q16 27 25 38z" />
    <glyph glyph-name="L" unicode="L" horiz-adv-x="765" 
d="M592 58q-22 11 -34 11q-9 -1 -9 -2t9 -6q12 -8 12 -17q0 -10 17 -10q21 0 21 8q0 7 -16 16zM134 134q3 5 0 10q-2 2 -3.5 0.5t-1.5 -5.5t1.5 -5.5t3.5 0.5zM320 134q-6 12 -13 15.5t-24 3.5t-23.5 -3t-10.5 -12q-6 -16 1 -25q4 -4 78 -16t96 -12q2 0 4 1h1q1 1 -13 5.5
t-36 10.5q-50 13 -60 32zM172 137q9 9 5 13q-1 1 -2.5 0t-3.5 -3.5t-3 -5.5q-3 -7 -2 -8t6 4zM197 218q3 5 0 10q-2 2 -3.5 0.5t-1.5 -5.5t1.5 -5.5t3.5 0.5zM183 304q2 36 2 43q0 9 -1 9q-13 0 -13 -35q0 -25 -11 -53q-10 -23 -8 -44l2 -18l12 23q13 22 17 75zM190 376
q2 8 0 17q-3 6 -3 -9q0 -11 2 -10zM309 641q15 15 21 15q8 0 8 -25q0 -27 -9 -92q-16 -111 -45 -220q-18 -67 -18 -88q0 -10 21 -5q8 2 20 2q24 0 52.5 -4t28.5 -8q0 -5 -57 -10q-65 -5 -65 -12q0 -6 35 -16q20 -5 117 -36q72 -23 84 -23q11 0 11 11q0 2 -2 16q-6 28 0 28
q8 0 19.5 -13.5t11.5 -24.5t6 -19.5t14 -8.5q3 0 5 1q12 2 26 -6q17 -9 74 -13q61 -5 61 -14q0 -4 -21 -6q-32 -3 -44 -8t-19 -20q-21 -39 -128 -39q-43 0 -100 6q-56 7 -86 7h-3q-1 -1 -1 -2q0 -11 83.5 -22t160.5 -11q28 0 40 1q13 1 32 1q38 0 38 -9q0 -3 -7 -9
q-7 -7 -101 -9q-90 -1 -101 -12q-8 -8 -28 -8q-27 0 -102 15q-57 11 -90 11q-2 0 -5.5 -0.5t-4.5 -0.5q-8 -2 -20.5 -3.5t-17.5 -3t-10.5 -7.5t-7.5 -17q-7 -35 -24 -35q-2 0 -8 2q-9 4 -9 19q0 12 1 21q2 20 2 22q0 13 -14 20q-8 4 -19 4q-14 0 -26 -5q-17 -5 -28 -5
q-6 0 -8 1q-6 3 -6 26q0 59 27 153q19 66 19 92q0 11 -1 17q-1 5 -1 16q0 31 15 91q17 68 17 100q0 27 14 35q14 11 32 64q17 49 28 62t38 13q32 0 32 -22q0 -4 -4 -20q-4 -13 -6 -46q-1 -19 -6 -35t-6 -43l-2 -41l16 47q16 45 25 94t26 64z" />
    <glyph glyph-name="M" unicode="M" horiz-adv-x="764" 
d="M393 41q0 7 -3 7q-4 0 -8 -8q-3 -6 3 -6q8 0 8 7zM358 154q0 16 -7 27q-6 9 -4 -4q0 -4 1 -10q6 -27 8 -27t2 14zM309 220q0 3 -4 3q-3 0 -3 -3q0 -4 3 -4q4 0 4 4zM298 258q-4 25 -10 31q-3 3 -4 3q-3 0 -3 -6q0 -12 11 -32l10 -20zM414 284q0 16 -6 16q-5 0 -10 -15
t-5 -31v-3q1 -7 1.5 -7t5.5 5q2 3 3 5q11 15 11 30zM488 395q15 49 15 68q0 6 -2 6q-5 0 -16 -31q-27 -68 -29 -105q0 -5 7 -1q7 3 25 63zM238 430q0 12 -20.5 57t-25.5 45q-1 0 -1 -3q0 -16 12 -50t22 -47q12 -5 13 -2zM162 606q0 9 11.5 23t20.5 14q7 0 31 -28t35 -50
q9 -19 16 -19q4 0 8 6q5 8 11 8q29 0 75 -193q6 -21 13 -23h1q8 0 37.5 53.5t40.5 88.5q10 36 27 53q15 16 29 47q16 31 28 31q18 0 16 -55q0 -38 6 -38q7 0 7 -7q0 -11 -21 -50q-16 -30 -31.5 -69.5t-15.5 -51.5q0 -3 1 -3q4 0 19.5 33t22.5 55q5 14 26 33q19 16 19 31
q0 9 -3 29q-2 22 -2 26q0 16 9 20q6 3 10 3q6 0 11 -27q3 -19 14 -37l1 -2q7 -10 9 -7q1 1 3 8q1 3 5.5 28t10.5 42t14 17q4 0 8 -4q3 -3 3 -22v-16q0 -18 5 -18t9 21q2 14 16 16h2l2 1q7 0 7 -19q0 -6 -0.5 -14.5t-1.5 -24t-2 -27.5q-6 -72 -6 -276q-1 -145 -7 -196
t-22 -51h-2q-17 3 -25.5 86t-11.5 163.5t-6 80.5h-1q-6 -6 -13 -54.5t-7 -81.5q0 -26 -13 -57t-23 -31h-1q-15 6 -15 52q0 30 6 75q16 104 16 173q0 23 -3 23h-1q-9 -4 -26 -60q-19 -60 -45 -118t-32 -90q-7 -33 -27 -58q-39 -52 -39 -80q0 -18 -12 -45t-20 -28q-7 0 -22 37
q-7 20 -13 27t-14 7h-2h-1q-13 0 -30.5 45.5t-50.5 162.5q-54 194 -84 224q-5 6 -7 6q-3 0 -4 -22v-26q0 -120 8 -147q2 -8 2 -30q0 -56 -8 -150.5t-14 -100.5q-7 -7 -14 -2q-6 4 -17.5 45t-16.5 78q-3 29 -5 29q-1 0 -4 -12q-3 -10 -3 -26q0 -9 1 -13q1 -6 1 -18
q0 -47 -15 -47h-2q-14 5 -18.5 44.5t-4.5 156.5v51v45q0 166 -5 204q-2 30 -2 33q0 14 11 21q37 20 37 46q0 15 14 34t25 19q10 0 15 -21q3 -21 11 -21q5 0 5 12z" />
    <glyph glyph-name="N" unicode="N" horiz-adv-x="679" 
d="M334 95q0 15 -20.5 76.5t-25.5 61.5q-1 0 -1 -3q0 -12 17 -74.5t23 -72.5t7 0v12zM543 234q13 48 13 64q0 5 -1 5q-2 0 -6.5 -14t-9 -36t-6.5 -40q-1 -6 -1 -12v-2q2 0 11 35zM567 360q3 18 3 31q0 8 -1 8q-3 0 -7 -25.5t-4 -39.5q0 -7 1 -7q3 0 8 33zM83 512q5 0 9 15
t4 30t-4 19t-5.5 3t-1.5 -9q0 -13 -4 -37q-5 -21 2 -21zM68 636q8 15 22 15q12 0 21 -12.5t9 -32.5q0 -23 13 -23q4 0 9 5q7 7 24 7t23 18q3 7 7.5 12t7.5 4q7 -2 42.5 -63.5t49.5 -95.5q89 -219 97 -253q6 -22 18 -36q5 -6 8 -6q5 0 16 84q2 19 3 29q2 19 12 99.5t13 107.5
q9 77 14 98.5t13 21.5h3q7 -1 9.5 -14t4.5 -57v-21q0 -57 -5 -94q-19 -121 -38 -211q-11 -57 -11 -66q0 -7 3 -7q1 0 4 3q5 5 19.5 76.5t14.5 88.5q0 13 2 18q3 7 15 69q15 78 73 197q8 20 20 18q7 -1 9.5 -12t4.5 -46q1 -54 14 -68q8 -8 8 -15q0 -9 -8 -30
q-22 -64 -44.5 -178.5t-30.5 -205.5q-9 -94 -13.5 -123t-13.5 -29q-5 0 -9 4q-6 6 -6 38q0 46 10 176q1 12 1 28q0 12 -1 12l-2 -5q-5 -19 -7 -49q0 -30 -14 -84q-11 -38 -11 -57q0 -14 4 -27q5 -20 5 -26q0 -8 -5 -13q-3 -3 -7 -3q-8 0 -14.5 13.5t-6.5 22.5q0 14 -9.5 31
t-16.5 17h-1q-7 -2 -22 19q-15 20 -25 20q-9 0 -16 -10q-9 -10 -19 -10q-30 0 -54 68q-33 85 -52 166q-10 44 -29.5 101t-25.5 59h-2q-7 0 -11 -28.5t-10 -125.5q-4 -64 -4 -104q0 -32 4 -44q4 -11 4 -31q0 -34 -9.5 -68.5t-21.5 -34.5q-14 0 -19.5 38.5t-7.5 163.5
q-3 135 -6 135q-2 0 -3 -24q-5 -55 -5 -160q-1 -76 -3.5 -91t-16.5 -29q-17 -17 -23 -17q-11 0 -14 45.5t-4 197.5q0 17 -0.5 48.5t-0.5 45.5q0 282 24 320z" />
    <glyph glyph-name="O" unicode="O" horiz-adv-x="623" 
d="M395 8q0 4 -4 4q-8 0 -24 -14l-17 -15l23 11q22 11 22 14zM409 15q0 4 -3 4q-4 0 -4 -4q0 -3 4 -3q3 0 3 3zM342 82q-4 6 -31 6q-26 0 -26 -9q0 -15 22 -17h6q12 0 21 5t9 11q0 3 -1 4zM381 102q0 7 -3 7q-4 0 -7 -8q-2 -6 3 -6q7 0 7 7zM94 219q2 8 0 17q-3 6 -3 -9
q0 -11 2 -10zM481 298q1 6 1 18q0 24 -4 26h-1q-5 0 -5 -38q0 -36 -5 -54l-1 -7q1 1 4 5q8 16 11 50zM320 399q-19 30 -28 30q-8 0 -15.5 -19.5t-20.5 -71.5q-14 -58 -14 -101q0 -45 14 -73q15 -28 23 -30q57 -15 73 -15q15 0 22 7q13 11 20 11q10 0 26.5 78t16.5 124
q0 24 -4 30.5t-24 17.5t-31 11h-1q-1 -1 -2 -1q-4 -2 -4 -19q0 -8 1 -12q1 -5 1 -15q0 -17 -6 -23q-6 -7 -10 -7q-7 0 -13 25q-3 21 -24 53zM430 437q0 11 -17 18.5t-35 7.5q-17 0 -21 -7q-2 -2 -0.5 -4.5t5.5 -2.5q12 0 34 -17q18 -12 26 -12t8 17zM117 404q18 59 18 70
q0 2 -1 2q-7 0 -22.5 -37.5t-15.5 -54.5q0 -15 -10 -25q-8 -8 -8 -28q0 -4 2 -32q4 -36 7 -36q1 0 3 6q4 13 6 42t21 93zM498 473q0 12 -7 22t-17 10q-8 0 7 -26q11 -20 14 -20t3 14zM360 523q-11 0 -19 -2q-9 -1 -15 -7.5t-6 -13.5q0 -6 4 -10q3 -3 9 -3q13 0 30 9t17 16
q0 11 -20 11zM249 546q24 21 24 27q0 1 -2 1q-6 0 -26 -13q-14 -9 -31 -27.5t-17 -23.5q0 -1 2 -1q3 0 6 2q12 7 44 35zM418 604q4 2 -3 3l-9 1q-12 0 -12 -2q0 -1 3 -2q11 -2 21 0zM249 638q6 2 25 2q16 0 24 -1q32 -4 39 -4q11 0 48 5q12 2 19 2q21 0 36 -6
q17 -6 27.5 -17.5t33.5 -51.5q32 -56 41 -62q8 -6 22 -44t19 -69q3 -20 3 -41q0 -70 -39 -170q-35 -90 -71 -141t-82 -74q-36 -17 -68 -17q-54 0 -100 39q-21 17 -32 17q-13 0 -30 21q-63 82 -87 128q-16 31 -21 51.5t-9 66.5q-2 40 -2 48q0 32 17 84q33 100 95 170
q44 48 92 64z" />
    <glyph glyph-name="P" unicode="P" horiz-adv-x="631" 
d="M380 194q0 7 -11 5q-12 -1 -57 -10.5t-54 -13.5q-9 -5 -9 -9q0 -8 15 -8t65.5 15.5t50.5 20.5zM285 258q-36 10 -49 10q-10 0 -12.5 -5.5t-2.5 -20.5v-28l40 3q43 4 79 11.5t36 12.5q0 7 -27 7t-64 10zM334 424q-67 8 -70 9l-27 4l-4 -33q-5 -30 -5 -63q0 -20 3 -26
t16 -8q3 -1 23 -6.5t31 -8.5q34 -10 93 -10q40 0 57 6q11 5 16 12.5t8 27.5q2 14 2 22q0 14 -4 22q-7 13 -55 30.5t-84 21.5zM531 456q-4 24 -15 35q-8 8 -9 3q-1 -3 -1 -14q0 -23 15 -35l14 -13zM274 533q-17 14 -22 14q-2 0 -2 -5q0 -21 19 -54q8 -14 17 -18.5t36 -6.5
q42 -6 65 -11q20 -3 21 1q0 1 -1 3q-3 10 -47 36.5t-56 26.5t-30 14zM373 572q-18 9 -39 9q-19 0 -19 -6q0 -5 34 -19.5t48 -15.5q8 0 9 2t-5 9q-7 8 -28 21zM260 669q34 8 37 8q5 0 17 -9q13 -10 39 -10q27 0 31 -7q5 -7 21 -7t21 -7q4 -6 37 -24q26 -13 50.5 -37.5
t30.5 -42.5q4 -14 10 -14q7 0 20.5 -33.5t13.5 -51.5v-8q0 -17 4 -45q2 -12 2 -18q0 -20 -16 -72q-18 -60 -29 -71q-9 -9 -21 -35q-8 -16 -16 -20.5t-34 -7.5q-40 -4 -63 -18q-62 -38 -160 -38h-23q-33 0 -39.5 -10.5t-6.5 -60.5v-6q0 -45 -13 -75t-31 -30q-10 0 -19 9
q-13 13 -13 30q0 28 -19 28q-6 0 -9 -2q-13 -6 -25 3q-12 8 -12 65q0 39 3 134q2 94 15 108q8 9 10 28.5t2 79.5q0 94 4 106q4 11 35 11q21 0 28.5 4.5t19.5 23.5q18 29 34 34q16 7 16 27v7v6q0 22 9 31t39 17z" />
    <glyph glyph-name="Q" unicode="Q" horiz-adv-x="744" 
d="M527 14q3 5 0 10q-2 2 -3.5 0.5t-1.5 -5.5t1.5 -5.5t3.5 0.5zM424 25q17 17 17 19t-5 2h-6q-18 0 -56 -14q-28 -9 -40 -9q-8 0 -14 3q-8 4 -14 4t-6 -4t5 -9q9 -9 53 -11q10 -1 24 -1q15 0 22 3.5t20 16.5zM420 121q-3 14 -9 14t-23 -14q-14 -12 -14 -18q0 -8 24 -8
t24 13q0 8 -2 13zM102 363q0 52 -5 52q-6 0 -6 -57q0 -52 4 -52h1q6 6 6 57zM514 388q-10 30 -15 30t-5 -28q0 -35 10 -48q4 -6 6 -7.5t3.5 1t3.5 11.5q1 3 1 12q0 17 -4 29zM112 443q0 6 -7 6t-7 -11t8 -4q5 4 6 9zM439 346q5 12 5 24q0 37 -28 91t-52 79l-33 35l-21 -13
q-30 -18 -62 -66t-32 -74q0 -13 -6 -17q-5 -3 -10.5 -48.5t-5.5 -81.5q0 -4 0.5 -9.5t0.5 -7.5q2 -32 16 -60t31 -35q20 -10 41 -24q21 -15 34 -15q17 0 35 25q17 23 30 34q5 4 5 23q0 39 -12 46q-6 4 -6 42v37h31q32 0 39 15zM211 606q-3 3 -8 3q-6 -1 -21.5 -40t-17.5 -62
l-5 -33l19 38q34 68 34 90q0 3 -1 4zM183 667q15 7 43 7t60 -7q16 -5 30 -3h1q19 0 85.5 -38t88.5 -61q59 -63 59 -80q0 -8 25 -60q25 -53 29 -109q0 -4 0.5 -12.5t0.5 -12.5q0 -35 -7 -56q-5 -17 -5 -27q0 -8 7 -41q26 -100 37 -164q3 -11 24.5 -29t31.5 -18q11 0 11 -13
q0 -22 -19 -30q-10 -5 -16 -5q-8 0 -23 9q-17 10 -39 10q-13 0 -22 -1q-22 -2 -26 -2q-17 0 -41 20q-44 38 -53 38q-3 0 -7 -3q-17 -11 -52 -22q-33 -12 -61 -12q-30 0 -63 15q-18 10 -39 14q-21 5 -45 27t-37 49q-14 31 -21 35q-6 4 -11 32q-4 22 -19.5 55t-29.5 49
q-8 8 -24 52q-12 31 -12 58q0 8 2 38q8 94 61 202q39 79 76 96z" />
    <glyph glyph-name="R" unicode="R" horiz-adv-x="741" 
d="M516 -34q-8 17 -9 5q0 -7 7 -11q3 -1 3.5 0t-1.5 6zM159 7q12 29 12 39q0 6 -3 9q-7 7 -11 -10l-2 -10q-5 -27 -11 -31t-4 -21q0 -7 2 -7q4 0 17 31zM437 117q-10 16 -18 13q-3 -1 -3 -6q0 -6 11 -15q10 -8 10 -17t11 -18q7 -6 8 -4q0 1 -5 14q-2 6 -7.5 18t-6.5 15z
M208 176q0 9 -10 9t-14 -39q-2 -22 -2 -28q0 -17 3 -17q2 0 5 9q1 3 9.5 30.5t8.5 35.5zM284 231q0 9 -8 -1l-3 -4q-5 -8 3 -3t8 8zM389 293q8 10 6 10l-1 -1q-1 0 -3 -0.5t-4 -0.5t-4.5 -0.5t-4.5 -1.5q-21 -5 -21 -12q0 -4 9 -4q15 0 23 10zM512 326q16 18 8 19
q-8 0 -20 -11t-12 -18q0 -2 1 -3q4 -6 23 13zM569 395q0 6 -6 6q-7 0 -10.5 -7t1.5 -10t10 0.5t5 10.5zM521 456q0 35 -5 35q-4 0 -16.5 -33.5t-12.5 -44.5l1 -3q6 -3 18 5q15 7 15 41zM580 458q4 4 -7 27l-11 23l4 -23q4 -29 10 -29zM619 507q-22 20 -22 8q0 -6 12 -22
t16 -16q6 0 6 7q0 13 -12 23zM269 431q4 39 4 83q0 20 -1 26l-6 31l-7 -24q-6 -16 -10.5 -66.5t-4.5 -87.5q0 -19 2 -27q5 -13 7 -13q7 0 16 78zM410 574q-23 7 -66 7h-42v-57q0 -40 -7 -119l-5 -62l36 4q39 6 81 25q30 14 38 22t13 29q2 10 11.5 43.5t9.5 50.5
q0 13 -21.5 30.5t-47.5 26.5zM227 645q35 17 57 17q10 0 16 -1q139 -15 222 -71q27 -19 75 -39q42 -17 55.5 -30t13.5 -34q0 -23 -25 -43q-18 -14 -29.5 -30.5t-11.5 -27.5q0 -5 3 -8q7 -7 41 -7q25 0 42 5q15 5 15 -4q0 -15 -15 -21t-56 -6t-52 -3.5t-35 -24.5
q-38 -31 -52 -40q-19 -10 -19 -16q0 -4 46.5 -83.5t54.5 -89.5q12 -13 23 -38.5t11 -37.5q0 -7 -5 -11t-10 -4q-16 0 -26 24q-13 31 -22 31q-1 0 -1 -3l2 -10q4 -11 7.5 -45t6.5 -45q1 -3 1 -8q0 -11 -7 -22q-7 -10 -14 -10q-3 0 -16 5q-37 15 -105 129q-25 42 -63 97
l-32 49l-32 -2q-31 -1 -42.5 -16.5t-16.5 -60.5q-4 -47 -21 -64q-17 -15 -21 -41q-4 -24 -18 -46t-27 -27q-2 -1 -7 -1q-12 0 -22 9q-12 10 -12 37q0 31 18 111q13 61 13 169q0 111 -14 111q-1 0 -4 -3q-3 -5 -3 -18q0 -9 1 -13q0 -1 0.5 -4t0.5 -5q0 -23 -8 -50
q-11 -37 -18 -135q-8 -100 -13 -126.5t-18 -26.5q-14 0 -13 14q2 18 10.5 101t17 174t9.5 100q7 65 7 99q0 55 -11 69q-8 11 -10 50q0 25 2.5 30.5t13.5 5.5q14 0 23.5 -8.5t9.5 -22.5v-3l1 -7q1 1 6 7q1 2 2 3q9 13 20 9t12 -111q2 -114 6 -134q3 -17 5 -17t9 46
q9 60 21 93q12 35 18 71q3 15 3 22t-3.5 8.5t-13.5 1.5q-17 0 -17 11q0 1 0.5 4t0.5 5q1 11 8.5 18t30.5 19z" />
    <glyph glyph-name="S" unicode="S" horiz-adv-x="607" 
d="M375 14q6 3 -12 3l-11 -2l3 -1q11 -2 20 0zM397 55q6 4 8 6.5t0.5 4t-6.5 3.5q-11 4 -27 -9q-15 -13 -1 -14q13 0 26 9zM118 55q-20 18 -26 18q-3 0 -3 -5q0 -8 15.5 -25t22.5 -17q10 0 10 5q0 6 -19 24zM455 124q-2 32 -13 32q-6 0 -10 -16q-2 -8 -2 -12q0 -26 19 -32h2
q4 0 4 16v12zM407 180q-1 13 -30 24l-27 9l23 -24q23 -24 30 -24q5 0 5 8q0 1 -0.5 3.5t-0.5 3.5zM328 192q-32 21 -34 21q-6 0 13 -26q14 -21 37 -41.5t33 -20.5q1 0 3 1t2 5q0 9 -16 27.5t-38 33.5zM360 267q-65 52 -82 52q-4 0 -6 -3v-1q-1 -1 -1 -2q0 -11 27 -32.5
t60 -36.5q32 -15 40 -15h1q2 4 -39 38zM307 397q-33 10 -40 10q-12 0 -12 -24q0 -16 7 -23.5t37 -24.5q42 -25 81 -56q38 -31 43 -31q4 0 9 22q1 4 1 12q0 34 -35 66.5t-91 48.5zM195 462q-3 14 -9 14q-7 0 -14 -19q-6 -15 -6 -32q0 -28 13 -28q7 0 12.5 15.5t5.5 33.5
q0 6 -2 16zM374 525q24 11 24 13q0 1 -1 1q-7 0 -34.5 -10t-27.5 -14q0 -1 1 -1h2q12 0 36 11zM415 543q0 4 -3 4q-4 0 -4 -4q0 -3 4 -3q3 0 3 3zM510 619q-17 17 -45 17q-33 0 -89 -22q-40 -17 -80.5 -38.5t-40.5 -26.5q0 -1 3 -1q14 0 67 22q61 27 137 27q10 0 22 -2
q9 -2 22 -2q16 0 16 7t-12 19zM400 651q46 13 61 13q11 0 32 -6t48 -33t27 -43q0 -24 -42 -25q-28 -2 -69 -22q-43 -21 -99 -40q-89 -31 -89 -53q0 -5 29.5 -15t70.5 -30.5t63 -49.5q17 -23 21 -35t4 -47q0 -38 3 -46t21 -19q17 -10 23.5 -19t6.5 -24q0 -5 -4 -37
q-4 -20 -4 -33q0 -14 11 -25q9 -11 9 -17q0 -5 -3 -11q-16 -31 -93.5 -64.5t-142.5 -38.5q-4 0 -12 -0.5t-11 -0.5q-33 0 -92 20q-54 18 -73 34.5t-35 58.5q-14 36 -14 73q0 35 14 49q10 10 19 10q13 0 18 -17q2 -12 33 -29q18 -10 26.5 -19.5t14.5 -28.5q7 -23 13 -27
t31 -6q8 -1 18 -1q9 0 11.5 3t2.5 13q0 18 10 18q9 0 17 -17t16 -17q11 0 38 24l27 24l-22 21q-26 23 -48.5 55t-30.5 54q-7 26 -31 54q-20 25 -40 59q-21 35 -32 45q-15 14 -15 48q0 38 16 64t60 61q83 66 187 95z" />
    <glyph glyph-name="T" unicode="T" horiz-adv-x="797" 
d="M318 127q9 81 9 124v8l-2 41l-9 -59q-16 -106 -16 -194q0 -14 2 -14q4 0 16 94zM323 460q-36 16 -69 16q-7 0 -7 -2q0 -1 1 -2q8 -8 31.5 -15t41.5 -7h3l21 1zM393 484q5 0 10 3.5t5 6.5q0 4 -10 4q-14 0 -14 -7t9 -7zM337 504q-22 12 -65 12q-16 0 -16 -4q0 -5 31 -12
t50 -7q10 0 10 3q0 2 -10 8zM436 542q-39 11 -56 11q-8 0 -8 -3q0 -1 2 -3q7 -7 51 -11l46 -3zM80 653q29 3 44 3q18 0 63 -6q66 -9 492 -101q78 -16 78 -37q0 -4 -5 -8q-8 -4 -23 -4q-7 0 -10 1q-12 2 -14 2q-9 0 -9 -12q0 -14 -27 -14q-21 0 -98 11q-67 10 -99 10h-26
q3 -7 10.5 -21t11.5 -21h69q74 0 74 -13q0 -5 -8 -13q-11 -11 -75 -19l-64 -7l2 -180v-75q0 -109 -5 -146t-20 -39h-3q-14 0 -18.5 24.5t-4.5 100.5q0 70 1 119q2 104 2 121q0 68 -5 68h-1q-10 -10 -17 -74t-7 -138q0 -53 5 -103q2 -26 2 -31q0 -15 -4 -15q-5 0 -22 33
q-11 21 -16 21q-7 0 -17 -67q-11 -74 -29 -74q-8 0 -17.5 22.5t-12.5 47.5q-1 6 -1 27q0 93 22 251q8 58 8 94v7l-2 26l-75 27q-74 28 -77 37q-3 10 18 22l23 12l-28 4q-49 10 -63 12q-21 3 -27.5 7t-6.5 12q0 16 27 16q17 0 62 -8q29 -6 45 -6q8 0 8 2q0 7 -32.5 21.5
t-69.5 23.5q-47 11 -56 18q-5 5 -5 9q0 7 9 13t24 7z" />
    <glyph glyph-name="U" unicode="U" horiz-adv-x="738" 
d="M412 -34q4 2 -2 3l-11 1q-11 0 -11 -2l3 -2q11 -2 21 0zM339 2q0 4 -3 4q-4 0 -4 -4q0 -3 4 -3q3 0 3 3zM286 9q-9 3 -19 3q-11 0 -33 -5l-17 -5l17 -5q20 -5 36 -5q28 0 28 8q0 4 -12 9zM528 65q7 8 7 12q0 2 -2 2q-5 0 -35 -19q-20 -13 -32 -16.5t-36 -3.5h-20h-53
l21 -16q22 -18 34 -18t59 24t57 35zM246 75q-7 11 -24 11q-6 0 -6 -4q0 -10 18 -12q12 0 12 5zM183 119q-7 20 -22 40l-18 25v-32q0 -30 15 -47q11 -11 18 -11q8 0 8 14q0 7 -1 11zM239 147q-6 25 -15 34q-7 7 -9 5t-2 -15q0 -17 7.5 -31.5t15.5 -14.5t3 22zM591 266
q3 24 3 48q0 17 -2 31l-4 26l-33 -65q-33 -66 -44 -103q-12 -37 -46 -74q-35 -39 -35 -41t3 -2q11 0 41 12t43 22q29 23 49 62t25 84zM202 210q1 4 1 14q0 24 -20 90q-21 62 -24 62q-2 0 -5 -9q-3 -12 -3 -30q0 -44 13 -96.5t26 -57.5q2 0 4.5 3t4 9t3.5 15zM591 505
q0 58 -10 58q-3 0 -6 -12q-5 -26 -14 -94t-9 -82q1 -9 21 41q18 44 18 89zM603 700q20 20 24 20q3 0 3 -18q0 -13 -1 -20q-2 -20 -2 -24q0 -18 10 -25t10 -20q0 -1 -0.5 -4t-0.5 -5q-1 -4 -1 -17q0 -51 19 -137l9 -42l6 35q2 16 2 28q0 26 -5 59q-7 48 -7 62q0 7 2 7t3 -1
q5 -3 13 -39.5t13 -76.5q1 -6 1 -21q0 -82 -38.5 -226.5t-77.5 -205.5q-29 -44 -50 -57q-31 -19 -55 -36q-40 -26 -66 -26q-18 0 -41 12q-34 17 -94 18q-57 2 -91 15t-63 45q-23 27 -32 27q-16 1 -23.5 13.5t-11.5 47.5q-3 44 -10 68q-4 18 2 18q1 0 5 -2q2 -1 5 -1
q7 0 10.5 20t7.5 82q2 52 2 57q0 26 -9 26q-11 0 -11 13t10 22q10 7 10 25q0 20 -14 42q-13 19 -13 47q0 23 11 84q12 61 21 61q7 0 10.5 -9t8.5 -37l1 -2q3 0 11 34q6 28 11 37.5t15 10.5q1 0 3 0.5t3 0.5q8 0 8 -9q0 -11 -13 -46q-13 -33 -13 -80v-11v-53l16 45
q25 72 54.5 113t53.5 41q16 0 26 -15q7 -10 7 -14t-15 -18l-19 -15l19 -7q18 -8 18 -22q0 -8 -4.5 -11t-19.5 -3q-23 0 -32 -13q-6 -12 -6 -19q0 -10 13 -10t13 -4q0 -7 -14 -29q-15 -25 -15 -76v-31q1 -166 77 -264q17 -23 38 -23q37 0 105 84q20 25 28 33.5t19.5 32
t14.5 32.5t11.5 51t12.5 69t15 104q11 74 24 87q14 14 14 46q0 31 19 50z" />
    <glyph glyph-name="V" unicode="V" horiz-adv-x="701" 
d="M387 204q3 5 0 10q-2 2 -3.5 0.5t-1.5 -5.5t1.5 -5.5t3.5 0.5zM333 67q0 37 33 169q2 16 2 17q0 4 -1 4q-4 0 -19 -33q-30 -70 -30 -139q0 -29 8 -33q4 -3 6 6zM404 246q5 8 5 20q0 11 -4 11q-1 0 -3 -2q-6 -5 -6 -23q1 -12 2 -13t4 3zM424 332q12 36 12 51q0 5 -2 5
q-3 0 -9 -14q-9 -20 -11 -52l-4 -32zM192 407q-15 26 -16 26q-2 0 -2 -7q0 -33 20 -108q9 -36 36 -159q24 -111 28 -111q3 0 3 13q0 46 -26 179t-43 167zM144 409q-29 118 -32 121v-2q-1 -1 -1.5 -4t-1 -7t-0.5 -9.5v-11.5q0 -26 27 -122t34 -96q1 0 1 3q0 8 -27 128z
M88 608q0 14 -7 14t-7 -14t7 -14t7 14zM144 631q0 5 -7 5q-6 0 -6 -6q0 -9 10 -63q11 -51 17 -51h1q2 2 2 10q0 20 -7 48q-10 48 -10 57zM110 664q12 21 23 21q19 0 40 -77q7 -28 40 -119q30 -81 53 -176q27 -104 32 -104q6 0 24 44q10 24 103 214l83 169h28q27 0 27 -12
t-21 -42q-22 -30 -27 -78q-5 -45 -21 -80q-14 -31 -14 -38q0 -2 2 -2q8 0 33 48q45 81 85.5 137.5t53.5 56.5h1l1 -1q6 -3 6 -12q0 -16 -17 -41q-18 -26 -16 -49q0 -25 -75 -139q-62 -94 -95.5 -160.5t-76.5 -179.5q-27 -70 -37.5 -92.5t-18.5 -22.5q-7 0 -20 21l-13 21
l-18 -15q-18 -13 -25 -13q-11 0 -19.5 18.5t-21.5 68.5q-27 96 -47 154q-48 137 -82 270t-34 181q0 19 7 31t16 12q11 0 20 -18l8 -17z" />
    <glyph glyph-name="W" unicode="W" horiz-adv-x="862" 
d="M248 96q2 8 0 17q-3 0 -4 -9q0 -9 2 -10zM629 80q11 46 11 57q0 4 -1 4q-4 0 -14 -36t-10 -53q0 -7 2 -7q3 0 12 35zM241 131q2 8 0 17q-3 0 -4 -9q0 -9 2 -10zM647 155q3 5 0 10q-2 1 -3.5 0t-1.5 -5t1.5 -5t3.5 0zM318 169q3 5 0 10q-2 1 -3.5 0t-1.5 -5t1.5 -5t3.5 0z
M537 156q-29 57 -40 57q-2 0 -2 -3q0 -10 22.5 -61.5t27.5 -51.5q6 0 6 12q0 19 -14 47zM265 183q5 7 5 20q0 11 -4 11q-1 0 -3 -2q-6 -6 -6 -23q1 -12 2 -13t4 3zM227 218q3 5 0 10q-2 2 -3.5 0.5t-1.5 -5.5t1.5 -5.5t3.5 0.5zM220 243q3 8 -1 13q-2 2 -3 -2v-7q0 -6 1 -7
t2 1q1 1 1 2zM625 203q13 45 13 59q0 4 -6 -6q-7 -11 -19 -36q-18 -40 -18 -56q0 -6 1 -8q3 -14 6 -14q5 0 23 61zM610 296q9 43 9 50l-21 -64q-12 -39 -12 -46q0 -6 2 -6q6 0 22 66zM626 358q3 5 0 10q-2 2 -3.5 0.5t-1.5 -5.5t1.5 -5.5t3.5 0.5zM628 388q0 3 -4 3
q-3 0 -3 -3q0 -4 3 -4q4 0 4 4zM454 376q-22 43 -29 43t-7 -34t17 -34q4 0 6 1q12 5 19 -10q7 -9 11 -11q0 8 -17 45zM647 453q3 8 -1 13q-2 2 -3 -2v-7q0 -6 1 -7t2 1q1 1 1 2zM177 364q-19 92 -25 108q-4 13 -5 13t-1 -2q0 -1 2 -19q5 -33 23 -111t22 -78q1 0 -1 12
t-6 33.5t-9 43.5zM145 506q0 4 -4 4q-3 0 -3 -4q0 -3 3 -3q4 0 4 3zM666 533h1q3 0 6 11.5t3 20.5q0 4 -1 5l-1 1q-2 0 -6 -13t-4 -20q0 -3 2 -5zM684 590q0 4 -4 4q-3 0 -3 -4q0 -3 3 -3q4 0 4 3zM692 677q8 9 15 2q4 -4 4 -18q0 -54 -41 -193q-28 -94 -28 -120q0 -4 1 -4
q4 0 17 30q18 37 30 80q13 40 24 41q1 0 3 1h2q6 0 6 -9q0 -15 -27 -93q-25 -77 -25 -85q0 -4 9 13q8 15 19 38q27 58 35 66q11 11 29 70q35 112 52 112q6 0 6 -7q0 -11 -52 -168q-53 -160 -55 -182q-2 -21 -21 -87q-18 -61 -18 -70q0 -7 -26 -76.5t-33 -80.5q-3 -5 -7 -5
q-13 0 -29 36q-9 23 -51 69q-42 45 -69 100t-49 142l-6 25l-26 -61q-26 -63 -26 -79q0 -18 -7 -22q-10 -7 -32 -52q-24 -48 -24 -83q0 -22 11 -44q9 -20 9 -32q0 -9 -4 -9q-6 0 -38 32q-41 41 -42 58l-2 7q-1 0 -5 -19q-7 -26 -14 -25q-24 14 -52 156q-41 207 -88 366
q-22 78 -22 102q0 16 9 16q5 0 10 -29q5 -30 29 -114q23 -82 60 -246q37 -162 38 -163h1q2 0 2 11q0 32 -11 101q-21 141 -74 352q-10 36 -10 51q0 8 3 11q8 8 8 27q0 20 10 20q11 0 11 -10q0 -9 17 -30q17 -19 52 -174q36 -153 36 -166q0 -11 3 -11q7 0 49 73q42 75 76 116
q33 40 33 55q0 11 20.5 37t29.5 26q5 0 5 -15q0 -5 -2 -23q-2 -16 -2 -20q0 -16 9 -39t42 -95q53 -116 60 -116q5 0 26 66t25 92q3 25 39 146t43 129z" />
    <glyph glyph-name="X" unicode="X" horiz-adv-x="683" 
d="M551 80q-7 17 -17 17q-9 0 -9 -5q0 -8 17 -23q14 -12 16 -12q1 0 1 2q0 3 -8 21zM119 100q0 4 -4 4q-3 0 -3 -4q0 -3 3 -3q4 0 4 3zM501 71q5 4 -14 25l-20 18l3 -16q1 -11 9.5 -20t16.5 -9q3 0 5 2zM203 151q0 6 -3 8t-7.5 0t-7.5 -7q-22 -38 -29 -48l-24 -38l35 37
q36 38 36 48zM158 161q12 12 8 17q-2 2 -5.5 -1.5t-6.5 -10.5q0 -1 -1 -3q-5 -8 -5 -9t10 7zM479 195q-11 21 -14 21q-1 -1 -1 -2q0 -2 3 -10q4 -10 12 -23t10 -13q1 0 1 1q0 6 -11 26zM228 350q12 12 8 17q-2 1 -5.5 -2t-6.5 -10q0 -1 -1 -3q-5 -8 -5 -9t10 7zM421 338
q-4 8 -19 28l-11 14l7 -14q6 -12 18 -28l12 -14zM197 413q-19 19 -26 19q-3 0 -3 -3q0 -7 9 -25q17 -32 27 -32q6 0 9 8q1 1 1 4q0 12 -17 29zM168 615q6 13 12 13q7 0 28 -30q23 -32 41 -39q17 -7 40 -22l22 -16l17 24q22 29 48 56.5t31 27.5q6 0 6 -7q0 -16 -24 -55
q-37 -63 -37 -69l1 -1q4 0 40 45t49 45q6 0 6 -11q0 -6 -20 -32q-54 -64 -54 -73l1 -1q0 1 1 1q10 6 30 33q22 30 51 63.5t34 33.5q6 0 6 -11q0 -10 10 -10q11 0 11 -6q0 -11 -86 -130q-19 -28 -19 -37q0 -12 31 -64q34 -57 70 -137q81 -173 91 -173q2 0 2 5q0 14 -8 30
q-11 19 -11 29q0 4 2 4t9 -5q11 -9 28 -47t17 -54t-12 -16q-15 0 -36 25q-17 20 -24 20q-4 0 -7 -3q-10 -8 -23 6q-12 14 -25 14q-6 0 -6 -6q0 -5 11 -21q12 -17 17 -41q2 -7 2 -15t-3 -8q-13 0 -61 71q-35 51 -100.5 118t-86.5 73q-1 0 -2.5 0.5t-2.5 0.5q-8 0 -22 -14
t-45 -54q-59 -76 -107 -127t-59 -51l-2 1q-3 2 -3 6q0 9 16 31q20 27 20 33q0 3 -10 3q-12 0 -8 23l1 15l-1 -1q-3 -9 -8 -9q-8 0 -8 17t45 84q46 66 46 81q0 14 21 48q21 33 21 43q0 9 -29.5 63.5t-55.5 91.5q-21 31 -21 43q0 4 1 5q6 10 19 -2q14 -12 19 -12
q4 0 16.5 -8.5t26.5 -19.5t15 -11l6 -2q1 0 1 1q0 5 -13.5 20.5t-30.5 30.5q-30 24 -30 32q0 6 14 6q15 0 49 -36q29 -31 32 -31v1q-1 4 -22 46q-14 29 -14 42q0 7 3 13z" />
    <glyph glyph-name="Y" unicode="Y" horiz-adv-x="661" 
d="M261 170q2 26 2 67q0 21 -1 21q-11 0 -21 -47.5t-10 -96.5q0 -12 2 -32q4 -37 7 -37q1 0 7 14q8 20 14 111zM216 348q-10 21 -14 13q-1 -1 -1 -4q0 -7 12 -16q7 -6 8 -6q2 0 -5 13zM526 439l2 7q-3 -1 -78 -52.5t-80 -55.5q-5 -5 -5 -39q0 -27 4 -27t77.5 78.5t79.5 88.5
zM229 452q-26 45 -34 45q-1 0 -1 -3q0 -5 16 -34.5t25 -40.5q11 -12 13 -12q1 0 1 1q0 9 -20 44zM563 696q33 25 51 25q7 0 7 -6q0 -3 -19 -31q-20 -29 -20 -60q0 -15 5 -21q4 -4 4 -11q0 -22 -68 -75q-42 -33 -73.5 -65.5t-31.5 -42.5q0 -4 4 -4q10 0 69 41
q50 36 68.5 46.5t29.5 10.5q12 0 12 -7q0 -20 -117 -141l-114 -119l-3 -107v-31q0 -78 3 -88q1 -2 1 -6q0 -13 -14 -36q-10 -15 -15 -19.5t-14 -4.5q-2 0 -20 2q-14 2 -17 2q-15 0 -30 -16q-17 -18 -25 -18q-12 0 -12 38q0 36 -9 83q-6 30 -6 62q0 34 4 82l8 97l-20 31
q-28 51 -60 126q-39 95 -67 120q-28 26 -28 52q0 15 11 24q7 5 10 5q10 0 35 -43t31 -43q3 0 3 6q0 1 -2 13q-6 25 -19 35q-11 8 -11 18q0 16 26 16q18 0 49 -32t61 -82q4 -6 8.5 -14t7 -13t6.5 -11l6 -9t4.5 -7t4.5 -6l4 -4t4 -2.5t4 -0.5q3 0 6.5 1.5t8.5 5.5t9.5 8
t13 12.5t15.5 14.5q57 52 84 93q28 44 47 62.5t37 18.5q20 0 53 25z" />
    <glyph glyph-name="Z" unicode="Z" horiz-adv-x="741" 
d="M186 -13q8 -3 13 1q2 2 -2 3h-7q-6 0 -7 -1t1 -2q1 -1 2 -1zM302 10q-26 0 -30 -3q-2 -1 -2 -3q0 -10 54 -10q12 0 32 2q33 5 33 6q0 3 -31 5.5t-56 2.5zM149 2l26 18h-28q-44 0 -44 -26q0 -9 9 -9q11 0 37 17zM444 64q3 5 -5 5t-5 -5q5 -3 10 0zM417 58q-2 2 -102 6
q-62 2 -67 2q-32 0 -36 -9q-2 -4 -2.5 -8.5t0.5 -4.5h4q16 0 40 4q38 7 104 7h19.5t16.5 0.5t12.5 1t7.5 1.5h3zM187 70q0 6 -6 6q-13 0 -25 -14q-14 -14 0 -14q11 0 21 7.5t10 14.5zM554 97q10 5 -1 6h-14h-6q-24 0 -24 -6t15 -6t30 6zM237 180q8 8 5 8q-5 0 -24 -21
q-15 -15 -15 -18t11 -3q15 0 15 13t8 21zM208 218q8 14 14 26.5t9 20t2 7.5q-7 0 -39.5 -55.5t-32.5 -66.5q0 -2 2 -2q8 0 45 70zM439 326q0 2 -1 2q-2 0 -28 -26l-24 -26l27 23q26 24 26 27zM408 393q7 15 7 22q0 3 -2 3q-8 0 -43 -50q-44 -65 -70 -96q-36 -43 -36 -50
q0 -5 4 -5q10 0 51 45q62 66 89 131zM376 421q15 26 11 26t-18 -21.5t-24 -41.5l-12 -24l14 17q17 21 29 44zM312 491q8 -3 13 1q2 2 -2 3h-7q-6 0 -7 -1t1 -2q1 -1 2 -1zM467 500q0 3 -7 3t-7 -8q0 -10 11 1zM369 506q0 4 -3 4q-4 0 -4 -4q0 -3 4 -3q3 0 3 3zM282 504
q-4 11 -48 11h-8q-23 0 -23 -3q0 -4 50 -12q17 -3 23 -3q7 0 7 4q0 1 -1 3zM407 546q-3 6 -12 6t-18 -6q-9 -5 2 -10q6 -2 11 -2q18 0 18 9q0 2 -1 3zM575 562q-11 5 -14 4t-3 -10q0 -11 10 -11q14 0 14 9q1 5 -7 8zM495 579q-31 5 -59 12q-8 1 4 -6q5 -3 13 -8
q28 -14 43 -14q4 0 16 2l28 5zM147 638q0 3 -9 4q-9 0 -10 -2l2 -2q8 -2 17 0zM47 658q0 13 28 13q29 0 129 -17q91 -17 154 -25q50 -7 139 -27.5t104 -28.5q13 -7 13 -18q0 -19 -35 -31q-31 -10 -40.5 -16.5t-14.5 -20.5q-10 -20 -40 -60q-28 -37 -28 -46q0 -1 1 -1
q5 0 30 28q29 33 39 33q5 0 5 -5q0 -18 -36 -74q-54 -82 -137 -136q-35 -23 -56.5 -46t-21.5 -37t17.5 -19t72.5 -5q46 0 132 3q78 3 112 3q53 0 69 -13l18 -13l-18 -10q-14 -9 -54 -17.5t-65 -8.5q-9 0 -12 1t-11 1q-18 0 -43.5 -5.5t-36.5 -11.5q-10 -6 -2 -17
q9 -11 45 -11q24 0 54 7q12 3 20 3t11 -3q4 -4 4 -7q0 -16 -64 -19q-34 -3 -46 -7t-24 -16q-30 -33 -125 -33q-36 0 -71 4q-88 8 -131 8q-32 0 -44.5 4t-12.5 16q0 10 6 25q12 28 12 37q0 8 -14 16q-17 9 -17 18t21 23l23 15h-22q-28 0 -28 10q0 5 5 7q10 5 36 10
q20 4 28 11t23 35q20 38 65.5 105.5t83.5 115.5q38 47 38 60q0 3 -3 3q-4 0 -105 18.5t-117 22.5q-28 6 -28 18q0 11 24 11q15 0 20 2.5t5 10.5q0 18 16 18q6 0 43 -7q81 -15 100 -15q12 0 34 5q23 6 23 11q0 7 -98 27q-114 23 -158 38t-44 30z" />
    <glyph glyph-name="a" unicode="a" horiz-adv-x="689" 
d="M495 157q0 17 -6 17q-4 0 -4 -16q0 -47 11 -58q6 -6 4 7q0 4 -1 10q-4 26 -4 40zM208 200q0 2 -10 2t-24.5 -22t-14.5 -36q0 -11 5 -11q9 0 28 34q16 30 16 33zM164 281q3 5 0 10q-2 1 -3.5 0t-1.5 -5t1.5 -5t3.5 0zM238 273q11 26 11 36q0 7 -4 7q-7 0 -19 -16t-13 -30
v-5q0 -15 6 -15q8 0 19 23zM467 304q0 14 -7 24q-4 6 -5.5 5.5t-1.5 -9.5q0 -14 7 -24q4 -6 5.5 -5.5t1.5 9.5zM540 196q-28 146 -42 146q-3 0 -6 -8q-6 -11 2 -26q8 -16 8 -32q0 -17 10 -27q8 -10 8 -27q0 -11 -1 -17t-1 -19q0 -24 16 -72q22 -66 29 -66q2 0 2 8
q0 3 -25 140zM424 322q-2 11 -9 14t-35 4h-13q-49 0 -66 -13q-5 -5 -24.5 -41.5t-19.5 -42.5q0 -2 36 -2q137 0 147 7q6 5 -6 18q-10 12 -32 12q-14 0 -74 -10q-14 -2 -15 -2q-7 0 -7 6q0 1 0.5 3.5t0.5 4.5q1 9 8 14t29 11q23 6 47 6q9 0 12 -1q14 -2 15 -2q7 0 7 6
q0 1 -0.5 3.5t-0.5 4.5zM400 398q1 1 1 5q0 12 -10.5 39.5t-14.5 29.5h-1q-6 0 -27 -39.5t-21 -50.5l1 -2q1 -1 5 -1q13 0 38.5 7t28.5 12zM306 443q19 55 19 64q0 4 -28 -47q-39 -75 -40 -86q0 -10 6.5 -11t13.5 9q7 9 29 71zM428 482q-13 60 -21 60q-3 0 -6 -8
q-4 -12 -4 -20q0 -16 15 -64q14 -45 25 -45q10 0 7 13q-7 22 -16 64zM477 459q-4 10 -10.5 27t-11 29t-6.5 19l-10 28l3 -28q3 -26 17 -78q12 -51 24 -51h3q8 0 8 5q0 7 -17 49zM391 577q8 20 3 22q-1 1 -2.5 -1.5t-3.5 -7t-4 -9.5q-4 -12 -4 -19q0 -3 1 -3q3 0 10 18z
M399 717q12 5 16 5q8 0 8 -18q0 -12 -1 -21l-5 -37l15 20q15 18 21 18q5 0 5 -13q0 -10 -1 -17q-2 -12 -2 -19q0 -19 14 -63q19 -53 26 -90q9 -39 18 -60q7 -16 16 -19.5t54 -6.5q62 -4 64 -8q3 -3 3 -5q0 -13 -44 -13q-34 0 -34 -7t17 -7q16 0 30.5 -11t14.5 -22
q0 -3 -1 -4q-4 -11 -18 -11t-18 10q-3 10 -26 10q-15 0 -17.5 -2.5t0.5 -12.5q38 -132 42 -237q5 -126 25 -126q5 0 9 9q6 16 15 -13q4 -15 -6 -28q-7 -9 -10 -9t-17 12q-18 16 -25 47q-7 29 -22 34q-13 5 -28 31l-13 25l-1 -21q0 -15 -7.5 -29.5t-14.5 -14.5q-3 0 -4 1
q-5 5 -23 91q-13 63 -18 75t-18 13q-19 3 -19 8t13 9q14 4 14 11t-52 7h-16l-68 -1l47 -11q47 -11 47 -16q0 -6 -29 -6q-45 0 -89 11q-34 8 -39 8q-9 0 -19 -12q-13 -15 -13 -25q0 -6 -25 -62q-24 -55 -24 -66q0 -10 -25.5 -51t-31.5 -41t-6 12q0 18 13 49q10 20 10 29
q0 8 -9 8q-5 0 -23.5 -39.5t-22.5 -58.5q-5 -21 -17 -21q-7 0 -7 13q0 33 59 180q32 76 32 98t8 30t-10 22q-19 14 -19 26q0 10 11.5 23.5t20.5 13.5q8 0 30 18q14 11 18 20.5t4 28.5q0 22 25.5 108.5t36.5 104.5q7 10 12 -2q3 -7 5.5 -8t8.5 4q10 7 10 17t14 17q6 3 9.5 3
t6 -3t5.5 -11q7 -17 10 -17q5 0 22 41t17 52q0 15 16 23z" />
    <glyph glyph-name="b" unicode="b" horiz-adv-x="710" 
d="M458 14q0 5 -6 5.5t-10 -3.5t-64 -4q-55 -2 -55 -7t40 -9q7 -1 22 -1q28 0 50.5 5.5t22.5 13.5zM577 39q0 16 -9 16q-13 -1 -33.5 -14t-36.5 -31q-35 -41 -109 -41q-43 0 -99 15q-12 3 -28 7.5t-27 7.5t-15 4q-12 3 -15 3l-2 -1q0 -7 71 -31q113 -37 194 -37q38 0 52 10
q16 11 36.5 44t20.5 48zM582 216q-17 33 -23 33t-11.5 -47t-5.5 -97v-30l23 12q19 10 27 20q6 9 6 31q0 46 -16 78zM454 272q-36 6 -80 6q-48 0 -74 -7q-15 -5 -48 -5h-11q-10 1 -23 1q-11 0 -13 -3.5t-3 -15.5q-2 -21 -13 -67q-11 -49 -11 -82q0 -36 12 -40q62 -17 181 -17
q115 0 125 16q23 33 23 123q0 60 -14 74q-10 10 -51 17zM486 300q0 7 -7 7t-7 -7t7 -7t7 7zM577 292q-36 21 -49 21q-7 0 -7 -7q0 -8 30 -20q31 -14 46.5 -31.5t22.5 -47.5q8 -30 16 -30q9 0 9 27q0 47 -68 88zM332 318q0 3 -4 3q-3 0 -3 -3q0 -4 3 -4q4 0 4 4zM449 316
q2 6 -1.5 9t-13.5 3q-24 0 -24 -14q0 -4 4 -8q5 -5 14 -5q18 0 21 15zM153 405q1 5 1 12q0 8 -3 8q-8 0 -15 -25q-13 -52 -13 -169q0 -37 2 -47l6 -34l13 42q14 41 16 96t10 63t8 22q-1 14 -11 1q-5 -6 -7 -8t-3.5 -0.5t-3.5 7.5t-2 16q0 6 2 16zM171 472q0 9 -8 -1
q-2 -2 -3 -4q-2 -4 -2 -4.5t4 1.5q9 5 9 8zM486 478q-6 17 -10 17t-4 -17q0 -16 -16 -60q-10 -29 -10 -39q0 -7 3 -10q5 -5 8 -5q10 0 25 52q7 27 7 44q0 10 -3 18zM412 520q-6 11 -9 11q-3 -1 -36 -68t-41 -87q-2 -8 17 -2q17 5 45 9q15 3 20 8.5t10 24.5q3 14 3 34
q0 43 -9 70zM341 558q-24 7 -47 7q-24 0 -31 -9q-7 -8 -19.5 -72t-12.5 -87q0 -6 1 -7q4 -4 31 -8q5 -1 13 -1q9 0 16.5 8t24.5 36q50 85 50 117q0 9 -26 16zM389 615q-25 18 -64 18q-35 0 -41 -17q-1 -2 -1 -5t5 -3q1 0 31 7q16 4 22 4q10 0 34 -11q21 -11 29 -11q3 0 3 1
q0 4 -18 17zM279 651q25 12 52 12q67 0 109 -61q21 -31 48 -62q17 -21 21.5 -32.5t4.5 -34.5q0 -37 -11 -75q-10 -35 -10 -43q0 -4 45 -23q57 -24 85 -44.5t39 -47.5q11 -25 11 -45q0 -31 -26 -71q-23 -36 -43 -92q-24 -64 -44 -86q-34 -36 -92 -36q-7 0 -23 2
q-45 6 -130.5 28t-115.5 36q-31 15 -60 22q-21 4 -21 18q-2 31 -16 31q-7 0 -12 -14q-5 -13 -23 -12q-13 1 -16 7t-5 30v7q0 38 9 99q31 189 47 261q3 17 3 40q0 14 -1 20q-1 4 -1 13q0 34 14 75.5t27 41.5t20 -14q8 -14 21 -14q18 0 43 25q25 27 51 39z" />
    <glyph glyph-name="c" unicode="c" horiz-adv-x="713" 
d="M293 -29q-3 7 -18 7q-13 0 -10 -7t18 -7q13 0 10 7zM464 0q-20 5 -30 5q-16 0 -30 -9q-7 -5 -8 -7t1.5 -3.5t12.5 -3.5q3 -1 12 -1q16 0 33 5q21 6 21 9q0 2 -12 5zM228 189q-20 41 -26 41q-4 0 -4 -15q1 -44 24.5 -84t60.5 -59q12 -6 16 -6q3 0 3 2q0 6 -27 42
q-31 43 -47 79zM166 250q3 18 3 26q0 7 -3 7t-9 -7q-5 -7 -5 -15q0 -7 3 -18l6 -23zM191 378q12 42 12 53q0 5 -2 5q-3 0 -10 -8q-10 -10 -21 -41t-11 -46q0 -5 1 -6q4 -6 7 -6q9 0 24 49zM217 456q3 5 0 10q-2 2 -3.5 0.5t-1.5 -5.5t1.5 -5.5t3.5 0.5zM363 530q-8 0 -36 -7
q-21 -6 -47 -35.5t-33 -55.5q-8 -27 -14 -30q-7 -4 -7 -15q0 -1 1 -1q9 0 76 62q73 68 73 77q0 5 -13 5zM383 596q-3 3 -10 4q-9 0 -10 -2l2 -2q8 -2 18 0zM411 603q4 -3 8 0q2 3 -4 5q-7 0 -4 -5zM307 607q1 1 3 2q8 5 5 5q-1 0 -7 1h-5q-29 0 -67 -27.5t-38 -48.5
q0 -7 5 -7q13 0 50 33q47 39 54 42zM321 645q16 4 37 4q43 0 99 -19q81 -26 98 -26q9 0 20 3q12 4 24 4q33 0 57 -37q17 -25 17 -35q0 -14 -34 -14q-9 0 -41 2t-42 2q-34 0 -44 -6q-8 -4 -16 -4q-9 0 -22 7q-14 7 -22 7q-6 0 -19 -5q-21 -9 -93.5 -83.5t-85.5 -101.5
q-14 -27 -14 -64q0 -46 19 -81q32 -61 71.5 -98.5t70.5 -37.5q19 0 70 38.5t70 66.5q23 33 36 33q9 0 12 -17q0 -1 0.5 -3t0.5 -3q0 -13 -12.5 -28t-52.5 -51l-47 -44l26 6q28 5 51 5q35 0 45 -9q11 -9 11 -33q0 -16 -7 -32q-6 -11 -20 -11q-3 0 -25 2q-18 2 -24 2
q-21 0 -49 -12q-34 -15 -69 -15q-20 0 -41 7q-9 3 -15 3q-12 0 -30 -13q-26 -17 -48 -17t-42 17q-17 14 -73.5 88.5t-69.5 101.5q-12 22 -12 41q0 16 -21 85q-20 65 -20 101q0 59 60 109q39 33 51 58q40 79 165 107z" />
    <glyph glyph-name="d" unicode="d" horiz-adv-x="666" 
d="M393 -22q13 12 5 14q-11 0 -15 -4q-3 -3 -59 -9l-55 -5l29 -9q18 -6 37 -6q34 0 58 19zM536 257q2 15 0 31q-1 8 -2 -1v-15l2 -18v3zM124 225q2 72 2 86q0 50 -4 50q-3 0 -7 -40q-7 -70 -7 -152q0 -72 5 -72h1q8 8 10 128zM325 495q-53 13 -62 13q-5 0 -7 -2q-1 -1 -1 -5
q0 -9 5.5 -26.5t11.5 -24.5q4 -6 4 -8q0 -8 -14 -8q-4 0 -14 2q-3 1 -7 1q-7 0 -11.5 -11.5t-12.5 -49.5q-34 -159 -37 -260q0 -5 -0.5 -12.5t-0.5 -10.5q0 -25 12 -32q11 -6 50 -6q100 0 150 20q46 18 58.5 27t21.5 29q33 72 33 160q0 98 -40 136q-17 16 -61.5 38t-77.5 30
zM338 539q-8 8 -38 10q-6 1 -14 1t-8 -2q0 -6 39 -12q29 -4 21 3zM307 586q-24 14 -52 14q-36 0 -64.5 -24.5t-37.5 -65.5q-5 -22 -5 -27t2 -5q5 0 20 33q19 38 37 47q5 3 20 10t20 10q13 7 28 7q16 0 43 -9q6 -2 2 2zM139 594q13 0 54 21t54 21q25 0 69 -23.5t82 -56.5
q8 -7 113 -95q67 -55 92.5 -93t25.5 -85q0 -9 -2 -31q-4 -34 -16 -54t-55 -66q-37 -38 -78 -94q-33 -45 -51.5 -63.5t-43.5 -28.5q-24 -10 -54 -10q-62 0 -122 48q-27 21 -34 21q-6 0 -6 -11t-13 -54q-8 -28 -13.5 -36t-18.5 -9l-19 -2l1 69q1 27 1 67v11q0 9 -5 9
q-7 0 -12 -21q-6 -25 -19 -25q-9 0 -13 12q-11 27 -11 95q0 65 10 141q16 117 21 137q7 26 7 98q1 47 4 61t14 28q16 19 38 19z" />
    <glyph glyph-name="e" unicode="e" horiz-adv-x="639" 
d="M179 -15q0 7 -7 7t-7 -7t7 -7t7 7zM179 24q0 3 -3 3q-4 0 -4 -3q0 -4 4 -4q3 0 3 4zM128 26q3 8 -1 13q-2 2 -3 -2v-7q0 -6 1 -7t2 1q1 1 1 2zM254 71q3 5 -5 5t-5 -5q5 -3 10 0zM103 109q7 7 5 19q-2 8 -5 8q-8 0 -8 -21q0 -14 8 -6zM211 201q1 4 1 10q0 12 -5 12
q-6 0 -10 -11t-4 -28q0 -24 7 -28q3 -1 5 2t2 8q0 11 4 35zM151 173q5 30 5 43q0 12 -3 18q-3 4 -4 4q-4 0 -8 -33q-6 -43 -9 -65q-4 -21 2 -20q1 0 2 1q8 4 15 52zM312 265q9 3 9 4t-24 2h-7q-26 0 -30 -6l-1 -2q0 -4 15 -4q18 0 38 6zM309 307q-15 6 -31 6q-15 0 -15 -6
t24 -6h6q20 0 21 2q1 1 -5 4zM170 309q3 5 0 10q-2 1 -3.5 0t-1.5 -5t1.5 -5t3.5 0zM407 342q-15 6 -38 6q-19 0 -19 -5q1 0 1 -1q4 -6 30 -6h7q25 0 24 3q0 1 -5 3zM493 493q-14 17 -24 2q-2 -4 -2 -6q0 -12 15 -12q2 0 8 2q5 2 6.5 3.5t0.5 4t-4 6.5zM297 575q8 -3 13 1
q2 2 -2 3h-7q-6 0 -7 -1t1 -2q1 -1 2 -1zM134 650q4 7 14 7q14 0 78 -17q57 -16 101 -16q10 0 62 2q19 1 54 1q120 0 120 -19q0 -5 -23 -5q-28 0 -52 2q-38 2 -46 2q-31 0 -31 -4q0 -8 76 -15q65 -8 88.5 -14.5t23.5 -17.5q0 -10 -27 -10q-26 0 -91 9q-61 10 -116 14
q-4 0 -10 0.5t-9 1t-5 0.5l-3 -1q0 -1 69 -17q82 -18 113 -28t31 -21t-27 -28q-45 -28 -186 -28q-40 -1 -48.5 -3.5t-12.5 -15.5q-7 -17 -7 -46q0 -19 3 -23t16 -4q19 0 29 10q7 6 49 11t75 5q24 0 28 -3q10 -7 24 -27.5t14 -27.5q0 -32 -153 -71q-101 -25 -107 -38
q-12 -22 -12 -78q0 -26 5 -29q14 -9 85 -25.5t118 -21.5q69 -9 84 -19q13 -8 13.5 -10t-8.5 -9q-12 -10 -33 -10q-20 0 -20 -11q0 -9 -21 -9q-4 0 -46 2q-18 2 -68 2t-69 -2q-44 -3 -56.5 -6t-12.5 -11q0 -21 83 -21q25 0 79 -8q29 -5 38.5 -9t9.5 -12q0 -9 -9 -11t-46 -2
q-58 0 -121 14t-79 14q-14 -1 -2 -10q14 -11 14 -15q0 -3 -6 -3q-19 0 -55 22q-37 23 -51 28q-15 6 -15 14t16 21q13 12 13 27t-12 44q-6 11 2 21q6 6 10 40q1 10 15 105q8 54 15 144q3 36 3 51q0 21 -10 27q-9 6 -9 12q0 13 30 21q17 5 24 11t11 21q7 22 14 22q5 0 10 -23
q4 -22 21 -27q18 -5 98 -12t113 -7q11 0 12 1q2 2 2 3q0 7 -112 39q-108 30 -135 39t-27 19q0 6 6 15q5 9 37 9h14h7q28 0 28 4q0 6 -59 17q-52 8 -52 20q0 4 2 7z" />
    <glyph glyph-name="f" unicode="f" horiz-adv-x="648" 
d="M191 145q0 21 -7 25q-4 3 -6 -6q-1 -4 -1 -10q0 -22 7 -26q4 -3 6 6q1 4 1 11zM140 156q-1 37 -14 38q-1 0 -3 0.5t-3 0.5q-7 0 -9.5 -8.5t-6.5 -42.5q-2 -24 -2 -27q0 -13 9 -18q2 -1 6 -1q23 0 23 50v8zM266 225q6 2 -2 3l-10 1q-16 0 -15 -3l3 -1q11 -2 24 0zM309 272
q18 0 18 9q0 5 -13 5q-18 0 -18 -7t13 -7zM191 296q0 4 -4 4q-3 0 -3 -4q0 -3 3 -3q4 0 4 3zM168 299q3 9 -1 13q-2 4 -4 -2v-7q0 -7 2 -7q2 -1 3 3zM177 338q0 4 -4 4q-3 0 -3 -4q0 -3 3 -3q4 0 4 3zM140 309v17q0 30 -4 30q-12 0 -20 -61q-2 -24 -2 -26q0 -11 6 -11h2
q2 1 3 1q8 1 10.5 10.5t4.5 39.5zM198 486q0 10 -3 10q-15 -11 -15 -17q0 -4 7 -4q11 0 11 11zM391 496q-36 16 -74 16q-23 0 -45 -6q-44 -12 -44 -21q0 -11 96 -23q29 -4 57 -4q44 0 44 12t-34 26zM124 511q-4 5 -12.5 5.5t-13.5 -4.5t-5 -46q0 -51 6 -60q6 -10 10 -3
t10 44.5t6 56.5q0 6 -1 7zM208 552q4 7 -6 7q-12 0 -15 -7t7 -7t14 7zM322 562q6 4 6 7t-32 4q-55 0 -55 -15q0 -3 4 -7q5 -5 20 -5q34 0 57 16zM410 589q0 3 -9 4q-10 0 -11 -2l2 -2q8 -2 18 0zM219 626q8 17 12 17q177 -6 243 -27q40 -15 84 -15q45 0 48 -5q2 -1 2 -5
q0 -6 -10.5 -12t-22.5 -6q-19 0 -24 -17q-2 -12 -9 -14.5t-38 -2.5h-38h-16q-72 0 -72 -8t74 -31q62 -17 66 -30q2 -6 2 -10q0 -17 -39 -28t-142 -23q-35 -4 -48.5 -6t-30.5 -6.5t-21 -7t-8.5 -12t-4.5 -16.5v-26q0 -48 6 -52q1 -1 5 -1q11 0 30.5 7.5t29.5 15.5q8 8 30 8h5
q16 -2 19.5 -5t3.5 -20v-14v-16q0 -14 3 -18t15 -9q20 -6 20 -21q0 -8 -7 -12q-8 -4 -25 5q-10 5 -14 5q-6 0 -13 -10q-10 -12 -60 -16q-51 -5 -58 -17q-3 -5 -3 -9q0 -17 42 -17q33 0 33 -11q0 -14 -41 -20q-27 -4 -31 -15q-4 -9 -12 -81q-7 -64 -12.5 -86t-15.5 -22
q-8 0 -8 19q0 23 8 55q8 35 8 63q0 35 -10 35q-8 0 -11.5 -15t-10.5 -82q-8 -64 -26 -64q-4 0 -4 20q0 38 11 98q1 6 1 14t-6 8q-1 0 -3.5 -0.5t-4.5 -0.5q-34 -5 -34 -80q0 -43 -10 -56q-7 -10 -12 -10q-8 0 -8 40q0 38 4 93q8 134 8 208v29q0 57 -13 66q-10 7 -10 17
q0 3 2 13q4 18 4 83v26v36q0 58 3 67q4 14 14 14q11 0 15 -16q4 -18 6 -18q3 0 32 18q29 15 61 21t37 21z" />
    <glyph glyph-name="g" unicode="g" horiz-adv-x="733" 
d="M495 -24q0 14 -10 14q-9 0 -35 -14q-25 -14 -59 -14h-8h-10q-31 0 -31 -8q1 -11 28 -22t52 -11q30 0 52 21q21 21 21 34zM326 -7q6 2 -2 3h-10q-16 0 -15 -2l3 -1q11 -2 24 0zM425 15q0 4 -3 4q-4 0 -4 -4q0 -3 4 -3q3 0 3 3zM165 35q-22 11 -28 11q-4 0 -4 -5
q0 -8 15 -18.5t26 -10.5q15 0 15 5q0 7 -24 18zM240 58q-9 13 -30 30l-20 14l7 -26q9 -43 42 -43q11 0 11 4q0 5 -10 21zM485 60q4 3 4 10q0 11 -5.5 25t-8.5 14q-4 0 -74 -37q-58 -30 -58 -35q0 -1 8 -3h3q20 0 70.5 10t60.5 16zM147 130q0 5 -7 24l-6 14v-14q0 -12 6 -24
q7 -11 7 -3v3zM594 231q-28 0 -63 11q-24 8 -36 8q-3 0 -3 -1q-1 -1 1 -2.5t6 -3t10 -3.5t13.5 -4t15.5 -4q47 -12 68 -12q14 0 14 6q0 5 -26 5zM579 323q8 8 -8 8t-8 -8t16 0zM113 321q3 30 3 46q0 6 -1 6q-8 0 -8 -59v-7q0 -22 1 -22zM143 497q2 14 2 16q0 12 -6 12
q-7 0 -23 -16q-14 -14 -29.5 -43t-15.5 -41q0 -10 14 -10q25 0 38.5 18.5t19.5 63.5zM411 518q0 10 -19 10q-12 0 -16 -6q3 -9 14 -10q21 0 21 6zM345 547q-14 6 -28 6q-23 0 -59 -18q-22 -11 -44.5 -34t-22.5 -33q0 -2 1 -3h1q9 0 68.5 26t76.5 38q16 11 16 13t-9 5z
M397 601q0 4 -8 7.5t-15 3.5q-6 0 -8 -3q-1 -1 -1 -3q0 -5 7 -10t13 -5q4 0 5 1q7 5 7 9zM306 581l32 4q-28 20 -41 30l-52 -22q-40 -17 -53.5 -30.5t-19.5 -43.5l-6 -24l32 29q53 49 108 57zM155 583l76 76l29 -3q145 -18 157 -27q7 -6 7 -19q0 -4 -2 -18t-2 -16
q0 -10 6 -18t27 -27q31 -28 31 -40v-1l-1 -2q-5 -9 -27 -9q-4 0 -48 2q-40 2 -48 2q-34 0 -72 -13q-49 -17 -87.5 -36.5t-42.5 -30.5q-9 -24 -9 -109q0 -55 5 -72q8 -29 22 -48t63 -70t65 -51q13 0 64.5 27.5t67.5 43.5q13 13 37 13q14 0 20.5 -5t13.5 -23q11 -24 18 -24
q8 0 23 23q11 15 11 26q0 6 -5 19q-7 18 -21 27.5t-52 20.5q-31 9 -46 24q-14 16 -22 16t-39.5 22t-31.5 27q0 6 15 28q14 18 25 18q6 0 9 -1q12 -3 16.5 -0.5t5.5 12.5q2 10 7.5 12.5t33.5 2.5h37q78 -1 107 -9.5t40 -33.5q10 -23 35 -52q20 -23 20 -33q0 -11 -19 -12
q-34 -5 -34 -47q0 -18 -26.5 -76.5t-34.5 -58.5q-9 0 -14 11q-1 3 -4 3q-4 0 -20 -30q-18 -36 -22 -56t-27 -45q-14 -16 -25 -21t-36 -7h-12q-27 0 -58 13t-93 51q-41 25 -78 25q-47 0 -69 20.5t-22 64.5q0 20 -17 67q-16 44 -27 113.5t-11 123.5v17q3 57 22.5 90.5
t88.5 102.5z" />
    <glyph glyph-name="h" unicode="h" horiz-adv-x="643" 
d="M518 87q3 8 -1 13q-2 2 -3 -2v-7q0 -6 1 -7t2 1q1 1 1 2zM525 125q3 5 0 10q-2 1 -3.5 0t-1.5 -5t1.5 -5t3.5 0zM129 212q3 8 -1 13q-2 2 -3 -2v-7q0 -6 1 -7t2 1q1 1 1 2zM518 267q3 6 0 12q-3 7 -4 0v-7q0 -8 2 -8zM294 264q-12 5 -49 15.5t-50 10.5q-6 0 -10 -6.5
t-4 -13.5q0 -5 3 -8q8 -7 27.5 -13t34.5 -6q2 0 4 0.5t3 0.5q50 11 50 14q0 1 -9 6zM101 267q2 15 0 28q-2 6 -3 -3q-1 -5 0 -13l2 -16q1 1 1 4zM525 316q2 8 0 17q-3 0 -4 -9q0 -9 2 -10zM532 365q2 8 0 17q-3 0 -4 -9q0 -9 2 -10zM421 361q2 11 0 21q-2 4 -3 -2l-1 -11
q0 -11 2 -11zM150 382q2 11 0 21q-2 4 -3 -2l-1 -11q0 -11 2 -11zM430 424q4 24 4 32q0 6 -2 6q-3 0 -6 -13t-3 -26q0 -20 1 -20q2 0 6 21zM479 461q5 53 5 80v7l-3 16l-5 -17q-27 -100 -27 -143q0 -12 3 -15q4 -6 8 -6q11 0 19 78zM550 649q4 6 7 6q7 0 7 -56v-30v-44
q0 -24 1 -24t4 7q24 64 31 64q3 0 3 -9q0 -23 -18 -102q-54 -238 -54 -309q0 -7 1 -8q4 -3 4 -31q0 -36 -5 -81.5t-11 -51.5q-8 -10 -18 -10q-8 0 -21 -37q-17 -51 -27 -51q-2 0 -5 3q-9 9 -9 134q0 113 8 196q7 59 7 90q0 18 -3 21q-6 6 -11 -6q-5 -17 -21.5 -118.5
t-16.5 -113.5q0 -10 -12 -10q-9 0 -11 8t-2 43v37l2 88l-27 -13q-20 -10 -62 -18t-75 -8h-12l-27 2l2 -28q2 -26 -13 -107q-11 -61 -11 -99v-5q1 -6 1 -17q0 -20 -5.5 -35.5t-14.5 -16.5h-2q-15 0 -15 29q0 5 2 15q1 3 1 11q0 15 -5 32q-7 25 -13 25q-5 0 -12 -4
q-8 -4 -14 -4q-7 0 -19 12q-10 10 -12.5 24.5t-2.5 68.5q2 88 10 156q5 39 5 65q0 18 -4 22q-8 8 -8 63q0 37 2 46.5t12 11.5q14 4 14 37q0 31 7.5 53.5t18.5 22.5q8 0 8 -17q0 -23 -2 -43q-11 -131 -11 -163q0 -20 6 -20h2q2 1 3 1q14 1 15 34q2 34 20.5 120t25.5 94
q5 7 24.5 18t25.5 11q1 0 1 -21q0 -86 -9 -189q-1 -11 -1 -25q0 -8 2 -12.5t5 -6.5t12 -7q15 -8 43 -8q7 0 49 2q70 5 76 13t6 96q0 86 6 92q1 1 3 1q7 0 13 -14.5t6 -30.5q0 -21 7 -21t11 18q23 104 43 104q5 0 9 -6q4 -5 4 -41q0 -94 -22 -253q-19 -142 -19 -217
q0 -25 1 -37q0 -21 4 -21q7 0 9 53q1 61 33 300t40 250z" />
    <glyph glyph-name="i" unicode="i" horiz-adv-x="254" 
d="M79 52q2 8 0 17q-3 6 -3 -9q0 -11 2 -10zM178 196q0 3 -3 3q-4 0 -4 -3q0 -4 4 -4q3 0 3 4zM183 236q2 11 0 24q-2 6 -3 -2v-10q0 -16 2 -15zM197 692q10 16 18 8q4 -4 4 -15q0 -8 -5 -40q-4 -24 -4 -43t4 -32q4 -15 4 -73q0 -65 -2 -110q-4 -142 -4 -211v-30v-41
q0 -50 -12 -74q-13 -32 -13 -71v-12v-10q0 -57 -14 -57q-5 0 -13 8q-13 12 -17 97q-6 88 -7 88q-2 0 -9 -45q-5 -31 -8.5 -40.5t-13.5 -10.5h-2q-15 0 -30 18q-25 31 -25 136q0 20 2 78q1 18 1 59q0 65 -3 97q-4 48 -4 61q0 9 1 11q3 11 11 11q10 0 17 -15q5 -9 6 -9
q1 1 1 3q0 1 -0.5 3.5t-1 7t-0.5 7.5q-2 23 -10 55q-4 13 -4 38q0 53 12 60q6 4 19 -7q7 -6 10 -7.5t4.5 0t3.5 6.5q4 11 18 11q8 0 10.5 -4t2.5 -20q0 -3 -2 -47q-2 -38 -2 -43q0 -14 2 -14q5 0 26 107q19 96 29 111z" />
    <glyph glyph-name="j" unicode="j" horiz-adv-x="591" 
d="M298 -9q4 7 -6 7q-12 0 -15 -7q-2 -2 0 -4.5t6 -2.5q10 0 15 7zM410 22q15 19 15 25q0 2 -2 2q-4 0 -17 -9q-22 -16 -50 -31q-33 -18 -33 -27q0 -5 13 -5q39 0 74 45zM316 44q6 8 -5 9h-14q-24 -1 -74 -9.5t-50 -12.5q0 -5 33 -8q14 -2 23 -2q27 0 53 7t34 16zM366 163
q12 31 6 29q-2 0 -48 -21q-44 -22 -90 -29q-44 -5 -58 -12q-4 -3 -4 -5q0 -16 95 -21q16 -1 36 -1q16 0 22.5 2.5t14.5 11.5q16 18 26 46zM502 238q10 8 6 28q-2 13 -3 12l-1 -7q0 -11 -5 -28q-3 -9 -2 -9zM456 338q1 4 1 17q0 16 -2 22l-5 20l-5 -23q-5 -23 -5 -37
q0 -20 7 -20q5 0 9 21zM376 493q3 5 -5 5t-5 -5q5 -3 10 0zM387 549q-3 2 -13 3l-11 -2l3 -1q11 -2 21 0zM423 554q3 6 -6 6q-12 0 -15 -6q-2 -2 0 -4.5t6 -2.5q10 0 15 7zM239 633q0 11 21 11q28 0 80 -18q45 -15 75 -15h11q6 1 16 1q19 0 38 -16q22 -18 22 -25t-9 -17
q-7 -7 -7 -16t4 -18q8 -22 22 -22q9 0 17 8q6 6 14.5 2.5t8.5 -11.5q0 -6 -25 -18q-25 -11 -25 -28q0 -7 7 -11q5 -3 14 -34t12 -54q7 -60 7 -85q0 -24 -7 -49q-13 -42 -49 -112t-63 -103t-50 -43t-85 -14q-36 -2 -41 -2q-23 0 -50 15q-32 19 -82 42q-50 26 -50 30
q0 8 11.5 15t24.5 7q17 0 39 8q12 5 12 7q0 4 -46 28q-53 27 -58 34q-1 1 -1 3q0 13 121 28q74 8 115.5 20.5t74.5 35.5q28 20 38 42t15 76q4 36 4 61t-8 32.5t-32 13.5q-31 7 -118 49.5t-87 50.5q0 6 15 23l14 16l-15 17q-10 11 -10 20q0 13 15 13q12 0 26 -10
q15 -9 34 -18l21 -9l-15 15q-16 14 -16 24z" />
    <glyph glyph-name="k" unicode="k" horiz-adv-x="718" 
d="M359 235q0 6 -10 6q-6 0 -10.5 -6t-4.5 -12q0 -2 2 -6q1 -1 3 -1q5 0 12.5 7t7.5 12zM444 215q-46 58 -61 58q-4 0 -7 -4q-2 -2 0 -4.5t6 -2.5q19 0 19 -47q0 -27 5 -34t53 -36t55 -29q1 0 1 1q0 9 -71 98zM352 305q0 5 -7 5t-48.5 -33.5t-57.5 -52.5q-19 -22 -19 -44
q0 -9 6 -9q7 0 25 22t18 31t17 14q13 3 39.5 30t26.5 37zM189 367q2 14 2 38q0 15 -1 18v1q-3 0 -8 -39q-3 -24 -3 -43q0 -10 1 -12l1 -1q3 0 8 38zM232 632q10 11 17 11q11 0 17 -31q2 -10 2 -35q0 -64 -20 -137q-15 -60 -15 -89q0 -13 4 -13t18 9q7 5 13 5t6 -6
q0 -5 -8 -18q-11 -18 -7 -18q7 0 82 75q227 217 262 217q13 0 13 -8q0 -16 -74 -87q-70 -70 -70 -75q0 -2 2 -2q13 0 120 94q66 57 78 57q6 0 6 -8q0 -7 -33.5 -46t-57.5 -60q-45 -41 -86 -79t-63.5 -60.5t-21.5 -24.5q1 -3 96 -111q79 -90 109 -129t30 -53q0 -12 -9 -12
q-15 0 -43 28q-17 18 -60.5 42.5t-57.5 24.5q-2 0 -3 -1q-2 -4 20 -23q27 -22 60.5 -57t40.5 -50q6 -12 6 -17q0 -6 -6 -13q-6 -8 -15 -8q-16 0 -52 30.5t-112 107.5q-121 123 -129 123t-42 -38l-35 -38l-5 -76q-6 -79 -17 -92q-7 -10 -16 -10q-8 0 -8 8q0 1 0.5 3.5
t0.5 4.5q0 11 -17 36t-24 25q-9 0 -7 -23q0 -2 0.5 -5.5t0.5 -5.5q0 -29 -16.5 -51t-37.5 -22q-8 0 -12 2q-9 3 -9 16q0 9 3 29q5 38 7 95q1 46 18.5 188t29.5 208q10 50 12 76q1 22 17 23q17 2 21 21q16 71 23 71q16 0 16 -32v-14q0 -9 2 -9q4 0 14 22q11 22 22 35z" />
    <glyph glyph-name="l" unicode="l" horiz-adv-x="764" 
d="M588 38q-25 10 -34 10q-3 0 -3 -2q0 -1 8 -6q12 -8 12 -16q0 -11 17 -11q21 0 21 8t-21 17zM297 128q-17 4 -30 4q-18 0 -22 -18q-5 -18 1 -24q4 -4 79.5 -15.5t97.5 -11.5l5 1l-2 1q-1 1 -4.5 2t-8 2.5l-10.5 3.5t-12 3q-72 16 -72 35q0 12 -22 17zM167 114l1 -1
q2 0 5 7t3 11l-1 1q-2 0 -6 -8q-5 -7 -2 -10zM194 200q8 8 5 12q-5 5 -9 -8q-3 -7 -2 -8t6 4zM183 285q2 22 2 26q0 17 -5 17q-7 0 -11 -26q-1 -10 -17 -88q-4 -23 1 -24q19 7 30 95zM191 362q3 8 -1 13q-2 2 -3 -2v-7q0 -6 1 -7t2 1q1 1 1 2zM301 612q12 18 20 18
q12 0 12 -30q0 -113 -48 -293q-22 -81 -22 -92q0 -8 10.5 -10t46.5 -2q57 -2 63 -5q6 -4 6 -7q0 -7 -57 -8q-69 -3 -69 -11t58 -22q44 -11 116 -37q51 -19 70 -19h2q3 3 3 15q0 11 -1 17q-1 5 -1 14q0 13 6 13t14 -12.5t12 -31.5q4 -20 17 -20h5q16 2 27 -7t70 -13
q60 -3 63 -12q2 -9 -25 -9q-42 0 -60 -35q-16 -32 -116 -32q-50 0 -151 8q-26 2 -30 2q-10 0 -10 -2t2 -3q17 -11 81.5 -18t147.5 -7q72 -1 92 -2.5t20 -7.5q0 -11 -99 -16q-96 -6 -112 -16q-9 -6 -21 -6q-14 0 -98 15q-74 13 -97 13q-15 0 -20 -4q-13 -8 -26 -8t-20 -26
q-6 -27 -20 -29q-1 0 -2.5 -0.5t-2.5 -0.5q-18 0 -18 28q0 5 2 19q2 16 2 19q0 8 -3 11t-13 8q-12 5 -18 5q-10 0 -24 -7q-18 -8 -25 -8q-3 0 -7 2q-7 4 -7 32q0 68 28 160q19 63 19 80q0 8 -3 16q-5 15 -5 29q0 7 21 89q17 70 17 96q0 21 13 31q14 10 34 69l20 60l30 5
q8 2 23 2q12 0 14 -2q3 -3 3 -16q0 -8 -4 -46q-9 -65 -10 -91l-4 -34l15 38q13 34 23 82q12 46 21 62z" />
    <glyph glyph-name="m" unicode="m" horiz-adv-x="772" 
d="M392 8q3 5 0 10q-2 2 -3.5 0.5t-1.5 -5.5t1.5 -5.5t3.5 0.5zM366 122q0 14 -7 28l-6 14v-14q0 -16 6 -28l7 -14v14zM422 271q0 7 -5.5 8t-10.5 -5q-6 -4 -4 -29l1 -25l9 20q6 13 10 31zM303 230q0 18 -10 35q-7 13 -9 13t8 -34q8 -21 10 -21q1 0 1 7zM513 442q0 5 -5 5
q-4 0 -19 -39.5t-21 -66.5l-2.5 -10t-3 -13t-2.5 -9q-3 -8 -2.5 -8.5t8.5 6.5q7 6 27 64t20 71zM695 478q0 4 -3 4q-4 0 -4 -4q0 -3 4 -3q3 0 3 3zM221 470q-17 39 -23 39q-2 0 -2 -4q0 -10 7 -31q21 -69 38 -80q1 -1 3 -1t2 4q0 17 -25 73zM167 590q2 11 12.5 21.5
t19.5 10.5q6 0 28 -25.5t29 -41.5q17 -33 29 -33q4 0 7 6q4 10 9 10q11 0 30 -43q23 -51 47 -158q3 -15 9 -15q8 0 21 19q15 20 39 72t24 62q0 11 28 48q28 38 32 54q5 17 15 17q6 0 16 -10q6 -8 6 -25q0 -10 -1 -16t-1 -16q0 -17 8 -25q6 -6 6 -12q0 -8 -16 -37t-33 -71.5
t-17 -54.5l1 -3q4 -2 23 44q18 43 40 69q19 22 21 67q1 44 12 44t14 -20q3 -17 10.5 -31.5t12.5 -14.5q1 0 2 1q5 8 10 40q8 50 23 50q13 0 13 -41l1 -32l8 23q11 28 21 28q5 0 8 -9q1 -2 1 -15q0 -27 -5 -75q-7 -75 -7 -264v-49q0 -136 -9 -165q-10 -30 -22 -30
q-10 0 -14 25q-7 37 -11 47q-7 29 -9 140q-4 120 -5 123q-1 1 -2 -1t-5 -13q-9 -23 -11 -84q-4 -67 -18 -100q-15 -32 -22 -32q-6 0 -12 12q-7 11 -7 37q0 32 10 98q13 94 13 144q0 28 -5 28q-6 0 -25 -58q-17 -52 -48 -123q-29 -72 -29 -85q0 -20 -31 -63q-32 -48 -32 -68
q0 -19 -13.5 -47t-22.5 -28h-1q-7 1 -22 39q-12 34 -21 34q-1 0 -2 -0.5t-2 -0.5q-2 -1 -5 -1q-11 0 -24.5 34t-46.5 146q-72 244 -90 250h-1q-13 0 -13 -72q0 -32 2 -49q5 -53 5 -142q0 -187 -12 -205q-4 -6 -9 -6q-12 0 -24 31t-17 77q-4 37 -9 37q-6 0 -6 -40v-8v-8
q0 -52 -12 -52q-5 0 -9 6q-19 22 -19 155q0 62 1 101q1 37 1 100q0 94 -4 125l-8 53l27 23q28 24 28 42q0 20 17 35q12 12 21 12q11 0 11 -18q0 -17 8 -17q7 0 10 13z" />
    <glyph glyph-name="n" unicode="n" horiz-adv-x="683" 
d="M323 160q-27 84 -33 84q-1 0 -1 -1q-1 -9 19.5 -82t26.5 -85t7 -12t1 4q0 1 -0.5 3.5t-1 7t-0.5 7.5q-4 30 -18 74zM572 352q2 32 2 39v5q-2 1 -5 -13t-4.5 -31.5t-1.5 -27.5l1 -7l6 21zM99 567q2 19 -6 23h-1q-5 0 -5 -24v-8q0 -28 3 -28q2 0 3 4q6 12 6 33zM71 649
q7 14 20 14q12 0 20.5 -12t9.5 -31q0 -25 18 -25q7 0 12 5q8 8 24 8t16 13q0 18 9 18q6 0 17 -12q10 -10 41 -63t31 -58t29 -70q25 -61 58 -153q30 -87 40 -101q8 -10 10 -10q3 0 6 24q2 15 7.5 58t14.5 120.5t16 133.5q12 113 29 113q2 0 6 -2q7 -4 7 -80q0 -78 -7 -120
q-3 -20 -8 -55.5t-9.5 -63t-11.5 -52.5q-17 -73 -17 -92q0 -10 4 -10q11 0 22 74q18 121 31 185q11 56 71 188q9 22 23 22q8 0 12 -8q4 -5 4 -36v-17v-11q0 -34 10 -50q8 -14 8 -21q0 -3 -4 -19q-27 -84 -56 -245t-29 -231q0 -30 -7 -49.5t-18 -19.5q-10 0 -10 55
q0 49 11 142t21 133q9 36 9 53q0 10 -2 10t-7 -18.5t-11 -50t-10 -65.5q-11 -78 -24 -137q-10 -41 -10 -61q0 -13 3 -25q4 -15 4 -28q0 -22 -12 -22q-8 0 -19 43q-12 43 -22 46q-9 3 -30 26l-19 21l-18 -17q-12 -12 -22 -12q-13 0 -35 31q-11 17 -33.5 82.5t-35.5 122.5
q-13 53 -33 112.5t-26 61.5q-8 2 -8 -4q0 -7 -7 -51q-7 -45 -7 -153q0 -97 6 -117q3 -9 3 -16q0 -8 -4.5 -20.5t-4.5 -21.5q0 -17 -11 -37t-20 -20q-25 0 -26 227q0 104 -4 104q-6 0 -8 -170q-1 -80 -3.5 -97t-15.5 -31q-15 -18 -21 -18q-9 0 -12.5 32t-6.5 132
q-5 145 -5 244q1 74 9.5 156t17.5 99z" />
    <glyph glyph-name="o" unicode="o" horiz-adv-x="623" 
d="M402 10q0 7 -26 -5q-16 -7 -16 -14q0 -1 3 -1t8 1.5t10 4.5q21 10 21 14zM345 80q-7 7 -32 7q-18 0 -23 -4q-5 -3 -5 -7q0 -6 12 -11.5t21 -5.5h3q25 7 25 18q0 2 -1 3zM381 100q0 4 -4 4q-3 0 -3 -4q0 -3 3 -3q4 0 4 3zM92 222q3 9 -1 13q-2 4 -4 -2v-7q0 -7 2 -7
q2 -1 3 3zM472 246q7 12 5 25q-4 12 -5 0q0 -11 -4 -25l-2 -9zM486 329q0 13 -7 13t-7 -18q0 -14 5 -14q9 0 9 19zM318 404q-23 29 -28 29q-8 0 -37 -113q-11 -46 -11 -81q0 -41 13 -70q11 -25 19 -31t42 -14l47 -11l23 18q22 17 30 53q21 100 21 155q0 25 -3.5 32t-21.5 15
q-24 11 -30 11q-7 0 -7 -10q0 -2 2 -16q1 -5 1 -13q0 -16 -7 -26q-6 -9 -12 -9q-10 0 -16 29q-5 24 -25 52zM408 460q-21 7 -31 7t-16 -5q-2 -2 -2 -3q0 -8 32 -24t36 -16q3 0 3 17q0 16 -22 24zM115 402q18 59 18 70q0 2 -1 2q-5 0 -14.5 -16.5t-9.5 -25.5q0 -12 -7 -16
t-7 -26q0 -23 -10 -33q-8 -8 -8 -29q0 -5 2 -27q3 -35 9 -35q7 0 7 38q0 27 21 98zM489 501q-11 8 -16 8q-2 0 -2 -2q0 -6 10 -23q13 -21 14 -21t3 11q4 18 -9 27zM381 514q0 9 -22 9q-14 0 -29 -4q-12 -3 -12 -15q0 -8 7 -12q4 -2 7 -2q13 0 31 8.5t18 15.5zM242 544
l14.5 14.5l10.5 10.5t8 8.5t1 2.5q-6 0 -29 -16t-34 -29q-15 -17 -15 -21q0 -1 2 -1q9 0 42 31zM426 608q-4 8 -23 6q-13 0 -14 -1l9 -5q15 -6 23 -6q6 0 6 3q0 2 -1 3zM367 643q5 4 25 4q40 0 69 -12q16 -9 46 -61q25 -45 42 -68q37 -43 37 -158q0 -65 -16 -110
q-51 -145 -95 -203q-70 -90 -154 -90q-43 0 -78 29q-20 16 -45 27q-25 10 -62 57t-63 103q-20 41 -24 60t-5 65v15q0 52 19 110q25 78 66 135t87 80q32 16 57 16q5 0 33 -2q10 -1 28 -1q28 0 33 4z" />
    <glyph glyph-name="p" unicode="p" horiz-adv-x="634" 
d="M382 192l1 1q0 2 -9 2q-31 0 -81 -12q-44 -11 -44 -19q0 -3 10 -8h2q14 0 64.5 15t56.5 21zM389 243q-15 3 -65 11t-62 10q-17 3 -28 3q-8 0 -9 -1q-4 -4 -4 -26v-23h41q15 0 47 5t58 11.5t26 8.5q0 1 -4 1zM327 427q-47 5 -62 5q-23 0 -28 -10t-5 -45v-17v-48l35 -9
q74 -21 142 -21q17 0 24 1q28 4 37.5 17t9.5 50q0 21 -6 27.5t-40 21.5q-44 20 -107 28zM533 467q-4 21 -15 30q-9 -3 -10 -14q0 -13 8 -27t15 -14q2 0 3 1q4 2 -1 24zM277 534q-9 11 -14 11q-7 0 -7 -14q0 -8 7 -27.5t12 -27.5q2 -3 43 -9q50 -7 66 -10q6 -1 14 -1
q13 0 13 5q0 8 -22 20q-24 12 -47 28q-24 15 -40 15q-17 0 -25 10zM390 565q-28 20 -56 20q-8 0 -14 -3q-1 0 -1 -1q0 -6 35 -24t48 -19q8 0 8 5q0 8 -20 22zM242 665q26 13 53 13q17 0 20 -6t51 -15q48 -7 66 -22q19 -13 26 -13q11 0 40 -25.5t44 -48.5q6 -9 18 -27.5
t15 -22.5q8 -11 15 -57.5t7 -83.5q0 -22 -4 -32q-7 -13 -18 -57q-10 -40 -25 -51q-14 -10 -14 -23q0 -18 -17 -29.5t-45 -11.5q-34 0 -52 -14q-19 -16 -70.5 -28.5t-94.5 -12.5h-11q-12 1 -28 1q-14 0 -18 -3t-7 -13q-4 -13 -6 -65q-1 -45 -14 -74t-30 -29q-20 0 -32 42
q-4 14 -8 18.5t-14 4.5h-6q-3 0 -7 -0.5t-6 -0.5q-15 0 -20 13t-5 59q0 41 3 120q3 105 14 122q12 17 12 106t7 107q6 18 18 18q2 0 12 -2q5 -1 14 -1q27 0 40 31q9 21 29 32q12 6 16.5 13.5t5.5 25.5q2 21 6 28t20 14z" />
    <glyph glyph-name="q" unicode="q" horiz-adv-x="747" 
d="M539 17q0 3 -7 3t-7 -8q0 -9 11 2q3 2 3 3zM448 41q0 6 -10 6q-12 0 -42 -11q-28 -11 -62 -11q-27 -1 -27 -4q0 -1 6 -6q17 -13 55 -13q24 0 41.5 6t17.5 16t11 10q10 0 10 7zM423 120q-5 17 -9 17q-5 0 -25 -20q-21 -20 -9 -20t21 -3q6 -2 8 -2q16 0 16 18q0 2 -2 10z
M518 392q-9 27 -15 27q-5 0 -5 -23q0 -38 9 -50q10 -14 15 3q1 3 1 11q0 15 -5 32zM103 366q0 53 -6 53t-6 -53q0 -52 6 -52t6 52zM106 443q0 -6 1 -7l3 3q3 10 0 13q-2 4 -4 -2v-7zM369 542q-27 31 -37 31q-13 0 -45 -33.5t-46 -60.5q-37 -72 -42 -172q-2 -38 -2 -45
q0 -31 15 -60q11 -22 25.5 -34t61.5 -37q7 -5 19 -5q25 0 52 39q21 28 21 43q0 4 -2 14q-3 12 -9 28t-6 34v13l1 35l29 -1q30 0 38 15q5 12 5 25q0 34 -22 83.5t-56 87.5zM217 602q0 6 -9 6t-24 -34.5t-19 -63.5l-4 -32l21 39q18 32 21 54q0 15 7 19t7 12zM166 658
q23 19 45 19q16 0 27 -1q61 -5 95 -14t77 -33q73 -40 107 -84.5t79 -155.5q14 -34 14 -106q0 -45 -8 -59q-4 -8 -4 -15q0 -11 11 -47q11 -37 13.5 -60.5t10.5 -55.5q20 -89 62 -89q12 0 12 -21q0 -27 -28 -27q-14 0 -32 9q-17 8 -40 8q-13 0 -21 -1q-20 -2 -23 -2
q-12 0 -20.5 5t-31.5 24l-39 32l-38 -19q-37 -19 -89 -19q-31 0 -51 9q-13 7 -46 16q-53 12 -87 82q-14 29 -21 33q-3 1 -9 31q-4 23 -21 59t-28 46q-11 9 -26 54q-12 35 -12 62q0 6 2 34q7 71 45 162.5t75 123.5z" />
    <glyph glyph-name="r" unicode="r" horiz-adv-x="736" 
d="M507 -40h2q1 0 1 2q0 4 -3 10.5t-5 6.5t-2 -7q0 -8 7 -12zM142 -26q5 3 15.5 27.5t10.5 38.5q0 7 -3 10q-7 4 -8 -10q0 -18 -10 -31q-10 -15 -10 -30q0 -6 2 -6t3 1zM441 96q-11 28 -22 32q-9 3 -9.5 -3t7.5 -11q6 -3 18 -29q8 -19 13 -19q2 0 2 3q0 7 -9 27zM198 169
q2 12 -9 12q-6 0 -10 -16.5t-4 -33.5q0 -13 2 -16l1 -1q4 0 11.5 21t8.5 34zM274 225q3 5 -5 5t-5 -5q5 -3 10 0zM385 293q1 1 1 3q0 3 -6 3q-8 0 -23 -6l-9 -5q0 -1 13 -1q20 -2 24 6zM514 336q0 6 -4 6q-7 0 -18 -12.5t-11 -18.5q0 -3 2 -3q7 0 19 10.5t12 17.5zM563 394
l-1 10q-20 -6 -20 -14q0 -6 11 -6q10 0 10 10zM506 418q7 4 7 32v12q-1 28 -6 28q-2 0 -3 -4q-10 -26 -12 -31q-6 -15 -6 -29t6 -14q4 0 14 6zM574 472q-5 21 -12 28q-5 5 -4 -4q1 -4 2 -10q2 -7 7.5 -18t7.5 -11q1 0 1 3q0 1 -0.5 2.5t-1 4.5t-0.5 5zM622 501
q-10 15 -20 15q-4 0 -4 -4q0 -7 10 -20q7 -8 12 -8q6 0 6 6t-4 11zM265 448q2 40 2 58q0 39 -3 48q-5 14 -6 14q-2 0 -8 -24q-13 -46 -13 -143q0 -31 3 -37q4 -7 8 -7q13 0 17 91zM429 565q-41 19 -101 19q-16 0 -24 -3q-10 -4 -10 -67q0 -57 -6 -115l-6 -52l41 3
q31 3 69 18.5t51 30.5q8 13 19 64q8 35 8 51q0 19 -9 30t-32 21zM224 652q22 11 64 11q38 0 83 -9q64 -14 182 -80q48 -24 63 -30q31 -12 42 -30q8 -11 8 -20t-5 -19q-8 -19 -29 -36q-16 -11 -26.5 -27t-10.5 -27q0 -6 4 -9q9 -6 36 -6q32 0 37 7q4 6 12 6q12 0 12 -9
q0 -26 -58 -26h-15l-52 2l-37 -34q-39 -35 -54 -45l-17 -10l52 -86q89 -147 89 -162q0 -5 -5 -13q-5 -5 -9 -5q-10 0 -22 12.5t-12 19.5q0 13 -6 17h-1q-3 0 -3 -24q0 -44 7 -72q1 -4 1 -10q0 -30 -28 -30q-14 0 -42 30.5t-52 71.5q-25 42 -70 110.5t-50 71.5h-2
q-7 0 -37 -7q-28 -7 -34.5 -19t-14.5 -71q-5 -35 -20 -47q-14 -14 -16 -34q0 -5 -0.5 -16t-1.5 -14q0 -11 -19 -34q-17 -20 -34 -20h-3q-27 4 -27 48q0 27 7 65q22 121 22 179q0 33 -4 65q-7 70 -11 78q-1 3 -4 3q-8 0 -8 -24q0 -8 1 -12q0 -1 0.5 -3.5t0.5 -4.5
q0 -22 -9 -54q-12 -40 -12 -105v-15q0 -59 -7 -108q-5 -37 -9 -47t-13 -10q-11 0 -11 10q0 2 2 20q5 39 10 163q7 137 14 185q8 59 8 109q0 61 -10 76q-11 14 -11 48t11 38q3 1 8 1q11 0 19.5 -8.5t10.5 -22.5q3 -15 4 -15t4 11q5 17 18 14q8 -2 11 -19t4 -85q2 -101 7 -136
l5 -36l9 53q6 44 23 97q13 39 15 73v10q0 12 -2.5 16t-11.5 6q-17 3 -17 14q0 21 47 45z" />
    <glyph glyph-name="s" unicode="s" horiz-adv-x="604" 
d="M372 -26q0 3 -3 3q-4 0 -4 -3q0 -4 4 -4q3 0 3 4zM343 0q8 -3 13 1q2 2 -2 3h-7q-6 0 -7 -1t1 -2q1 -1 2 -1zM403 54q-5 6 -12 6q-12 0 -23 -10q-10 -8 -9.5 -8.5t11.5 -1.5q34 0 34 11q0 2 -1 3zM128 16q2 1 2 5q0 7 -18 25q-17 17 -22 17q-3 0 -3 -4q0 -12 14 -28
t23 -16q3 0 4 1zM456 108q0 38 -12 38q-4 0 -8 -4q-8 -8 -8 -26t8 -26t12 -8q8 0 8 26zM400 182q-8 6 -29 11l-22 6l23 -24q20 -20 28 -20h1q6 4 5.5 13.5t-6.5 13.5zM328 179q-26 19 -33 19q-2 0 -2 -1q0 -4 14 -23q18 -24 36.5 -40.5t27.5 -17.5q8 0 8 6q0 20 -51 57z
M311 290q-31 21 -45 21q-5 0 -5 -3q0 -10 30 -34q43 -36 93 -54q8 -3 10 -3q1 0 1 1q0 3 -21 23q-32 29 -63 49zM319 380q-36 13 -51 13q-14 0 -14 -23q0 -17 6 -24t34 -22q45 -25 82 -55q38 -31 46 -31q6 0 6 21q0 31 -15 56q-25 41 -94 65zM192 431q0 32 -8 32
q-6 0 -13 -13t-7 -39q0 -24 7 -28q2 -1 5 -1q16 0 16 49zM372 516q0 6 -25 -4q-16 -7 -16 -9q0 -1 2 -1q6 0 18 4q21 7 21 10zM391 521q3 5 -5 5t-5 -5q5 -3 10 0zM407 529q0 4 -4 4q-3 0 -3 -4q0 -3 3 -3q4 0 4 3zM506 611q-13 11 -40 11q-77 0 -174 -57q-32 -19 -32 -24
q0 -1 2 -1q10 0 60 18q44 16 66 20t66 5q65 0 65 11q0 6 -13 17zM390 638q39 12 64 12h3q24 0 49.5 -11.5t37.5 -27.5q21 -29 21 -44q0 -20 -34 -20q-27 0 -77 -24q-54 -25 -103 -42q-83 -28 -83 -52q0 -6 37 -19q51 -17 76.5 -32t46.5 -41q20 -25 24 -37.5t4 -48.5
q0 -38 3 -45.5t21 -18.5q29 -17 29 -49q0 -13 -5 -36q-5 -22 -5 -28q0 -11 13 -25l16 -16l-31 -30q-32 -31 -103 -57q-64 -24 -98 -24q-24 0 -40 1q-74 4 -112.5 21t-65.5 58q-18 26 -23.5 42t-7.5 48q-1 11 -1 27q0 24 10 34q11 11 20 11q12 0 18 -17q4 -15 19 -22
q44 -16 57 -57q5 -18 10.5 -24t21.5 -9q14 -2 19 -2q26 0 26 20q0 18 9 18q7 0 13 -13q7 -18 23 -18q14 0 39 20l24 21l-22 21q-26 23 -49.5 55t-30.5 54q-5 20 -32.5 58t-31.5 46q-8 18 -34 48q-21 25 -21 51v7q1 35 15.5 59t57.5 60q83 70 183 98z" />
    <glyph glyph-name="t" unicode="t" horiz-adv-x="798" 
d="M315 85q17 170 17 199q0 13 -2 13q-5 0 -16 -92t-10 -131l1 -52zM311 455q-24 8 -46 8h-21l19 -10q32 -17 65 -17q10 0 10 4q0 8 -27 15zM422 488q0 3 -12 3q-24 0 -27 -6q-1 -2 -1 -4q0 -8 11 -8q8 0 15 4q14 7 14 11zM341 491q-4 4 -28 8t-42 4q-16 0 -16 -3
q0 -4 33 -12t49 -8q6 0 7 1q4 3 -3 10zM475 528q3 5 -5 5t-5 -5q5 -3 10 0zM453 525q-7 7 -45 11q-18 2 -21 2q-8 0 -8 -2q0 -6 46 -14q18 -2 21 -2q8 0 8 3q0 1 -1 2zM68 638q19 6 48 6q61 0 194 -28q144 -29 171 -32q47 -5 152.5 -29.5t115.5 -33.5q9 -9 9 -14
q0 -9 -20 -9q-1 0 -5 0.5t-6 0.5q-3 0 -7.5 0.5t-6.5 0.5q-14 0 -15 -12q-2 -8 -6.5 -10.5t-22.5 -2.5h-18q-28 1 -76 8.5t-81 7.5h-45q4 -7 11.5 -21t10.5 -21h69q69 0 69 -9q0 -13 -15.5 -20t-54.5 -12q-11 -1 -26 -3t-24 -3t-12 -1q-7 0 -8.5 -36.5t-1.5 -175.5
q0 -141 -2 -178.5t-10 -45.5q-9 -8 -12.5 -8t-11.5 8q-11 11 -11 92q0 71 1 128v77q0 132 -8 132q-4 0 -13 -40q-9 -41 -9 -177q0 -85 5 -115q2 -9 2 -20q0 -9 -3 -9q-7 0 -27 36l-19 35l-9 -65q-9 -66 -16 -83l-8 -17l-16 19q-15 17 -20 55q-1 7 -1 31q0 122 18 228
q7 43 9 90q0 5 0.5 12.5t0.5 10.5q0 22 -11.5 29t-75.5 30q-66 24 -68 35q-1 4 5 9.5t16 10.5q16 8 16 11q0 6 -61 12q-65 6 -65 27q0 2 2 6q3 4 23 4q30 0 104 -9l32 -3l-42 20q-45 23 -80 29q-55 12 -55 28q0 8 21 14z" />
    <glyph glyph-name="u" unicode="u" horiz-adv-x="731" 
d="M408 -35q0 3 -9 4q-9 0 -10 -2l2 -2q8 -2 17 0zM344 1q0 4 -4 4q-3 0 -3 -4q0 -3 3 -3q4 0 4 3zM291 8q-13 5 -35 5q-34 0 -34 -7l1 -1q13 -13 63 -13q16 0 16 4q0 8 -11 12zM537 73q1 2 1 5t-3 3q-7 0 -38 -21q-21 -13 -35 -16.5t-49 -3.5l-52 -1l20 -17q17 -17 31 -17
q13 1 68 30.5t57 37.5zM237 78q-13 10 -21 10q-6 0 6 -10q15 -11 20 -11q8 0 -5 11zM174 142q-21 33 -27 33q-5 0 -5 -17q0 -20 11 -41.5t21 -21.5q14 0 14 13q0 12 -14 34zM240 140q0 15 -6.5 30t-16.5 15q-4 0 -4 -9q0 -30 16 -46q7 -7 9 -5t2 15zM590 256q3 27 3 62v17
l-3 34l-29 -54q-29 -51 -41 -91q-9 -30 -30 -65.5t-38 -48.5q-21 -16 -21 -21q0 -2 5 -2q4 0 24 5q34 11 53 26t44 52q18 26 24.5 43t8.5 43zM189 302q-22 71 -27 71q-6 0 -6 -51q0 -43 13.5 -93.5t24.5 -50.5q13 0 13 29q0 35 -18 95zM591 477q1 6 1 19q0 22 -3.5 42.5
t-7.5 20.5l-2 -2q-4 -6 -14.5 -81t-10.5 -96q0 -4 1 -4q5 0 19.5 39.5t16.5 61.5zM597 690q18 24 31 24q6 0 6 -8q0 -5 -1 -8q-5 -16 -9 -42q-2 -16 -2 -17q0 -9 9 -9q12 0 12 -43q2 -44 18 -136q4 -31 9 -33h1q9 0 9 51q0 39 -5 64t-5 46q0 14 3 14q5 0 12 -26
q9 -30 9 -112q0 -72 -8 -130q-9 -56 -40.5 -152t-53.5 -133q-18 -30 -60.5 -66t-81.5 -54q-19 -9 -37 -9q-22 0 -48 16q-16 10 -91 15q-51 2 -68 6.5t-42 20.5q-37 25 -43 36q-4 12 -31 24q-18 7 -21 13.5t-3 35.5q0 41 -10 64q-10 25 -10 26q0 3 3 3q1 0 9 -2q1 0 2 -1h2
q9 0 12.5 21.5t8.5 95.5q3 35 3 49q0 18 -8 18q-16 0 -16 12q0 11 10 24q14 20 14 34q0 12 -9 20q-21 16 -21 57q0 19 7 59q13 69 14 74q3 12 11 12q10 0 18 -22l7 -23l4 27q7 35 11 44t14 9q17 0 17 -13q0 -12 -10 -33q-15 -35 -18 -99l-2 -67l15 48q23 70 54.5 117
t55.5 47q8 0 21 -12t13 -20t-18 -17l-20 -9l20 -8q20 -8 20 -22t-19 -14q-19 -1 -25 -4t-12 -16q-8 -17 1 -17q5 0 19 -7q5 -3 5 -7q0 -6 -12 -18q-12 -13 -15.5 -27.5t-4.5 -64.5v-16q0 -176 78 -268q19 -22 38 -22q33 0 97 77q44 53 58 78q23 44 40 198q13 120 36 144
q11 12 11 26q0 7 -1 12q-1 4 -1 12q0 15 14 33z" />
    <glyph glyph-name="v" unicode="v" horiz-adv-x="689" 
d="M382 208q3 5 0 10q-2 2 -3.5 0.5t-1.5 -5.5t1.5 -5.5t3.5 0.5zM346 176q14 54 14 75q0 2 -1 2q-6 0 -21.5 -42.5t-21.5 -75.5q-4 -24 -4 -47q0 -31 8 -31q2 0 3 1q6 4 6 24q0 24 17 94zM395 243q4 11 2 24q-3 13 -7 -3q0 -2 -1 -5q-3 -11 -3 -17q0 -8 3 -8t6 9zM420 338
q10 44 10 47q0 1 -1 1q-5 0 -13.5 -25.5t-8.5 -41.5q0 -15 2 -15q3 0 11 34zM186 408q-11 21 -14 21q-2 0 -2 -9q0 -46 21 -120q5 -17 34 -149q18 -92 24 -104q1 -1 2 -1q3 0 3 14q0 47 -26 182t-42 166zM138 404q-25 99 -28 99t-3 -21v-5q0 -33 24 -113q29 -90 37 -90
q1 0 1 3q0 7 -31 127zM81 597q5 26 -2 26t-7 -29q0 -25 2 -25q3 0 7 28zM145 590q-10 42 -14 45l-2 1q-2 0 -2 -9q0 -26 14 -84q11 -43 12 -43t1 19q0 38 -9 71zM105 661q7 17 18 17q12 0 24 -19.5t19 -52.5q3 -17 37 -111q27 -71 56 -185q24 -95 29 -100h1q6 0 30 49
q47 101 101 210q75 154 94 161q21 7 28 7q13 0 13 -12q0 -15 -21 -47q-25 -38 -25 -63t-18 -77q-14 -37 -14 -53q0 -4 9 9q14 20 34 57q29 52 71 112t50 60q9 0 9 -16q0 -14 -6.5 -29t-16.5 -21q-6 -4 -6 -32q0 -17 -14 -43t-62 -100q-68 -106 -90 -148.5t-67 -155.5
q-51 -127 -56 -134q-8 -12 -16 -12q-12 0 -21 21l-8 18l-20 -14q-21 -14 -27 -14q-10 0 -17 19t-23 78q-15 61 -39 128q-23 64 -62.5 202.5t-47.5 179.5q-6 46 -6 75v8q1 21 4.5 28t13.5 9q15 1 19 -12q5 -14 9 -14q6 0 14 17z" />
    <glyph glyph-name="w" unicode="w" horiz-adv-x="856" 
d="M237 118q2 11 0 21q-2 -3 -3 -13l2 -11zM624 98q9 36 9 46q0 4 -1 4q-2 0 -13 -33q-18 -59 -18 -70q0 -4 2 -4l2 2q8 8 19 55zM642 168q0 3 -3 3q-4 0 -4 -3t4 -3q3 0 3 3zM309 168q0 3 -4 3q-3 0 -3 -3t3 -3q4 0 4 3zM316 182q0 3 -4 3q-3 0 -3 -3q0 -4 3 -4q4 0 4 4z
M520 169q-21 35 -27 35q-2 0 -2 -4q0 -5 1 -9q7 -25 23.5 -58.5t21.5 -33.5h1q4 3 4 11q0 20 -22 59zM263 194q4 19 -2 19t-10.5 -11.5t-4.5 -25.5q0 -10 3 -10q7 0 14 28zM212 237q0 -6 1 -7l3 3q2 9 0 13t-4 -2v-7zM614 196q12 41 12 55q0 2 -1 2q-7 0 -22.5 -36
t-15.5 -52q0 -21 4 -21q8 0 23 52zM344 251q0 4 -4 4q-3 0 -3 -4q0 -3 3 -3q4 0 4 3zM189 267q3 7 0 12q-4 6 -5 0v-7q0 -8 2 -8zM601 297q11 49 11 59v1q-3 0 -37 -120q-3 -10 0 -9q1 0 4 3q7 5 22 66zM619 368q3 5 0 10q-2 2 -3.5 0.5t-1.5 -5.5t1.5 -5.5t3.5 0.5z
M440 388q-15 28 -21 28q-5 0 -8 -21q0 -2 -0.5 -6t-0.5 -6q0 -34 16 -34q3 0 5 1q10 3 21 -9q6 -8 8 -9l-3 13q-7 23 -17 43zM642 439q0 3 -3 3q-4 0 -4 -3q0 -4 4 -4q3 0 3 4zM647 458q3 5 0 10q-2 2 -3.5 0.5t-1.5 -5.5t1.5 -5.5t3.5 0.5zM166 383q-18 88 -23 88
q-1 -1 -1 -3q0 -5 3 -24q6 -37 20 -93.5t17 -56.5q1 0 -4 27.5t-12 61.5zM140 483q3 8 -1 13q-2 2 -3 -2v-7q0 -6 1 -7t2 1q1 1 1 2zM674 549q2 6 2 17t-2 11q-3 0 -7 -15q-2 -7 -2 -18q0 -9 2 -9q4 0 7 14zM685 667q6 12 14 12q7 0 7 -21q0 -59 -43 -208q-31 -109 -31 -123
q0 -4 10 14q38 72 49 117q9 34 14 37q4 2 5 2q6 0 6 -14q0 -23 -15 -68q-35 -108 -35 -117l1 -2q3 0 32 61q28 63 37 72q10 12 22 52q13 45 29.5 82t23.5 37h1q6 -2 6 -8q0 -13 -47 -153q-35 -103 -71.5 -225.5t-36.5 -134.5q0 -5 -7 -26t-15.5 -42.5l-17 -43t-9.5 -23.5
q-4 -12 -12 -12q-12 0 -26 32t-58 78q-75 83 -103 198q-13 50 -17 50q-5 0 -26 -54t-21 -67q0 -17 -14 -34q-16 -19 -36 -64t-20 -59q0 -18 14 -48t14 -44q0 -6 -3 -6q-7 0 -44 41.5t-42 53.5q-4 13 -6 13q-1 0 -2 -22q-2 -30 -7 -30q-10 0 -26.5 46.5t-30.5 116.5
q-51 249 -89 372q-14 45 -14 83q0 19 5 19l1 -1h1q7 -4 7 -20q0 -15 24 -102q31 -115 63 -256q40 -176 44 -176q1 0 1 4q0 14 -11 96q-17 122 -80 384q-4 13 -4 33q0 24 6 43t14 19q6 0 10 -13t18 -27q8 -10 39.5 -131.5t44.5 -193.5q5 -22 11 -21q5 5 46 76q40 69 70 108
t34 56q6 19 25 41q16 19 24 19t8 -13q0 -7 -5 -24q-4 -14 -4 -19q0 -20 50 -126q57 -117 61 -117q10 0 85 252q43 148 52 169z" />
    <glyph glyph-name="x" unicode="x" horiz-adv-x="683" 
d="M75 78q0 3 -4 3q-3 0 -3 -3q0 -4 3 -4q4 0 4 4zM551 74q-11 21 -22 21q-6 0 -6 -5q0 -12 23 -32q10 -9 13 -9q2 0 2 2q0 6 -10 23zM123 99q0 8 -14 -9q-13 -16 3 -3q11 9 11 12zM496 69q1 1 1 3q0 8 -10.5 22.5t-17.5 14.5q-5 0 -5 -9q0 -8 11.5 -20t18.5 -12q1 0 2 1z
M161 95q43 43 43 58q0 3 -2 5t-4 2q-7 0 -40 -55l-16 -27zM172 179q0 5 -2 5q-4 0 -15 -21l-11 -23l13 17q15 17 15 22zM487 177q-4 15 -10 19q-2 1 -4 1t-2 -2q0 -8 10 -21q7 -10 8 -9t-2 12zM223 341q0 -1 1 -1q4 0 10 10t6 14q0 2 -1 2q-2 0 -11 -10q-9 -11 -5 -15z
M416 342q-2 6 -18 27l-11 14l7 -14q2 -6 18 -27l11 -14zM199 405q-24 25 -30 25q-2 0 -2 -3q0 -6 10 -23q19 -36 27 -36q4 0 7 8q1 1 1 5q0 11 -13 24zM168 604q5 19 16 19q10 0 17 -15q22 -42 58 -59q19 -8 35 -20q7 -5 11 -5q10 0 48 46q42 53 57 53q5 0 5 -8
q0 -9 -31 -60q-29 -47 -29 -57q0 -2 2 -2q5 0 30 35q36 50 55 50q4 0 7 -3q2 -2 2 -4q0 -5 -45 -64q-18 -24 -18 -25t3.5 3t12 13.5t19 21.5t28.5 33q35 39 43 39q5 0 5 -10q0 -11 6 -11q7 0 7 -5q0 -12 -52 -89l-54 -79l22 -33q18 -26 99 -193q72 -148 81 -148
q1 0 -0.5 7.5t-5 17t-6.5 15.5q-11 19 -11 30q0 5 3 5q4 0 8 -3q8 -5 24.5 -40t20.5 -56q3 -12 3 -17q0 -9 -16 -9q-18 0 -34 24q-14 21 -25 21q-4 0 -7 -1q-1 0 -3.5 -0.5t-3.5 -0.5q-13 0 -22 9q-11 9 -15 9q-3 0 -3 -4q0 -7 11 -26q14 -25 14 -45q0 -12 -6 -12h-2
q-8 2 -49 61q-31 46 -108 123.5t-93 77.5q-11 0 -56 -60q-37 -49 -101 -119.5t-72 -70.5q-6 0 -6 6q0 13 21 40q19 26 19 32q0 2 -4 2l-10 -2q-10 -2 -11.5 -0.5t0.5 11.5q4 15 -5 15q-10 0 -10 11q0 8 29.5 58t52.5 82q13 20 13 27q0 1 -0.5 2t-0.5 2q0 14 21 48l25 41
l-23 43q-22 43 -55 97q-34 52 -34 60t9 8q12 0 19 -10q8 -10 15 -10q5 0 28 -17q5 -3 12.5 -8t12.5 -8.5t8 -4.5q2 0 3 -1l2 -1h1q0 7 -51 55q-28 27 -28 30t10 3q18 0 55 -36l37 -37l-22 42q-19 37 -19 51q0 7 1 10z" />
    <glyph glyph-name="y" unicode="y" horiz-adv-x="644" 
d="M258 167q1 20 1 49q0 40 -5 40q-2 0 -5 -9q-18 -55 -18 -140q0 -52 9 -52q5 0 9 11q5 11 9 101zM217 338q0 8 -6 11q-7 5 -7 -3q0 -6 7 -11q6 -3 6 3zM462 368q30 32 48 53t16 21q-7 -1 -74.5 -48t-81.5 -60q-11 -11 -11 -24q0 -10 1 -16q4 -21 8 -21q3 0 11 8
q21 18 83 87zM236 434q-32 60 -43 60q-3 0 -3 -4q0 -12 10 -20q11 -9 11 -17t20 -35q17 -21 19 -21q1 0 1 1q0 6 -15 36zM447 530q0 8 -8 -2l-3 -4l-2 -4l4 2q9 5 9 8zM555 689q30 25 42 25q7 0 7 -10q0 -5 -1 -9q-4 -20 -15 -31q-9 -10 -9 -38q0 -21 6 -27q4 -6 4 -9
q0 -22 -74 -81q-42 -34 -70.5 -63.5t-28.5 -39.5q0 -4 3 -4q11 0 67 40q57 42 76 50q8 4 18 4q20 0 20 -13q0 -7 -78 -89q-97 -99 -114 -119l-36 -38l-4 -127q-2 -87 -4.5 -110.5t-12.5 -35.5q-8 -11 -17.5 -14.5t-31.5 -3.5q-35 0 -46 -16t-23 -16q-10 0 -6 26q1 4 1 12
q0 25 -12 62q-11 37 -11 66q0 17 5 89l8 107l-19 29q-21 36 -59 127q-41 97 -64 118q-30 26 -30 48q0 8 5 18q7 13 15 13q13 0 26 -28q12 -26 29 -47l15 -18l-5 24q-6 27 -18 39q-11 13 -11 19q0 10 22 14h6q15 0 33 -14q16 -13 58.5 -74.5t48.5 -79.5q4 -15 13 -15
q11 0 69 57t72 82q44 77 82 77q22 0 49 24z" />
    <glyph glyph-name="z" unicode="z" horiz-adv-x="734" 
d="M205 -41q6 2 -2 3q-4 1 -10 1q-16 0 -15 -3l3 -1q11 -2 24 0zM326 -16h-13q-49 0 -49 -4l3 -2q21 -9 69 -9q42 0 42 8q0 7 -52 7zM156 -5q-18 4 -21 4q-13 0 -24 -17q-9 -14 -9 -20q0 -4 4 -4q10 0 50 23l16 9zM433 35q0 2 -104 4h-33q-76 0 -79 -6q-5 -7 -3 -9h2
q1 0 3.5 -0.5t5.5 -0.5q36 0 122 4.5t86 7.5zM186 42q0 6 -7 6t-16 -6t-9 -12q0 -3 4 -6q1 -1 4 -1q7 0 15.5 6.5t8.5 12.5zM447 71q0 3 -9 4q-10 0 -11 -2l2 -2q8 -2 18 0zM571 76q11 3 11 4q0 2 -18 2q-22 0 -42 -6q-11 -3 -11 -4q0 -2 18 -2q22 0 42 6zM223 119q2 3 4 8
t7.5 15.5t8.5 17.5l3 7q-3 0 -18.5 -16.5t-15.5 -24.5q0 -2 2 -4q7 -5 9 -3zM207 189q7 15 13 27.5t9 20t2 7.5q-6 0 -36 -51t-30 -61q0 -6 2 -6q9 0 40 63zM437 295q6 9 6 11q0 5 -27 -25q-15 -17 -15 -18t2 0.5t8 5.5q19 13 26 26zM395 338q20 40 20 53q0 2 -1 2
q-7 0 -49 -60q-44 -62 -72 -97q-23 -27 -23 -40q0 -3 2 -3q12 0 59.5 55.5t63.5 89.5zM386 407q3 5 5 9.5t2.5 7t-0.5 2.5q-4 0 -28.5 -37t-24.5 -43l1 -1q4 0 19.5 21.5t25.5 40.5zM459 466q9 8 5 12q-1 1 -2.5 0.5t-3 -3t-2.5 -5.5q-3 -7 -2.5 -7.5t5.5 3.5zM382 486
q0 3 -4 3q-3 0 -3 -3q0 -4 3 -4q4 0 4 4zM284 482q0 6 -35 6h-9h-44l49 -10q34 -8 54 -8h4l2 1q7 1 -1 2q-2 1 -4 1q-16 0 -16 8zM408 518q-3 10 -12 10t-18 -8l-2 -2q-9 -6 -5 -7q1 0 11 -1h5q12 0 17 2t4 6zM578 528q0 10 -11 10q-10 0 -10 -10q0 -11 10 -11q11 0 11 11z
M518 550q-11 2 -34.5 6.5t-28.5 5.5l-28 5l27 -15q26 -13 55 -13h8l36 3zM160 610q0 3 -9 4q-10 0 -11 -2l2 -2q8 -2 18 0zM48 640q3 7 17 7q25 0 228 -33q291 -46 311 -74q5 -7 5 -13q0 -22 -39 -31q-29 -9 -40 -29q-12 -22 -45 -66q-26 -36 -26 -43q0 -2 1 -2q9 0 47 49
q12 17 22 9q4 -4 4 -10t-9 -24q-22 -40 -59.5 -84t-72.5 -70q-112 -83 -112 -109v-2l1 -2q3 -11 12 -13.5t46 -3.5q4 0 31.5 -0.5t48.5 -0.5q17 0 57 0.5t60 0.5q33 1 79 1q65 0 74 -10t1 -21q-12 -16 -126 -25q-74 -5 -95 -14l-21 -8l18 -14q12 -11 28 -11q6 0 10 1
q67 10 74 10q12 0 12 -6q0 -12 -11 -16t-49 -9q-36 -5 -49 -9t-19 -13q-21 -29 -124 -29q-26 0 -40 1q-71 5 -145 9l-72 5v20q0 22 8 38q5 10 5 15q0 7 -17 20l-21 17l18 14q16 13 24 15q3 1 1 1.5t-15 3.5q-20 4 -20 16q0 11 17 12q32 4 42 10.5t21 30.5q11 26 73 116.5
t97 132.5q24 29 24 37q0 3 -92 21q-108 19 -136 26.5t-28 15.5q0 14 25 16q22 1 25 16q3 12 20 12t73 -14q39 -10 56 -10t36 5q37 9 37 14t-16 9.5t-101 20.5q-177 36 -188 54q-5 6 -1 17z" />
    <glyph glyph-name="nbsp" unicode="&#xa0;" 
 />
    <glyph glyph-name="afii10023" unicode="&#x401;" horiz-adv-x="572" 
d="M392 -61q-7 10 -33 10q-12 0 -21 -3q-2 0 -7.5 -2t-14 -4.5t-16.5 -4.5q-26 -6 -26 -8q0 -1 15 -6q28 -6 59 -6q48 0 48 15q0 5 -4 9zM286 -44q38 10 38 12q0 1 -7 1h-7q-106 -2 -106 -14q0 -4 13 -7q2 -1 9 -1q20 0 60 9zM265 0q-19 6 -60 6q-45 0 -49 -6q-2 -4 -2 -5
q0 -7 23 -7q16 0 46 3q46 3 46 6q0 2 -4 3zM433 13q-9 6 -23 6q-17 0 -28 -7q-12 -7 -12 -13q0 -7 17 -7q15 0 37 8q6 2 9 3.5t4 3t0 3t-4 3.5zM316 37q-18 3 -50 3h-12q-26 0 -26 -2t9 -5q31 -12 85 -12q20 0 20 4q0 6 -26 12zM179 113q3 5 0 10q-2 1 -3.5 0t-1.5 -5
t1.5 -5t3.5 0zM186 145q3 8 -1 13q-2 2 -3 -2v-7q0 -6 1 -7t2 1q1 1 1 2zM195 184q0 4 -4 4q-3 0 -3 -4q0 -3 3 -3q4 0 4 3zM146 195q0 12 -20 27q-14 10 -19 10q-4 0 -7 -8q-4 -13 -8 -83q-1 -17 -1 -41q0 -32 9 -32q4 0 16 7q6 4 18 52t12 68zM132 331q-9 60 -15 60
q-4 0 -8.5 -37.5t-4.5 -67.5q0 -15 1 -20l2 -23q6 4 17.5 13t17.5 14zM186 415q-16 4 -26 4q-9 0 -11.5 -5.5t-2.5 -20.5q2 -33 10 -72q7 -38 10 -38q2 0 7 13q3 7 22 68l12 47zM223 447q0 6 -40 6q-31 -1 -31 -3h1q1 -1 4 -1.5t6 -1.5q24 -6 42 -6t18 6zM436 517
q-12 6 -59 6q-35 0 -35 -2l17 -5q27 -6 57 -6q24 0 24 4q0 2 -4 3zM118 556q0 8 13 8q10 0 17 -1q8 -1 169.5 -7t174.5 -9q14 -3 15.5 -5t-6.5 -8q-11 -9 -11 -25v-7q0 -17 -13 -25q-10 -7 -11 -11.5t4 -12.5q4 -8 4 -11q0 -16 -35 -16q-28 0 -59 10t-81 10q-34 0 -34 -6
t13.5 -9.5t84.5 -15.5q59 -10 78.5 -17t19.5 -18q0 -9 -9 -9q-6 0 -86 17q-77 17 -96 17q-20 0 -23 -15q-12 -56 -12 -90q0 -19 4 -22q7 -5 75 -5q54 0 54 2q0 1 -56 7q-44 5 -44 11t39 6q57 0 87 -9q31 -8 31 -27q0 -12 -14.5 -20t-36.5 -8q-14 0 -22 2q-54 12 -95 12
q-17 0 -17 -3q0 -9 34 -9q41 -3 92 -13q40 -8 51.5 -12.5t11.5 -13.5q0 -14 -10 -14q-22 1 -97 6.5t-87 7.5q-3 1 -8 1q-7 0 -10.5 -10t-8.5 -47q-5 -30 -5 -49q0 -13 5 -16q7 -5 65 -11q121 -10 197 -33q25 -8 25 -20q0 -8 -14 -12q-9 -2 -20 -19.5t-23 -18.5
q-15 -1 -16 -23q0 -5 -0.5 -16t-1.5 -14q-1 -8 -26 -15.5t-49 -7.5q-23 0 -74 14q-53 14 -106 14q-54 0 -54 11q0 10 24 10t24 7t-22 13q-23 6 -37 31q-14 26 -22 26t-10 -29q-1 -36 -3 -44t-10 -8q-14 0 -14 65q0 66 12.5 174t19.5 137q8 37 8 63q0 11 -2 31q-1 9 -1 25
q0 26 4 33q9 17 34 24t83 7q43 0 111 -3q48 -3 69 -3h7q-1 1 -2 1q-220 46 -254 56q-12 3 -12 14zM475 630q0 5 -5 5q-8 0 -23 -5l-18 -5l16 -6q5 -2 13 -2q17 0 17 13zM492 709q-13 11 -22 11q-16 0 -16 -18q0 -5 11.5 -9.5t21.5 -4.5q8 0 11 3q6 6 -6 18zM424 732
q25 23 42 23t37 -15t24 -31q1 -4 1 -13q0 -32 -24.5 -67t-49.5 -35q-18 0 -33.5 11.5t-15.5 24.5q0 12 -8 28q-5 10 -5 18q0 26 32 56zM202 710q0 3 -4 3q-3 0 -3 -3q0 -4 3 -4q4 0 4 4zM172 700q-2 10 -11 12q-4 1 -5 -1.5t1 -7.5q5 -13 13 -11q4 1 2 8zM125 742
q5 8 15.5 10.5t43.5 2.5h52l8 -29q4 -15 4 -31q0 -32 -23 -52q-19 -14 -35 -14q-24 0 -48 24q-25 25 -25 57q0 16 8 32z" />
    <glyph glyph-name="afii10017" unicode="&#x410;" horiz-adv-x="690" 
d="M494 90q0 34 -5 52q-3 12 -4 12q-2 0 -2 -26q0 -32 6 -52l3 -9q2 0 2 23zM186 145q14 26 14 34q0 5 -5 5q-6 0 -15.5 -9t-15.5 -23q-11 -21 -11 -33q0 -7 4 -7q9 0 29 33zM160 262q0 3 -4 3q-3 0 -3 -3q0 -4 3 -4q4 0 4 4zM240 269q6 18 6 27q0 4 -1 4q-10 0 -25 -25
t-15 -40q0 -5 1 -6q1 -4 5 -4q14 0 29 44zM461 287q0 19 -7 23q-1 1 -3 1q-4 0 -4 -9q0 -11 7 -23q6 1 7 8zM506 314q-4 6 -10 6.5t-10 -5.5q-1 -1 -1 -5q0 -15 10 -47t19 -41q7 -7 7 -11.5t-5 -14.5q-5 -8 -5 -22q0 -35 28 -108q12 -32 15 -32t3 9q0 21 -22.5 141
t-28.5 130zM419 307q-7 13 -35 13h-13q-48 -1 -63.5 -9t-34.5 -42q-19 -33 -19 -44q0 -3 47 -3q125 0 133 5q6 3 -2 18q-7 12 -21 12q-4 0 -26 -2q-47 -4 -62 -8q-14 -2 -15 -2q-8 0 -8 12q0 29 76 33q11 0 23 1t19 1l6 1v1q0 2 -1.5 5.5t-3.5 7.5zM394 378q1 1 1 5
q0 12 -10.5 41.5t-13.5 29.5q-4 0 -25.5 -43.5t-21.5 -51.5q0 -2 3 -2q10 0 36 8t31 13zM304 428q15 45 15 56q0 3 -10 -14q-42 -73 -56 -114q-2 -4 -2 -6q0 -8 6 -8q18 0 47 86zM425 457q-14 67 -21 67q-11 0 -11 -24q0 -26 12 -61q17 -55 28 -55q4 0 4 4q0 14 -12 69z
M489 390q0 4 -28 79q-21 57 -26 57q-1 0 -1 -3q0 -7 16 -73q16 -64 27 -65q12 -2 12 5zM321 556q0 3 -4 3q-3 0 -3 -3q0 -4 3 -4q4 0 4 4zM391 571q0 9 -2 9q-3 0 -11 -22l-5 -18l7 8q11 15 11 23zM393 696q16 7 19 7q6 0 6 -12q0 -3 -2 -25l-5 -40l17 19q15 18 21 18
q4 0 4 -9q0 -4 -2 -18q-1 -5 -1 -15q0 -26 21 -96q34 -108 35 -113l9 -32l60 -3q70 -5 70 -14q0 -6 -47 -12q-35 -3 -35 -11q0 -5 23 -5q15 0 28.5 -11.5t13.5 -22.5q0 -3 -1 -5q-4 -10 -16 -10q-16 0 -19 14q-4 14 -17 14q-13 -1 -18 -4t-5 -14q0 -16 15 -70
q19 -74 25 -164q5 -129 26 -129q4 0 7 3q10 9 15 -10q2 -10 2 -14q0 -18 -20 -18q-11 0 -22 14.5t-17 37.5q-4 16 -29 44.5t-28 33.5q-7 11 -8 4v-16q-1 -16 -7.5 -28t-14.5 -12q-3 0 -6 3q-6 6 -19 77q-12 69 -18.5 85t-23.5 16t-17 7q0 6 17 11q18 5 18 9q0 7 -60 7h-12
q-61 -1 -61 -3q0 -1 44 -10q40 -7 40 -15q0 -5 -24 -5q-61 0 -107 16q-17 7 -24 7t-20 -17q-14 -18 -14 -27q0 -3 -25 -61q-24 -54 -24 -65q0 -14 -25 -53q-22 -34 -31 -34q-5 0 -5 8q0 12 9 37q10 31 10 39t-6 8q-5 0 -23 -37t-24 -61q-6 -19 -13 -19q-2 0 -5 3t-3 8
q0 33 63 194q23 62 25 85q0 21 9 30q5 5 3 9.5t-14 13.5q-19 15 -19 26q0 10 11.5 23t20.5 13t29 18q13 11 17.5 21.5t6.5 35.5q2 27 26.5 107t35.5 98q5 7 7.5 6t8.5 -9t8 -8q3 0 10 17q11 26 23 26q8 0 13 -14q7 -18 10 -18q6 0 22.5 37.5t16.5 51.5q0 20 16 27z" />
    <glyph glyph-name="afii10018" unicode="&#x411;" horiz-adv-x="694" 
d="M366 -27q4 2 -3 3l-9 1q-12 0 -12 -2l3 -2q11 -2 21 0zM546 30q0 3 -3 3q-9 0 -42 -18q-27 -13 -27 -20q0 -1 1 -1h1q9 0 39.5 15.5t30.5 20.5zM261 78q-13 11 -19 11q-11 0 -11 -35q0 -26 11 -26q6 0 18 6q13 7 13 20q0 14 -12 24zM351 90q-14 7 -18 7t-14.5 -16.5
t-10.5 -23.5q0 -8 7 -8q8 0 28 7q21 8 21 18q0 9 -13 16zM532 111q9 0 11 8q-1 5 -7 6q-11 0 -11 -7t7 -7zM564 187q-7 13 -20 27.5t-18 14.5q-1 0 -1 -2q0 -3 14 -32.5t18 -33.5q3 -3 10 3q7 4 -3 23zM479 202q-6 15 -11.5 21t-16.5 6q-14 0 -51 -14q-41 -14 -84 -17
q-53 -5 -65.5 -12.5t-12.5 -33.5q1 -20 5 -27.5t19 -17.5l23 -15l19 17q18 15 31 15q14 0 43 -20q23 -17 36 -17q14 0 48 24q29 20 29 45q0 18 -12 46zM175 234q0 3 -10 6q-4 2 -6 2q-5 0 -8 -9.5t-12 -55.5q-3 -15 -5 -23q-14 -70 -29 -91q-20 -27 -20 -74q0 -18 6 -18
q10 0 24.5 8.5t22.5 18.5q8 11 13 68q4 58 14 111q10 50 10 57zM434 259q-8 5 -45 5q-43 -1 -67 -12q-8 -4 -38 -4q-28 0 -28 -11q0 -13 32 -13q20 0 55 6q94 16 94 25q0 3 -3 4zM553 279q-21 13 -31 13q-3 0 5 -6q4 -2 12 -7q21 -13 32 -13q3 0 -4 4q-2 2 -8 5zM179 295
q4 11 2 31q-1 12 -3 12q-1 0 -5 -20q-3 -14 -3 -22q0 -10 3 -10t6 9zM147 402q0 3 -3 3q-4 0 -4 -3q0 -4 4 -4q3 0 3 4zM152 435q2 11 0 21q-3 6 -3 -12q0 -12 1 -12zM159 470q3 5 0 10q-2 2 -3.5 0.5t-1.5 -5.5t1.5 -5.5t3.5 0.5zM440 519q8 -3 13 1q2 2 -2 3h-7
q-6 0 -7 -1t1 -2q1 -1 2 -1zM189 577q0 10 -10 10q-11 0 -11 -21t7 -21q5 0 9.5 10.5t4.5 21.5zM391 586q-89 19 -118 19q-14 0 -17 -4q-4 -7 7 -7q10 0 17 -18q4 -10 9.5 -13t20.5 -3h14q21 0 55.5 3t60.5 5.5t26 3.5h-2q-36 5 -73 14zM436 610q0 3 -9 4q-9 0 -10 -2l2 -2
q8 -2 17 0zM209 663q20 10 63 10q31 0 53 -1q98 -4 172 -14l81 -12l-2 -20q-2 -21 9 -28q10 -8 14 -33q2 -8 2 -18q0 -9 -13 -9q-12 0 -12.5 -2t9.5 -12q13 -14 4 -23q-13 -13 -84 -13q-40 0 -78 6q-60 9 -118 9q-41 0 -46 -6q-3 -7 -9 -84l-4 -78h20q62 -1 167.5 -9.5
t129.5 -15.5q38 -11 62 -35l24 -24l-3 -58q-2 -43 -8 -59t-39 -64q-31 -45 -44.5 -58.5t-42.5 -27.5q-46 -21 -117 -35q-53 -10 -75 -10t-46 5t-41 5q-15 0 -39 -10q-27 -11 -61 -11q-48 0 -77 18q-17 10 -17 28q0 3 2 31q8 69 15 109q7 44 22 184.5t19 197.5q2 25 16 68
t24 56q9 10 21 -2q7 -7 11 -7q3 0 6 17q6 23 30 35z" />
    <glyph glyph-name="afii10019" unicode="&#x412;" horiz-adv-x="710" 
d="M432 15l30 11h-39q-44 -2 -70 -5l-31 -5l40 -6q22 -2 29 -2q21 0 41 7zM577 58q0 11 -8 11q-12 -1 -35 -15t-31 -26q-30 -44 -117 -44q-63 0 -129 23q-36 13 -45 13q-4 0 -4 -2l2 -4q5 -8 64 -27t107 -27q63 -10 87 -10q38 0 59 18q16 14 33 44.5t17 45.5zM580 232
q-15 29 -24 29q-8 0 -8 -19q0 -27 -5 -82q-4 -29 -4 -53q0 -10 1 -11q2 -2 4 -2q9 0 25.5 11t22.5 21q5 10 5 28q0 42 -17 78zM451 285q-49 7 -85 7q-40 0 -65 -7q-9 -4 -38 -4q-16 0 -23 1l-39 3l-3 -29q-5 -37 -16 -97q-9 -46 -9 -62q0 -10 4 -16q9 -11 73 -18t133 -7
q90 0 105 12q12 11 21.5 48.5t9.5 75.5q0 16 -1 23q-5 49 -14 56t-53 14zM486 314q0 7 -11 7t-4 -8q4 -5 9 -6q6 0 6 7zM635 249q-8 20 -43.5 45t-59.5 31q-16 4 -17 2t5 -8q8 -12 39 -25q28 -13 38.5 -26t21.5 -50q10 -32 13 -32q2 0 7 8q7 13 7 22q0 11 -11 33zM330 330
q3 5 -5 5t-5 -5q5 -3 10 0zM448 328q0 13 -18 13q-14 0 -21 -9q-9 -11 2 -15q5 -2 14 -2q23 0 23 13zM165 388q-8 -8 -10 -8q-5 0 -6 29q-1 28 -6 28q-4 0 -9 -25.5t-8.5 -68t-3.5 -83.5q0 -79 6 -82h1q8 0 20.5 52t12.5 85q0 10 -1 13q-1 4 -1 12q0 13 7 24q12 16 12 26
q0 4 -3 4q-4 0 -11 -6zM168 482q4 7 -3 7t-11 -7t2 -7q8 0 12 7zM486 473q0 19 -7 30q-5 6 -6 5.5t-1 -10.5q0 -15 -15 -58q-11 -31 -11 -47t11 -16q6 0 17.5 38t11.5 58zM410 530q-8 15 -16 15q-6 0 -6 -11q0 -17 -31 -79q-30 -62 -30 -68h2q10 0 40 5q39 8 45 24
q4 12 4 46q0 54 -8 68zM336 572q-32 8 -46 8q-22 0 -31 -15q-7 -10 -19.5 -73.5t-12.5 -84.5q0 -4 1 -5q3 -3 31 -5q3 0 7 -0.5t5 -0.5q12 0 19 6.5t23 30.5t35 68.5t19 58.5q0 5 -31 12zM362 640q-21 9 -31 9q-3 0 -25 -4q-9 -1 -18 -8t-9 -12q0 -3 5 -3q11 0 34 7
q11 3 18 3q14 0 42 -14l28 -14l1 1l-8 10q-15 16 -37 25zM286 670q22 7 44 7q52 0 92 -47q59 -68 75 -91.5t16 -47.5q0 -17 -6 -47q-9 -52 -9 -61q0 -16 8.5 -22.5t37.5 -18.5q72 -31 98 -59t26 -75q0 -39 -19 -66q-23 -31 -47 -95q-26 -68 -55 -95t-79 -27q-24 0 -48 4
q-49 7 -125 28.5t-111 37.5q-34 17 -51 19q-15 2 -18 23q-3 23 -15 23q-8 0 -13 -11q-7 -15 -24 -15q-20 0 -20 37q0 48 38 264q19 102 21 113q4 20 4 28q0 10 -4 22q-2 6 -2 14q0 29 14 71.5t26 44.5q14 2 19 -9q8 -12 19 -18q3 -2 9 -2q11 0 42 30q33 33 57 41z" />
    <glyph glyph-name="afii10020" unicode="&#x413;" horiz-adv-x="572" 
d="M279 463q3 5 -5 5t-5 -5q5 -3 10 0zM412 470q3 5 -5 5t-5 -5q5 -3 10 0zM188 463q3 5 0 10q-2 1 -3.5 0t-1.5 -5t1.5 -5t3.5 0zM120 528q0 3 -4 3q-3 0 -3 -3q0 -4 3 -4q4 0 4 4zM171 628q6 6 30 6q47 0 133 -19q131 -27 162 -32q15 -3 15 -13t-16 -14q-17 -5 -20 -21
q-1 -4 -1 -9q0 -6 4.5 -7t22.5 -3q17 -1 22.5 -4.5t5.5 -11.5q0 -14 -24 -22q-15 -5 -20 -9.5t-5 -13.5v-16l-106 -2q-106 0 -111 -5q-5 -6 -18 -111.5t-20 -206.5q-11 -157 -28 -157q-7 0 -21 22q-13 19 -13 62q0 9 2 77q1 32 1 80q0 28 -1 28l-13 -66l-26 -132l-13 -67
q-6 -17 -14 -17q-7 0 -7 14q0 15 -7 27q-2 3 -2 13q0 19 12 79q21 97 49 360q1 9 1 24q0 27 -10 27q-6 0 -14 -8q-10 -10 -19 -136q-13 -145 -24 -219q-18 -122 -18 -147q0 -15 7 -21q11 -9 11 -21q0 -9 -7.5 -17t-15.5 -8q-3 0 -5 1q-7 5 -7 46q0 51 11 114q9 50 9 97
q0 4 -0.5 12t-0.5 11q-1 7 -1 25q0 53 13 185q20 178 30 178q8 0 19 -10t11 -17q0 -6 3 -6q4 0 10.5 14.5t10.5 31.5q5 23 13 35z" />
    <glyph glyph-name="afii10021" unicode="&#x414;" horiz-adv-x="754" 
d="M615 106l23 33h-18q-11 0 -20 -10.5t-27 -46.5q-25 -54 -25 -59h1q11 0 66 83zM529 144q-11 0 -18 -5q-10 -5 -25 -36t-15 -43q0 -2 1 -3h1q8 0 39.5 34.5t31.5 43.5t-15 9zM158 136q-19 30 -23 30q-2 0 -2 -7q0 -12 11 -64q8 -36 19 -62.5t17 -26.5q2 0 2 15q0 7 -2 35
q-4 50 -22 80zM452 196q-40 6 -105 6q-44 0 -44 -4t57.5 -8.5t90.5 -4.5q17 0 21 2q3 2 -4 5q-6 2 -16 4zM601 198q-3 3 -47 7l-46 5l23 -21q23 -21 42 -21q14 0 22 14t6 16zM165 254q-4 -11 -4 -15l1 -1q2 0 7 9t5 13q0 2 -1 2q-2 3 -7 -6q0 -1 -1 -2zM189 290q0 3 -3 3
q-4 0 -4 -3q0 -4 4 -4q3 0 3 4zM228 372q2 6 2 8q0 4 -3 4q-8 0 -16 -18q-8 -16 -8 -24q0 -10 8 -6q5 4 8 12q1 5 9 24zM483 394q0 4 -3 4q-4 0 -4 -4q0 -3 4 -3q3 0 3 3zM414 366l-33 90l-23 1q-22 2 -28 -7q-8 -12 -56.5 -104.5t-48.5 -97.5q0 -6 200 -6q97 0 97 4
q0 10 -29.5 69.5t-37.5 64.5q-4 2 -5 2t-1 -4q0 -8 10 -54q6 -28 6 -41q0 -11 -4 -15q-9 -6 -11 0q0 2 -5 15t-14 37.5t-17 45.5zM540 444q-15 36 -26 36q-3 0 -3 -6t7.5 -20t7.5 -21q0 -2 -2 -8q-1 -1 -1 -6q0 -18 11.5 -55t20.5 -46q1 -1 2 -1q3 0 3 14q0 22 -6.5 59
t-13.5 54zM406 485q-15 46 -19 46q-2 0 -2 -9q0 -11 14.5 -53.5t18.5 -42.5q1 0 1 1q2 11 -13 58zM385 587q2 6 3 11t1 7v3q-1 0 -9 -9.5t-15.5 -22t-7.5 -18.5t6 -6q11 0 22 35zM458 581q-11 48 -18 48q-6 0 -17 -22q-9 -17 -9 -31q0 -9 5 -34q6 -28 26.5 -79t25.5 -51
q1 0 -1.5 9t-7.5 25t-11 34q-22 62 -22 73q0 6 9 6q10 0 21 -22q6 -16 9 -16q1 0 1 3q0 8 -11 57zM439 682q12 25 19 25q11 0 11 -47t10 -78t36 -67q33 -45 47 -87t17 -108q4 -60 7 -67q6 -11 38 -16q19 -3 22 -3q25 -4 25 -12q0 -7 -16 -14q-17 -7 -17 -23q0 -9 5 -17
q1 -3 5 -3q6 0 25 25q22 32 30 32q7 0 7 -5q0 -8 -48 -100t-86 -157q-12 -20 -19 -26.5t-17 -6.5h-4q-20 2 -30 -6t-17 -1q-2 2 -2 6q0 11 30 84q33 76 33 86q0 1 -32 -30t-66 -63.5t-39 -32.5h-1q-3 3 13 43.5t33.5 81t17.5 41.5q0 9 -50 14q-72 8 -99 14q-45 10 -90 10
h-42l5 -40q6 -46 15 -68q9 -23 14 -49q2 -13 1 -16t-8 0q-12 4 -14 -5q-2 -6 -2 -11q0 -11 4.5 -19.5t11.5 -8.5q10 0 8 -20q-2 -11 -5 -14t-12 -3h-6q-21 2 -30 14q-8 11 -25 30q-16 18 -29 58q-9 34 -44 87q-36 55 -36 87q0 12 5 20q7 10 16 1q8 -8 16 -8q11 0 11 12
q0 11 13 26q15 17 71 122t56 117q0 11 41 52q42 40 66 78q19 30 41 52q10 10 14 10t10 -9q8 -11 15 -11q9 0 21 24z" />
    <glyph glyph-name="afii10022" unicode="&#x415;" horiz-adv-x="636" 
d="M176 -9q0 7 -7 7t-7 -7t7 -7t7 7zM176 29q0 4 -4 4q-3 0 -3 -4q0 -3 3 -3q4 0 4 3zM292 35l7 1q0 1 -30 1q-31 0 -31 -1q2 -1 5 -1t11 -0.5t13 -0.5t13.5 0.5t11.5 0.5zM127 29q4 3 4 8q0 9 -6 9q-5 0 -5 -11q0 -4 2.5 -6t4.5 0zM252 85q0 3 -3 3q-4 0 -4 -3q0 -4 4 -4
q3 0 3 4zM231 92q0 3 -3 3q-4 0 -4 -3q0 -4 4 -4q3 0 3 4zM106 126q0 16 -3 17q-1 1 -6 -4q-5 -4 -5 -15q0 -15 7 -15t7 17zM206 194q2 18 2 22q0 11 -4 11q-14 0 -14 -37q0 -6 2 -16q3 -15 6 -15q2 0 8 35zM155 220q0 24 -5 24q-9 0 -12 -43q-4 -36 -8 -59q-3 -12 3 -12
q5 0 13.5 34t8.5 56zM287 269q0 7 -13 7q-18 0 -18 -9q0 -5 13 -5q18 0 18 7zM317 278q6 3 -9 3l-11 -2l2 -1q8 -2 18 0zM315 314q0 3 -4 3q-3 0 -3 -3q0 -4 3 -4q4 0 4 4zM281 303q16 0 16 5q0 9 -21 9q-17 0 -17 -7t22 -7zM169 314q0 3 -4 3q-3 0 -3 -3q0 -4 3 -4q4 0 4 4
zM388 345q20 0 20 3t-15 7t-26 4q-22 0 -21 -4q0 -1 3 -3q14 -7 39 -7zM484 508q-8 3 -11.5 3.5t-4.5 -2t-1 -8.5q0 -10 14 -10t14 7q0 5 -11 10zM303 576q0 3 -9 4q-10 0 -11 -2l2 -2q8 -2 18 0zM131 651q3 6 13 6q14 0 85 -17q65 -16 93 -16q17 0 70 5q44 5 81 5
q39 0 76 -8q4 0 7.5 -2t4.5 -4t0 -4q-3 -4 -31 -4q-19 0 -31 1q-32 2 -42 2q-50 0 -50 -10q0 -2 1 -3q4 -6 14 -3q2 1 11 1q27 0 82.5 -7t64.5 -12q12 -5 12 -17q0 -11 -25 -11q-14 0 -61 7q-62 11 -154 11q-22 0 -22 -2l5 -2q23 -5 70 -9q54 -5 95.5 -18t41.5 -27
q0 -17 -31 -31.5t-82 -19.5q-139 -13 -149 -20q-6 -4 -8 -13q-2 -8 -5 -44v-9q0 -12 3 -14.5t13 -2.5q19 0 32 13q10 9 42 15.5t64 6.5q37 0 48 -9q11 -10 22 -27t11 -25q0 -13 -37 -30.5t-96 -33.5q-118 -31 -126 -52q-3 -8 -9 -52q-2 -26 -2 -28q0 -15 15 -20
q23 -9 102 -26t121 -22q66 -9 66 -22q0 -6 -9 -12q-12 -9 -33 -9q-20 0 -20 -12q0 -9 -19 -9q-14 0 -47 3q-18 2 -68 2q-49 0 -68 -2q-42 -3 -54.5 -5.5t-12.5 -8.5q0 -14 40 -18q44 -6 101 -13q62 -7 69 -14q4 -3 4 -7q0 -13 -59 -13q-62 0 -125 14q-46 10 -64 10
q-9 0 -14 -3q-9 -5 -9 -6t9 -2q7 0 10 -2.5t0.5 -6.5t-9.5 -7q-1 -1 -5 -1q-12 0 -29 10q-22 14 -49 29q-30 16 -31 17q-1 0 1 3.5t6 8.5t9 10q15 15 15 26q0 3 -4 21q-6 24 -6 34q0 9 9 63q20 111 29 219q1 16 4 40.5t3 30.5q0 15 -11 26q-10 10 -10 16q0 8 26 15t30 14
q14 43 20 43q1 0 7 -4q10 -10 6 -25q-4 -16 4 -20q7 -4 85.5 -11.5t114.5 -7.5h11q25 1 25 9q0 10 -47 16q-10 1 -74 18q-97 27 -123 36t-26 18q0 4 7 15q5 9 36 9h14q4 0 9.5 -0.5t7.5 -0.5q20 0 20 4q0 5 -52 16q-60 10 -60 24q0 3 1 4z" />
    <glyph glyph-name="afii10024" unicode="&#x416;" horiz-adv-x="803" 
d="M172 126q7 10 7 15q0 1 -2 1q-6 0 -25 -16q-18 -14 -15 -16q2 -1 8 -1q17 0 27 17zM604 349q10 8 7 9h-11q-23 0 -73.5 -23.5t-50.5 -33.5q0 -1 1 -2h2q11 0 62 20.5t63 29.5zM310 332q-12 21 -26 33q-5 4 -4 0l13 -21q21 -33 26 -33q1 0 1 1q0 3 -10 20zM396 392
q3 6 0 12q-3 7 -4 0v-7q0 -8 2 -8zM322 365q0 6 -22 26l-22 20l15 -22q19 -28 27 -28q2 0 2 4zM509 422q15 20 15 26q0 1 -1 1q-7 0 -27.5 -20.5t-20.5 -27.5t4 -7q7 0 30 28zM180 442q5 0 -4 11l-4 3q-4 0 0 -7q5 -7 8 -7zM572 505q7 14 5 14q-4 0 -16 -14t-4 -14t15 14z
M586 533q0 7 -3 7q-5 0 -8 -8q-2 -6 3 -6q8 0 8 7zM240 518q-61 63 -73 63q-8 0 -8.5 -2.5t4.5 -12.5q9 -17 66 -74t64 -57q8 0 8 5q0 16 -61 78zM723 648q0 1 1 3v2q0 5 -5 5q-13 0 -40 -29q-21 -23 -53.5 -68t-32.5 -51q0 -7 -7 -17q-7 -16 -2 -16q6 0 71.5 80.5
t67.5 90.5zM689 672q13 7 29 5q18 -1 19 -21q0 -2 0.5 -4t0.5 -4q0 -17 -25.5 -51.5t-142.5 -176.5q-43 -50 -43 -60h1q5 0 34 9q33 11 65 11q28 0 28 -8q0 -12 -27.5 -31.5t-68.5 -36.5q-60 -26 -60 -29q0 -8 53.5 -69t124.5 -135q82 -86 82 -89q0 -6 -5 -6q-15 0 -59 41
q-66 63 -82 63q-5 0 -5 -7q0 -5 1 -9t1 -9q0 -9 -6 -9q-13 0 -45 30q-36 34 -53 38l-33 12q-7 3 -9.5 0.5t-2.5 -15.5q0 -19 -9 -28q-7 -7 -9 -83q-1 -49 -3 -62.5t-9 -14.5h-3q-22 0 -22 91q0 37 1 60q1 32 1 84q0 38 -1 40q-3 9 -7 9q-10 0 -17.5 -59t-7.5 -141
q-2 -106 -5 -106q-4 0 -9 5t-14 5q-6 0 -6 49q0 35 1 59v32q0 82 -5 82q-10 0 -79 -73q-72 -76 -88 -76q-15 0 -15 7t19 30q39 55 98 117q38 40 33 40q-7 0 -49 -30q-63 -45 -82.5 -56t-36.5 -11q-14 0 -19 -3.5t-6 -15.5q-3 -20 -12 -20q-8 0 -12 14q-1 3 -1 10q0 13 8 26
q11 16 11 36t20.5 37t88.5 54q78 44 86 53q2 4 2 5q0 11 -74 84q-74 71 -121 134q-29 41 -53 65q-11 8 -11 19q0 9 7.5 15t18.5 6q14 0 25 -8q4 -3 15 -11t15 -11q7 -6 11 -6q3 0 3 10v9v7q0 10 3 13t15 5h4q11 0 26 -12.5t59 -56.5q66 -68 72 -68q1 0 7.5 76t12.5 76h1
q5 -3 5.5 -29.5t4.5 -29.5q7 -4 7 -29q0 -23 8 -23q9 0 4 23q-1 4 -1 10q0 15 14 38q15 20 28 54q9 22 15 22q11 0 15 -93q3 -65 5 -65q1 0 3 28q4 49 14 49q11 0 12 -50q2 -51 6 -51q3 0 55 54q43 47 55 47q3 0 5 -2q9 -9 13 -9q3 0 37 49q36 52 45 56z" />
    <glyph glyph-name="afii10025" unicode="&#x417;" horiz-adv-x="565" 
d="M383 6q0 5 -6 5q-10 0 -42 -13q-28 -13 -54 -13q-20 -3 -19 -8q4 -6 21 -6q27 0 63.5 12t36.5 23zM172 19l27 5h-34q-66 0 -66 -14q0 -6 22 -2q16 4 51 11zM451 118q3 5 0 10q-2 2 -3.5 0.5t-1.5 -5.5t1.5 -5.5t3.5 0.5zM508 134q0 24 -7 27q-2 2 -4 -0.5t-2 -7.5
q0 -3 -5 -41q-2 -18 -2 -19q0 -3 1 -3q2 0 8 8q11 15 11 36zM432 165q0 20 -10 27q-2 2 -5 2q-6 0 -16 -25q-12 -33 -21 -39q-8 -5 -18 -34q-8 -27 -30 -44l-22 -19h28q30 0 53 16q17 11 23 21.5t10 35.5q8 35 8 59zM452 221q-24 32 -38 32q-3 0 -3 -3q0 -5 28 -37
q19 -22 25 -22q2 0 2 3q0 7 -14 27zM463 276q-12 14 -23 14q-12 0 6 -14q19 -14 23 -14q2 0 2 2t-8 12zM330 293q-39 2 -54 6h-3q0 -3 41 -19q58 -24 70 -24q6 0 6 6q0 12 -18 21t-42 10zM363 359q0 -3 1 -5q2 -4 4 3q1 4 -1 7q-2 1 -3 0t-1 -5zM321 381q0 6 -18 6
q-42 0 -96 -20q-59 -20 -59 -31q0 -5 19 -5q22 0 22 7t30.5 17.5t52.5 10.5q49 0 49 15zM356 425q0 17 -6 17t-26 -17l-21 -17h27q17 0 21.5 3t4.5 14zM388 439q7 14 2 28q-3 8 -4.5 8.5t-2.5 -4.5q-1 -2 -3 -9q-3 -12 -3 -21q0 -10 3 -10t8 8zM457 466q-15 35 -18 35
q-4 0 -12.5 -27t-8.5 -41t20 -14q10 0 19 6t9 12q0 5 -9 29zM343 592q-32 15 -101 15q-25 0 -32 -4q-6 -3 -6 -6q0 -4 67 -23q60 -17 83 -28q24 -11 33 -11h1q1 1 1 4q0 10 -15.5 28t-30.5 25zM144 654q14 4 42 4q70 0 116 -11q33 -7 47.5 -16t45.5 -38q33 -32 63 -81
t30 -72q0 -14 -12 -26.5t-26 -12.5q-44 0 -44 -22q0 -20 -7 -29q-6 -8 -6 -13q0 -11 33 -20q40 -11 59.5 -41t36.5 -107q2 -14 2 -22q0 -57 -37 -100q-29 -34 -43 -53q-21 -25 -42 -30q-6 -1 -53 -18q-22 -8 -37 -8q-14 0 -83 11q-65 12 -101 12q-11 0 -15 -1q-18 -2 -19 -2
q-10 0 -11 13q-1 9 -5 12t-16 2q-11 -1 -15 1.5t-4 9.5q0 18 41.5 32.5t107.5 19.5q77 6 91 9q18 4 29.5 16.5t12.5 27.5q0 18 14 20q17 2 33.5 32t16.5 54q0 13 -7 19q-18 14 -85.5 34.5t-99.5 21.5q-35 1 -68 14.5t-33 27.5q0 3 1 4q7 13 44 34t77 35q87 31 134 81
q21 24 21 30q0 3 -7 9q-24 18 -86 36t-96 18q-2 0 -6 -0.5t-5 -0.5q-16 -2 -17 -2q-7 0 -7 6l2 12q7 23 7 28q0 4 -7 4q-15 0 -30 -10q-4 -4 -9 -4q-13 0 -13 22q0 18 19 22q20 4 26 6z" />
    <glyph glyph-name="afii10026" unicode="&#x418;" horiz-adv-x="697" 
d="M116 60q6 20 6 45q0 41 -11 65l-2 2q-5 0 -5 -67l1 -76zM246 172q23 32 23 41q0 2 -2 2q-9 0 -34 -27t-25 -37q0 -13 5 -13q8 0 33 34zM171 260q3 6 0 12q-3 7 -4 0v-7q0 -8 2 -8q1 -1 2 3zM314 339q10 17 10 18t-1 1q-8 0 -54 -52q-48 -54 -48 -72q0 -7 8 -7
q5 0 33.5 37.5t51.5 74.5zM555 385q0 15 -6 15q-7 0 -18 -20q-10 -17 -10 -101q0 -59 6 -90q5 -22 7 -21q21 165 21 217zM410 423q5 10 5 11l-1 1q-2 0 -16 -15q-21 -23 -21 -29q0 -1 1 -1q3 0 10 7q16 14 22 26zM138 358q0 77 -2 77q-9 0 -9 -77q0 -30 3 -45q3 -18 5 -18
t3 63zM83 385q-9 57 -11 57t-2 -175v-175l10 90q10 91 10 127q0 33 -7 76zM553 465q4 4 0 15q-2 8 -7 -2q-6 -9 0 -14q3 -3 7 1zM610 539q-8 21 -13 21q-7 0 -7 -39q0 -34 -6 -96q-13 -112 -13 -191q0 -24 2 -24h1q7 7 25.5 122t18.5 149q0 32 -8 58zM67 653q3 5 12 5
q16 0 22 -8q3 -7 21 -3q2 1 6 1q24 0 24 -42q0 -18 11 -18q20 0 20 -48q0 -20 -3 -47q-6 -58 -6 -130q0 -56 4 -56l2 3q7 23 21 150q11 104 18 133.5t20 29.5q10 0 10 -28q0 -26 -9 -80q-9 -46 -15 -135l-5 -80l27 24q121 104 198 200q110 134 130 134q6 0 10.5 -11.5
t4.5 -26.5q0 -21 7 -21q4 0 10 7q5 8 8.5 8t11.5 -8q12 -12 12 -36q0 -26 10 -49q7 -15 7 -34q0 -20 -7 -68q-7 -46 -7 -72q0 -18 4 -29q4 -13 4 -44q0 -36 -4 -88q-7 -102 -7 -178q0 -56 -5.5 -78t-19.5 -22q-9 0 -16.5 16.5t-7.5 36.5q0 19 -15 73t-20 54q-7 0 -7 -24
q0 -29 -12 -72t-20 -43t-19 16q-10 14 -11 179q0 176 1 191v8q0 20 -5 23h-1q-11 0 -63.5 -65.5t-101.5 -139.5q-65 -99 -86 -123q-22 -30 -25 -51q-4 -23 -15 -23q-9 0 -32 16q-22 14 -27 14t-13 -5q-10 -6 -14 -5t-11 10q-10 13 -10 43t-7 30t-7 -7t-12 -5q-8 2 -11 15
t-5 56q-1 15 -1 58q0 118 9.5 286t17.5 183z" />
    <glyph glyph-name="afii10027" unicode="&#x419;" horiz-adv-x="696" 
d="M111 -14q11 20 11 63q0 32 -7 50q-7 17 -8 17q-3 0 -3 -66t4 -66q1 0 3 2zM250 120q19 28 19 34q0 1 -2 1q-8 0 -31 -20.5t-25 -30.5q-2 -7 -2 -15t4 -8q10 0 37 39zM171 198q3 8 -1 13q-2 2 -3 -2v-7q0 -6 1 -7t2 1q1 1 1 2zM283 235q41 57 41 66h-1q-8 0 -54.5 -53.5
t-46.5 -63.5q0 -12 5 -12q11 0 56 63zM552 292q2 24 2 30q0 23 -6 23t-17 -23q-10 -20 -10 -98q0 -55 6 -94q3 -18 4 -18t8 56q3 19 13 124zM138 295q0 78 -2 78q-9 0 -9 -77q0 -30 3 -45q3 -18 5 -18t3 62zM398 349q16 23 16 27q0 1 -1 1q-6 0 -21 -21q-16 -20 -16 -27
q0 -1 1 -1q3 0 21 21zM92 236q0 19 -8 80t-12 67q-2 0 -2 -166v-174l10 87q2 21 5 46t5 40t2 20zM555 413q0 24 -11 8q-4 -8 3 -15q8 -8 8 7zM611 480q-6 18 -12 18q-9 0 -9 -40q0 -33 -6 -95q-13 -114 -13 -187q0 -22 2 -22h1q7 7 25.5 118t18.5 148q0 42 -7 60zM66 596
q3 6 15 6q14 0 19 -7t24 -7q15 0 21.5 -8.5t6.5 -29.5q0 -16 13 -19q17 -4 17 -42q0 -18 -3 -50q-5 -63 -5 -126t5 -63q0 1 1 2q8 22 22 156q11 93 17.5 126t16.5 33q1 0 5 -2q8 -5 8 -28q0 -25 -9 -77q-18 -102 -18 -191q0 -21 3 -21q9 0 94.5 84t117.5 124q41 52 89 100
q38 36 52 36q12 0 12 -24q0 -25 10 -25q4 0 9 8q4 8 7.5 7t10.5 -12q11 -16 11 -36q0 -18 11 -49q7 -25 7 -38q0 -10 -7 -66q-7 -43 -7 -68q0 -18 4 -27q4 -11 4 -43q0 -39 -4 -95q-8 -130 -8 -182q0 -90 -25 -90q-9 0 -16 16.5t-7 36.5t-14.5 71.5t-20.5 51.5h-1
q-6 -4 -6 -25t-10 -62.5t-16 -47.5t-19 3q-10 7 -12.5 28.5t-6.5 112.5q-2 62 -2 91q0 59 4 109q4 48 4 56q0 16 -3 19h-1q-12 0 -80.5 -84.5t-103.5 -144.5q-27 -46 -56 -82q-30 -35 -38 -65q-8 -27 -19 -27t-33 16q-22 14 -26 14q-3 0 -13 -8t-15 -8q-14 0 -18 46
q-2 36 -9 36q-6 0 -6 -8q0 -7 -12 -5q-8 1 -11 15.5t-5 63.5q-1 17 -1 63q0 122 9 286t17 176zM456 620q2 8 2 9q0 5 -3 5q-4 0 -15 -11q-13 -14 0 -14q10 0 16 11zM306 638q-30 45 -43 45q-7 0 -7 -18q0 -10 19 -28.5t36 -23.5q2 0 5 -1q4 -1 5 -1t1 1q0 3 -16 26zM314 699
q-5 18 -13 20q-3 0 -3 -5q0 -9 5 -18.5t9 -9.5q5 0 2 13zM224 654q1 17 3 50.5t3 50.5h29q29 0 46 -13t32 -47q10 -23 15.5 -29.5t14.5 -6.5h6q13 2 16.5 7.5t4.5 30.5q2 47 18 47q5 0 11 -6q6 -7 9 -7q6 0 17 11q16 15 23 8q12 -12 12 -71q0 -41 -7 -59q-6 -20 -11.5 -24.5
t-27.5 -5.5q-30 -1 -44 -20q-14 -16 -25 -16q-13 0 -49.5 22.5t-63.5 47.5z" />
    <glyph glyph-name="afii10028" unicode="&#x41a;" horiz-adv-x="714" 
d="M343 233q3 6 3 11q0 8 -5 8q-6 0 -12 -8q-9 -11 -2 -18t16 7zM435 222q-48 58 -61 58q-3 0 -5 -2q-3 -4 10 -17t13 -39q0 -27 5 -34t53 -36t55 -29q1 0 1 1q0 9 -71 98zM343 313q0 4 -4 4q-13 0 -56 -34q-72 -58 -72 -89v-18l21 20q21 19 21 32q0 12 24 20q14 5 40 30
t26 35zM177 359q5 25 5 52v7l-2 28l-5 -28q-5 -25 -5 -59l1 -31zM228 645q8 5 12 5q11 0 17 -39q2 -18 2 -29q0 -72 -28 -159q-11 -40 -11 -57q0 -14 9 -14q5 0 26 6q3 1 7 1q2 0 2 -1q0 -4 -8 -20q-6 -10 -6 -14v-1q3 0 35 29q157 147 222.5 202t83.5 55q15 0 15 -8
q0 -14 -73 -86q-71 -69 -71 -76h1q13 0 146 115q40 34 54 34q7 0 7 -8t-57.5 -66.5t-133.5 -128.5q-72 -66 -72 -69q0 -8 91 -112q84 -96 113.5 -133.5t29.5 -51.5q0 -9 -10 -12q-1 0 -3 -1q-10 0 -40 28q-20 20 -61 43t-55 23q-3 0 -3 -2q0 -5 21.5 -25t27.5 -20
q8 0 41.5 -44.5t33.5 -55.5q0 -24 -14 -24q-30 0 -171 142q-117 121 -129 121q-11 0 -42 -38q-22 -27 -27 -40t-9 -55q-6 -72 -9.5 -90.5t-12.5 -24.5q-6 -5 -13 -5q-10 0 -10 21q0 16 -8 20q-8 8 -13 22q-7 18 -14 18q-11 0 -11 -31v-7q0 -32 -13.5 -51.5t-35.5 -19.5
q-13 0 -16 3t-3 18v14q4 147 20 260q4 28 10 77.5t11 87t10 67.5q7 32 7 57q0 43 24 52q15 5 26 46t21 41t11 -28l2 -27l18 31q16 28 26 35z" />
    <glyph glyph-name="afii10029" unicode="&#x41b;" horiz-adv-x="742" 
d="M118 168q11 41 11 56l-16 -40q-23 -63 -23 -75q0 -8 2 -8q9 0 26 67zM242 445q12 58 12 77q0 7 -2 7q-3 0 -12 -24q-23 -62 -52 -164t-29 -119q0 -2 1 -2h1q11 11 41 95t40 130zM404 490q-47 89 -56 89q-1 0 -1 -4q0 -9 21.5 -84t48 -165t33.5 -116q32 -119 67 -207
q4 -11 8 -11q6 0 6 35q0 77 -18 144q-59 223 -109 319zM298 560q9 22 2 29q-8 7 -12 -18q-3 -15 -3 -22q0 -6 2 -6q4 0 11 17zM419 635q-21 22 -34 22q-11 0 -11 -16q0 -17 10 -25q10 -7 29 -56l18 -49l16 14q15 15 24 15q2 0 2 3q0 11 -18 42t-36 50zM358 674q10 12 21 12
q9 0 29 -10q37 -20 72.5 -86t84.5 -209q31 -86 34 -89q5 -5 5 -23q0 -19 27 -98q26 -75 41 -158q14 -78 22 -91q8 -14 0 -18q-4 -2 -8 -2q-24 0 -33 19q-7 12 -27 95t-32 144q-10 51 -34 118t-40 89q-7 8 -35 65t-36 65q-12 9 -12 7q0 -4 21.5 -55t39.5 -90q58 -127 83 -266
q11 -60 11 -79q0 -21 -13 -21q-4 0 -7 1q-8 2 -9 2q-6 0 -7 -6.5t-1 -29.5q0 -39 -6 -39q-24 0 -54.5 74t-81.5 256q-67 240 -80 256l-1 1q-9 0 -65 -205q-25 -91 -51.5 -160t-43.5 -87q-14 -16 -24 -46q-13 -38 -24 -38q-4 0 -8 4q-2 2 -2 8q0 13 10 42q14 42 14 49
q0 2 -1 2q-3 0 -14 -16q-12 -18 -34 -32t-35 -14q-5 0 -7 2q-3 3 -3 13q0 45 46 168q19 50 52 140q25 72 69.5 171.5t60.5 119.5q9 9 7 29q-3 21 7 21q19 0 31 -39q5 -20 16 -20q10 0 12 20q2 21 13 34z" />
    <glyph glyph-name="afii10030" unicode="&#x41c;" horiz-adv-x="769" 
d="M382 48q0 -3 1 -5q2 -4 4 3q1 4 -1 7q-2 1 -3 0t-1 -5zM356 156q-4 30 -10 39q-1 2 -2 2t-1 -3q0 -24 12 -52q4 -8 3 -1zM410 292q0 15 -5 15q-8 0 -11 -22q-2 -25 0 -27q1 -1 2 -1q4 0 9 12t5 23zM295 268q-4 28 -11 35q-3 3 -5 3t-2 -3q0 -7 11 -35l10 -28zM484 402
q16 53 16 71q0 6 -2 6q-4 0 -13 -22q-8 -21 -20.5 -66t-12.5 -53q0 -4 7 0q4 2 25 64zM214 500q-21 46 -26 46q-2 0 -2 -5q0 -11 13 -47.5t22 -49.5q10 -16 12 -16t2 11q0 15 -21 61zM110 635q14 14 20 14t11 -18q6 -26 11 -26q3 0 9 18q9 24 20 26h2q13 0 33.5 -19.5
t37.5 -48.5q16 -26 20 -26q2 0 7 7q10 12 19 5q25 -22 57 -145q15 -62 25 -62t36.5 46.5t37.5 82.5q8 28 30 59.5t28 43.5q17 33 25 33q7 0 14 -12q8 -13 8 -27q0 -4 -2 -18q-1 -6 -1 -15q0 -16 8 -21q4 -4 4 -9q0 -10 -25 -61q-31 -58 -35 -85l-3 -25l10 18q12 20 22 50
q11 33 33 52q20 16 20 33q0 9 -3 29q-2 28 -2 30q0 15 11 18q2 1 6 1q16 0 16 -33q0 -17 10 -29q6 -8 9 -8q6 0 13 49q6 36 20 36q13 0 13 -14q0 -1 -0.5 -5t-0.5 -7q0 -2 -0.5 -6t-0.5 -5q0 -15 5 -15t13 20q7 21 15 21q12 0 12 -33q0 -17 -5 -54q-7 -56 -7 -252v-65
q0 -137 -10 -171q-11 -41 -19 -41t-23 53q-8 31 -14 165q-4 112 -10 112t-16 -93q-14 -124 -37 -124h-2q-13 3 -13 56q0 46 8 98q11 75 11 129q0 35 -5 35h-1q-7 -3 -18 -43q-12 -45 -45 -119q-34 -81 -39 -107q-6 -29 -26 -55q-40 -51 -40 -85q0 -16 -12.5 -41.5
t-20.5 -25.5h-2q-6 3 -15 30q-14 46 -24 46q-4 0 -8 -4q-2 -2 -4 -2q-10 0 -25.5 41t-47.5 152q-71 243 -89 243q-9 0 -9 -48q0 -29 1 -47q5 -103 5 -155q0 -36 -4 -126q-4 -63 -8 -81t-15 -18q-10 0 -18 21.5t-18 76.5l-12 59l-3 -59q-4 -59 -14 -59q-27 0 -27 125
q0 42 1 67q1 27 1 89q0 97 -3 153l-6 104l23 22q22 20 28 42q3 19 19 37z" />
    <glyph glyph-name="afii10031" unicode="&#x41d;" horiz-adv-x="646" 
d="M517 89q3 8 -1 13q-2 2 -3 -2v-7q0 -6 1 -7t2 1q1 1 1 2zM524 127q3 5 0 10q-2 1 -3.5 0t-1.5 -5t1.5 -5t3.5 0zM125 201q3 8 -1 13q-2 2 -3 -2v-7q0 -6 1 -7t2 1q1 1 1 2zM127 226q0 4 -4 4q-3 0 -3 -4q0 -3 3 -3q4 0 4 3zM517 271q2 8 0 17q-3 0 -4 -9q0 -9 2 -10z
M269 274q-49 16 -72 16q-15 0 -18 -8q-2 -6 -2 -8q0 -12 34 -22q10 -3 29 -3q59 0 59 11q0 4 -30 14zM95 260q3 15 3 31v7q-1 7 -5 -4l-4 -17q-3 -18 -3 -29q0 -9 2 -9q3 0 7 21zM524 320q2 8 0 17q-3 0 -4 -9q0 -9 2 -10zM531 372q2 11 0 21q-2 4 -3 -2l-1 -11q0 -11 2 -11
zM419 365q2 12 0 25q-2 7 -3 -3l-1 -10q0 -16 3 -15zM146 386q2 12 0 25q-2 7 -3 -3l-1 -10q0 -16 3 -15zM429 432q3 19 3 28q0 7 -1 7t-6 -9q-3 -8 -3 -27v-7q0 -14 1 -14q2 0 6 22zM477 465q6 52 6 80q0 19 -3 19q-2 0 -5 -8q-7 -23 -18 -82.5t-11 -76.5q0 -10 8 -12t12 5
q5 14 11 75zM549 656q5 6 7 6q6 0 6 -51v-37v-82l13 39q17 46 24 46q2 0 2 -9q0 -30 -21 -124q-19 -85 -34.5 -175t-15.5 -115q0 -6 1 -7q4 -4 4 -29q0 -32 -5 -76t-10 -55q-9 -16 -19 -16q-9 0 -21 -37q-16 -50 -27 -50q-3 0 -5 2q-10 10 -10 146q0 111 8 183q7 53 7 88
q0 30 -6 30q-3 0 -6 -6q-7 -15 -25 -131q-12 -73 -17 -96t-12 -23h-1q-10 3 -10 61v30l2 89l-26 -13q-21 -11 -61 -19t-72 -8h-12l-32 3l-2 -46q-1 -37 -14 -108q-9 -50 -9 -73q0 -2 0.5 -4.5t0.5 -3.5q2 -12 2 -21q0 -47 -17 -54q-6 -2 -7 -2q-12 0 -13 48q0 39 -6 55
q-3 10 -7 11.5t-15 -3.5q-8 -4 -14 -4q-8 0 -19 11q-9 9 -12 21.5t-3 50.5v29q0 86 9 158q6 45 6 62q0 14 -4 18q-8 8 -8 63q0 37 2 46.5t12 12.5q14 4 14 37q0 28 7 51.5t15 23.5h2q7 -3 7 -44q0 -39 -6 -120q-4 -56 -4 -58q0 -21 9 -21q19 0 19 46q0 29 17 107
q18 83 18 88q0 4 26 21.5t32 17.5q3 0 3 -29q0 -49 -9 -175l-4 -53l30 -11q20 -8 35 -8q10 0 20 3q23 7 64 7q39 0 44 12q2 5 3 92t4 92q3 4 5 4q6 0 13 -14t7 -30q0 -22 7 -22t11 19q22 97 37 103q9 3 14 0q6 -8 6 -51q0 -75 -18 -219q-24 -193 -24 -257q0 -23 1 -33
q1 -19 5 -19q7 0 9 57q1 62 32.5 301.5t40.5 250.5z" />
    <glyph glyph-name="afii10032" unicode="&#x41e;" horiz-adv-x="620" 
d="M384 2q13 11 6 11q-6 0 -21 -11q-12 -10 -6 -10q8 0 21 10zM341 84q-3 6 -32 6q-26 0 -26 -9q0 -16 22 -18h6q12 0 21.5 5.5t9.5 11.5q0 3 -1 4zM380 108q0 3 -7 3t-7 -8q0 -10 11 1q3 3 3 4zM91 229q3 9 -1 13q-2 4 -4 -2v-7q0 -7 2 -7q2 -1 3 3zM469 251q12 19 12 73
q0 19 -4 26q-1 1 -2 1q-4 0 -4 -38q0 -46 -4 -60l-2 -8zM319 404q-18 29 -31 29q-6 0 -9 -6q-5 -10 -22 -75q-17 -68 -17 -111t16 -74q10 -20 17.5 -26.5t25.5 -9.5q18 -2 46 -8q3 -1 9 -1q12 0 31 16q16 14 21.5 28.5t15.5 69.5q14 77 14 111q0 21 -4 27.5t-24 16.5
q-22 11 -33 11h-2q-4 -1 -4 -19q0 -10 1 -15q2 -14 2 -17q0 -15 -9 -22q-7 -6 -10.5 -4.5t-7.5 13.5q-7 18 -7 28t-19 38zM411 461q-21 7 -41 7q-18 0 -18 -5q1 -4 32.5 -20.5t39.5 -16.5q6 0 6 8q0 7 -5.5 15.5t-13.5 11.5zM114 411q19 59 19 68q0 1 -1 1q-5 0 -15 -17.5
t-10 -25.5q0 -11 -7 -15t-7 -25q0 -23 -11 -34q-7 -8 -7 -27q0 -5 2 -33q4 -37 6 -37q1 0 3 6q4 13 6 45q2 28 22 94zM490 479q0 13 -6.5 22t-16.5 9q-9 0 6 -26q11 -20 14 -20t3 15zM376 518q0 11 -19 11q-11 0 -24 -5q-16 -6 -16 -20q0 -6 4 -10q1 -1 5 -1q11 0 30.5 9.5
t19.5 15.5zM247 552q23 20 23 26q0 2 -3 2q-11 0 -30 -15t-33 -35q-13 -17 -10 -18q1 0 8 4q6 3 45 36zM408 615q-17 11 -25 0q-3 -4 5 -6q5 -1 11 -1q12 0 13 2q1 1 -4 5zM364 646q18 10 28 8q3 -2 35 -8q26 -4 36 -14t33 -51q25 -46 38 -61q19 -21 32 -73.5t13 -111.5
q0 -54 -4.5 -74.5t-29.5 -81.5q-50 -121 -102 -175t-119 -54q-24 0 -56 12t-39 23q-6 8 -35 21q-31 13 -42 33q-1 1 -33 43q-21 25 -45 73q-17 33 -22 54t-9 67q-2 42 -2 48q0 32 17 84q37 112 96.5 175.5t125.5 63.5q15 0 30 -3q17 -4 30 -4q10 0 24 6z" />
    <glyph glyph-name="afii10033" unicode="&#x41f;" horiz-adv-x="683" 
d="M110 341q3 8 -1 13q-2 2 -3 -2v-7q0 -6 1 -7t2 1q1 1 1 2zM509 322q7 38 7 61q0 13 -3 16q-4 4 -7 4q-16 0 -20 -100q-1 -15 -1 -38q0 -30 4 -30q5 0 20 87zM117 386q2 12 0 25q-2 7 -3 -3l-1 -10q0 -16 3 -15zM231 329q0 111 -6 111q-7 0 -12 -49.5t-5 -117.5
q0 -38 1 -57l2 -46l9 24q11 23 11 135zM481 447q0 6 -34 6h-18q-43 0 -43 -3q0 -1 5 -3q22 -8 56 -8t34 8zM197 447q1 5 -2.5 8.5t-10.5 4.5q-2 0 -4.5 0.5t-3.5 0.5q-8 0 -8 -4q0 -5 11 -13q7 -4 7 -10q0 -8 -10 -28q-23 -43 -33 -270q-5 -117 -5 -157q0 -49 5 -56
q2 -2 6 -2q18 0 39 68q12 39 12 62q0 12 -5 49t-5 158q0 161 7 189zM124 439q2 15 0 28q-2 6 -3 -3q-1 -5 0 -14l2 -15q1 0 1 4zM532 472q0 10 -6 10q-8 0 -18 -15q-11 -16 -11 -28q0 -13 10 -13q8 0 16.5 15.5t8.5 30.5zM133 514q0 3 -4 3q-3 0 -3 -3q0 -4 3 -4q4 0 4 4z
M408 507q-14 2 -41 5t-45.5 5.5t-28.5 3.5q-24 2 -27 2q-14 0 -18 -9q-2 -6 -2 -8q0 -36 161 -37h14q45 0 59 9q13 11 9 15q-4 3 -81 14zM594 525q-9 6 -22 6q-12 0 -15 -6q-4 -6 -8 -47q-2 -11 -2 -26q0 -16 6 -19q5 -3 5 -11q0 -11 -7 -36q-11 -42 -15 -79l-4 -39l15 32
q14 32 18 70q6 42 18 57q18 25 18 70q0 24 -7 28zM210 528q-7 10 -18 10q-7 0 -12 -5q-4 -4 -4 -9q0 -8 14 -15q10 -4 13 -4q12 0 12 11q0 7 -5 12zM534 537q-3 7 -18 7q-16 0 -37 -9l-21 -8l24 -9q22 -8 34 -8q20 0 20 17q0 2 -2 10zM411 540q3 5 -5 5t-5 -5q5 -3 10 0z
M98 528q3 3 3 7q0 10 -6 10q-4 0 -4 -11q0 -10 7 -6zM581 556q0 3 -4 3q-3 0 -3 -3q0 -4 3 -4q4 0 4 4zM134 559q9 0 -2 11l-3 3q-3 0 -3 -7t8 -7zM300 580q-6 0 -18 2.5t-17 2.5q-13 0 -13 -13q0 -6 21 -6q23 0 35 7q-1 6 -8 7zM213 597q-6 2 -8.5 3t-5 0.5t-3.5 -2
t-4 -5.5q-1 -1 -1 -4q0 -6 7.5 -11t17.5 -5q8 0 8 8q0 11 -11 16zM598 608q-12 14 -18 14q-3 0 -8 -5t-5 -12q0 -16 15 -21q8 -2 11 -2q12 0 12 10q0 8 -7 16zM188 644q-2 10 -12 12q-5 2 -6.5 0t-0.5 -7q2 -10 12 -12q3 -1 5 -0.5t2.5 2.5t-0.5 5zM156 680q8 4 10 4
q0 1 4.5 -2.5t12 -9t14.5 -12.5q26 -21 30 -21q3 0 10 10q8 14 15 14t7 -17q0 -13 6.5 -15t44.5 -2q55 0 120 -14q46 -10 77 -10q37 0 42 17q7 24 25 24q7 0 14 -4q10 -6 14 -5.5t10 8.5q9 12 16 12q8 0 11 -10q3 -9 3 -62q0 -223 -18 -351q-19 -148 -22 -179
q-9 -81 -20 -90q-8 -7 -17 -7q-10 0 -16 19l-5 19l-4 -17q-6 -21 -16 -21q-6 0 -6 10q0 1 0.5 3.5t0.5 3.5q31 174 36 237l4 50l-14 -32q-13 -29 -29.5 -86t-21.5 -89q-2 -20 -2 -21q0 -4 1 -4t6 6q8 11 14 11q5 0 5 -14q0 -16 -8.5 -28.5t-19.5 -12.5q-14 0 -18 -14
q-4 -12 -8 -12t-4 11q0 9 3 19q4 18 4 29t-3 22t-3 51q0 26 4 138q4 108 4 124q0 40 -4 44q-7 4 -90.5 19.5t-102.5 16.5h-20v-83q0 -116 -19.5 -240.5t-46.5 -184.5q-10 -22 -16 -29.5t-13 -7.5h-4q-22 3 -28 35.5t-6 151.5q0 143 8 197q6 41 6 53q0 5 -1 5q-5 0 -30 -108
q-35 -160 -53 -160q-6 0 -6 9q0 11 20 125q17 90 17 129q0 8 -1 10q-4 22 5 28q6 4 10 32t4 56q0 38 -7 38q-9 0 -12 -14q-4 -15 -8 -15q-6 0 -6 25q0 2 0.5 6t0.5 7q5 78 28 107q7 10 10 10q4 0 16 -12q16 -16 32 -16q9 0 12 6t-7 15q-10 7 -10 36q0 26 9 29z" />
    <glyph glyph-name="afii10034" unicode="&#x420;" horiz-adv-x="634" 
d="M378 174q-3 6 -16 6q-34 -3 -75.5 -14.5t-41.5 -18.5t18 -7q20 0 55 13q35 14 51 14q6 0 8.5 2t0.5 5zM277 244q-22 7 -38 7q-25 0 -25 -24q0 -8 1 -12q2 -9 5.5 -12t16.5 -3q3 0 10 0.5t12 0.5q18 0 51 5.5t59 11.5t26 8q0 3 -48 7q-46 4 -70 11zM308 411q-15 2 -32.5 4
t-26.5 3t-10 1q-5 0 -10.5 -35t-5.5 -63q0 -21 4 -24q7 -4 62 -19q46 -12 104 -12q65 0 74 14q5 8 5 39v8l-3 39l-47 19q-45 19 -114 26zM522 469q-7 13 -14 13t-7 -15q0 -13 7 -27t14 -14t7 15q0 12 -7 28zM271 520q-10 10 -17 10q-5 0 -5 -9q0 -14 10 -38q8 -20 17 -24.5
t51 -10.5q51 -8 66 -13q10 -3 10 8t-29 26q-30 14 -42 26q-8 7 -30.5 12t-30.5 13zM379 551q-23 15 -46 15q-17 0 -17 -6t31 -20.5t44 -14.5h2q9 0 9 4q0 7 -23 22zM319 604q0 4 -4 4q-3 0 -3 -4q0 -3 3 -3q4 0 4 3zM256 656q21 7 31 7q9 0 25 -9q15 -9 34 -11q38 0 113 -42
q71 -38 115 -132q7 -15 13 -56t6 -79q0 -18 -17 -66t-30 -66q-17 -24 -17 -32q0 -13 -16 -22t-39 -9q-34 0 -54 -14q-28 -19 -74.5 -30.5t-93.5 -11.5q-58 0 -63 -8q-5 -7 -9 -72q-6 -102 -43 -102q-11 0 -18 8.5t-14 33.5q-5 15 -8 19t-12 4q-1 0 -4 -0.5t-5 -0.5t-4 -0.5
t-4 -0.5q-16 0 -21.5 16.5t-5.5 67.5q0 46 1 77q4 132 16 151q12 18 12 115q1 69 5.5 92t18.5 23q5 0 8 -1q10 -2 15 -2q28 0 43 31q12 25 29 32q11 4 14.5 10.5t3.5 23.5q0 24 11 36t38 20z" />
    <glyph glyph-name="afii10035" unicode="&#x421;" horiz-adv-x="711" 
d="M291 -22q-3 7 -18 7q-13 0 -10 -7t18 -7q13 0 10 7zM462 7q-9 6 -27 6q-25 0 -38 -10q-8 -7 -7 -9t14 -5q4 -1 13 -1q16 0 31.5 5.5t15.5 10.5q0 2 -2 3zM276 111q-24 31 -52 87l-27 56v-42q0 -74 62 -118q23 -16 31 -16q4 0 4 3q0 7 -18 30zM164 263q3 15 3 21q0 7 -3 7
q-2 0 -8 -6q-8 -8 -8 -30q0 -18 6 -18t10 26zM199 432q1 4 1 9t-2 5q-6 0 -18 -19t-20 -43t-8 -30q0 -8 6 -12q9 -7 13 -2q15 35 28 92zM218 468q0 7 -3 7q-4 0 -8 -8q-3 -6 3 -6q8 0 8 7zM372 532q0 5 -20 5q-22 0 -33 -5q-17 -7 -44.5 -40t-32.5 -51q-3 -21 -11 -25
q-6 -4 -6 -20q0 -4 3 -4q8 0 70 62q74 74 74 78zM409 610q0 3 -9 4q-10 0 -11 -2l2 -2q8 -2 18 0zM295 610l16 12h-16q-44 -2 -84 -47q-21 -22 -21 -33q0 -5 5 -5q14 0 48 31q37 33 52 42zM297 650q31 6 58 6q47 0 104 -20q60 -20 102 -20h11h19q29 0 40.5 -7.5t26.5 -35.5
q9 -17 9 -26q0 -15 -37 -15q-8 0 -42 2q-18 2 -44 2q-27 0 -36 -5q-10 -5 -15 -5q-7 0 -23 8q-14 7 -24 7q-18 0 -42 -19t-69 -67q-56 -60 -79 -97.5t-23 -71.5q0 -10 1 -15q5 -35 29 -79.5t57 -77.5q42 -42 68 -42q20 0 50 18q58 33 106 94q18 24 29 24q1 0 2 -0.5t2 -0.5
q12 -5 12 -15q0 -21 -53 -73l-52 -51l47 4q23 3 33 3q16 0 31 -15q13 -14 13 -26q0 -4 -2 -12q-5 -20 -11.5 -26.5t-23.5 -6.5q-13 0 -21 1t-21 1q-25 0 -52 -12q-34 -14 -63 -14q-22 0 -40 7q-9 3 -16 3q-11 0 -32 -14q-26 -18 -45 -18q-24 0 -51.5 26.5t-74.5 91.5
q-63 88 -71 126q-7 40 -25 93q-18 56 -18 96q0 70 58 110q26 17 53 60q28 46 61 69.5t84 34.5z" />
    <glyph glyph-name="afii10036" unicode="&#x422;" horiz-adv-x="805" 
d="M317 108q9 81 9 125v8l-2 41l-9 -59q-15 -96 -15 -191q0 -18 2 -18q3 0 15 94zM327 445q-33 14 -71 14q-10 0 -10 -2q0 -7 29.5 -15t46.5 -8h6l17 3zM412 482q0 7 -10 7q-8 0 -14 -7t-1 -12q2 -2 5 -2q6 0 13 5t7 9zM342 485q-6 6 -28.5 11t-41.5 5q-17 0 -17 -5
t33.5 -13t52.5 -8q11 0 1 10zM436 527q-22 7 -52 10h-4q-10 0 -10 -2q0 -8 60 -14l41 -3zM79 638q16 2 29 2q69 0 328 -54q190 -40 268 -56q22 -4 39.5 -15t17.5 -19q0 -3 -2 -5q-4 -4 -24 -4h-8h-9q-12 0 -15.5 -2.5t-3.5 -10.5q0 -13 -26 -13q-22 0 -97 11q-63 10 -100 10
h-30q3 -7 10.5 -21t11.5 -21h70q75 0 75 -14q0 -5 -8 -13q-11 -11 -76 -19l-64 -6l1 -182v-84q0 -107 -5 -141.5t-19 -36.5h-3q-14 0 -18.5 24.5t-4.5 100.5q0 70 1 119q2 100 2 121q0 75 -5 75q-11 0 -18.5 -68t-7.5 -150q0 -55 5 -103q2 -26 2 -32q0 -15 -4 -15
q-5 0 -22 33q-11 21 -16 21q-8 0 -18 -68q-7 -56 -16 -65q-4 -4 -8 -4q-10 0 -19.5 17t-13.5 43q-2 18 -2 40q0 106 21 247q8 58 8 95v7l-2 26l-75 27q-75 27 -78 37q-3 9 19 22l22 12l-21 5q-7 3 -36.5 6t-51 9t-21.5 16q0 5 7 12q4 4 19 4q21 0 52 -5q39 -6 61 -6q7 0 7 2
q0 6 -41 23t-71 23q-51 11 -51 26q0 11 35 17z" />
    <glyph glyph-name="afii10037" unicode="&#x423;" horiz-adv-x="583" 
d="M266 136q0 9 -8 -1l-3 -4q-5 -7 3 -3q8 5 8 8zM245 284q0 9 -6 9q-7 0 -18 -15q-6 -7 -6 -17q0 -9 7 -9q6 0 13 9q10 13 10 23zM211 343q-12 21 -23 31q-5 5 -7 5t-2 -5q0 -12 14 -67l4 -17l14 16q9 10 9 16t-9 21zM210 436q0 4 -3 4q-4 0 -4 -4q0 -3 4 -3q3 0 3 3z
M144 602q-14 34 -14 45q0 10 10 10q7 0 28 -42t42 -97q17 -45 37 -82t28 -38q4 0 28 33q47 68 108 147t65 79q7 0 7 -8q0 -15 -17 -38t-17 -27q0 -1 1 -1q4 0 11 4q12 6 17 6t5 -5q0 -8 -15 -31l-16 -22l25 16q16 10 24 10q6 0 6 -8q0 -13 -13 -40q-17 -37 -17 -45
q0 -3 2 -3q5 0 22 19q22 25 34 25h1q3 0 3 -3q0 -11 -49 -70q-63 -75 -113.5 -155.5t-116.5 -210.5q-87 -169 -97 -169q-2 0 -2 5q0 14 44.5 110t44.5 99q0 6 -23 -22q-3 -3 -6 -7q-26 -31 -48 -37q-23 -5 -53 -49q-30 -43 -40 -43q-9 0 -9 5t17 31q17 24 17 45q0 19 13 34
q11 13 48 74t37 66q0 4 -18 11q-15 5 -15 15q0 2 1 8t1 9q0 21 -22 72t-47 88q-19 28 -19 47q0 24 -14 41q-10 16 -10 35v8q0 19 -7 35q-9 22 -9 33q0 15 23 22q12 4 22 4q16 0 16 -21q0 -13 13 -28t16 -23q7 -16 17 -16q9 0 9 4q0 5 -16 46z" />
    <glyph glyph-name="afii10038" unicode="&#x424;" horiz-adv-x="633" 
d="M317 106q2 12 0 25q-2 7 -3 -3l-1 -10q0 -16 3 -15zM298 146q0 27 -3 27q-2 0 -6 -4q-5 -4 -5 -24q0 -27 7 -27t7 28zM298 220q0 3 -4 3q-3 0 -3 -3q0 -4 3 -4q4 0 4 4zM413 230q13 6 4 6q-12 0 -21 -6q-6 -3 -6 -5q0 -1 2 -1q6 0 21 6zM501 248q0 3 -3 3q-7 0 -32 -17
q-23 -18 -18 -18t29 14.5t24 17.5zM305 279q0 27 -3 27q-2 0 -6 -4q-5 -4 -5 -24q0 -27 7 -27t7 28zM155 341q-21 21 -30 21t-9 -21q0 -29 41 -62.5t75 -33.5q9 0 13 2q11 5 11 38q0 29 -9 29t-17 -8q-3 -3 -9 -3q-12 0 -31.5 11t-34.5 27zM95 298q-23 61 -34 61
q-8 0 -8 -29q0 -61 57 -89q36 -17 52 -17h2q10 0 10 1q0 2 -19 9q-28 10 -37.5 20.5t-22.5 43.5zM102 381q0 -7 10 5q4 5 3 8q-4 4 -8.5 -1t-4.5 -12zM345 385q2 76 2 91q0 20 -1 20q-4 0 -13 -22q-13 -41 -13 -179q0 -44 4 -44q10 0 13.5 24t7.5 110zM427 478q-4 45 -14 57
l-6 8q-5 0 -21 -129q-7 -55 -7 -82q0 -25 9 -25q6 0 17.5 27.5t18.5 59.5q5 27 5 53q0 11 -2 31zM466 534q-33 24 -37 24q-2 0 -2 -2q0 -4 4 -11q15 -28 15 -77q0 -80 -36 -160q-20 -43 -20 -51q0 -6 8 -6q50 0 94.5 46t54.5 108q2 12 2 16q0 16 -24 51q-29 40 -59 62z
M301 505q-6 68 -9 68q-8 0 -51 -26.5t-64 -44.5q-19 -15 -35.5 -40t-16.5 -37q0 -3 1 -4h1q6 0 38 32q42 42 61 42q5 0 8 -3q4 -4 -10 -11q-18 -10 -49 -44.5t-31 -44.5q0 -15 29.5 -39.5t48.5 -24.5q34 0 34 111q0 96 27 105h2q6 0 6 -12q0 -18 -11 -42q-9 -18 -9 -88v-33
l2 -101l17 84q13 62 13 105q0 29 -2 48zM337 539q11 31 11 35q0 6 -9 6q-7 0 -10.5 -7.5t-6.5 -30.5q-3 -21 -3 -35q0 -7 1 -7q3 0 17 39zM186 590q0 4 -4 4q-3 0 -3 -4q0 -3 3 -3q4 0 4 3zM207 604q0 4 -4 4q-3 0 -3 -4q0 -3 3 -3q4 0 4 3zM333 608q-9 0 -25 4q-3 1 -9 1
q-30 0 -73.5 -28t-68.5 -63l-17 -22l35 26q31 23 74.5 45.5t58.5 22.5q10 0 20.5 4.5t10.5 7.5q0 2 -6 2zM451 640q-23 9 -54 9q-21 0 -43 -5q-19 -5 -3 -14q7 -3 12 -3q3 0 6.5 0.5t4.5 0.5q4 0 9 -8q7 -12 60 -36q49 -22 73 -42q16 -15 23 -15q3 0 3 5q0 4 -5 21
q-7 22 -33.5 49t-52.5 38zM322 660q24 7 64 7q59 0 89 -13q20 -8 44.5 -34.5t35.5 -51.5q9 -23 23 -90.5t14 -89.5q0 -49 -55 -125q-56 -81 -122 -92q-27 -5 -30 -15t-5 -80q-2 -71 -10 -71q-6 0 -12 38q-7 40 -13 40q-12 0 -12 -93q0 -58 -6 -58h-1q-7 4 -7 75q0 65 -7 65
q-6 0 -11 -62q-6 -60 -14 -60q-10 0 -11 65q0 66 -5 96q-3 13 -4 13q-2 0 -3 -59q0 -80 7 -118q4 -28 4 -33q0 -11 -4 -15q-3 -3 -5 -3q-17 0 -17 165v131l-53 9q-48 7 -87.5 24.5t-52.5 36.5q-14 21 -14 62q0 37 10 78q13 54 22 74t27 42q22 26 42 56q39 58 107 69
q50 10 72 17z" />
    <glyph glyph-name="afii10039" unicode="&#x425;" horiz-adv-x="685" 
d="M73 72q0 4 -4 4q-3 0 -3 -4q0 -3 3 -3q4 0 4 3zM542 87q0 7 -12 2q-6 -3 -6 -7q0 -8 18 -28l21 -24l-11 28q-10 25 -10 29zM122 94q0 8 -8 0q-2 -2 -4 -5q-4 -7 3 -3q9 5 9 8zM500 64q0 10 -18 26q-16 6 -17 2q0 -15 12 -25q11 -11 18 -11q5 0 5 8zM199 133q7 12 0 17h-1
q-7 0 -25.5 -25t-29.5 -49q-1 -1 -1 -3l1 -1q5 0 27 23.5t29 37.5zM164 161q5 10 5 12q0 1 -1 1q-7 0 -22 -27q-4 -6 -2 -7l4 2q9 6 16 19zM485 174q-7 21 -14 21q-2 0 -2 -2.5t1.5 -7.5t4.5 -11q11 -21 14 -21v3t-1 7.5t-3 10.5zM241 353q0 9 -10 1q-5 -4 -7 -9
q-3 -8 -2 -8.5t8 5.5q11 9 11 11zM416 332q-6 12 -18 28l-11 14l7 -14q6 -12 18 -28l11 -14zM191 402q-22 22 -27 22q-1 0 -1 -1q0 -6 13 -29q16 -30 25 -30q2 0 5.5 2.5t3.5 6.5q0 10 -19 29zM172 614q9 9 13 3q1 -2 23 -32q10 -14 22.5 -23.5t33.5 -20.5t28 -16
q14 -8 18 -8t17 17q14 21 46 55q27 28 35 28q3 0 3 -4q0 -17 -27 -61q-29 -49 -29 -59q0 -1 1 -1q7 0 30 33q39 53 51 53q4 0 8 -4q2 -2 2 -5q0 -11 -32 -50q-48 -62 -48 -64q0 -1 2 -1q4 0 37 44q69 90 88 90q6 0 6 -11q0 -9 9 -13q5 -2 5 -4q0 -6 -60 -93l-48 -70l19 -33
q36 -66 95 -187q80 -163 90 -163q2 0 2 6q0 9 -14 35q-13 26 -13 31q0 4 6 4q12 0 31.5 -44.5t19.5 -67.5q0 -7 -2 -9q-4 -4 -10 -4q-20 0 -40 31q-11 19 -18 19q-2 0 -7 -3q-10 -7 -22 4q-13 11 -25 11q-7 0 -7 -4t13 -26q18 -33 18 -50q0 -11 -7 -11q-12 0 -70 90
q-22 36 -96 105.5t-90 69.5q-14 0 -53 -54q-39 -53 -101 -121.5t-71 -68.5t-9 7q0 10 21 40q17 24 17 27q0 1 -1 1t-9 -2q-11 -3 -13 -0.5t0 13.5q3 15 -2 15q-2 0 -4 -1t-5 -1q-5 0 -5 7q0 23 47 93q46 67 46 83q-2 11 23 53l24 39l-32 60q-37 66 -56 95q-24 34 -24 46
q0 6 6 6q11 0 53 -28q36 -24 44 -24h1q4 4 -36 40q-34 31 -34 41q0 6 10 6q7 0 49 -40l43 -41l-23 40q-21 38 -21 60q0 14 8 22z" />
    <glyph glyph-name="afii10040" unicode="&#x426;" horiz-adv-x="745" 
d="M425 46q-54 12 -133 12q-31 0 -52 -3q-5 -1 -11 -2q-6 0 -6 -1q0 -2 53 -3q71 -2 107 -9q27 -5 50 -5h8q14 2 14 3q0 2 -30 8zM642 80q0 3 -3 3q-4 0 -4 -3q0 -4 4 -4q3 0 3 4zM361 78q8 -3 13 1q2 2 -2 3h-7q-6 0 -7 -1t1 -2q1 -1 2 -1zM110 104q0 7 -10 7q-11 0 -11 -7
t11 -7q10 0 10 7zM446 105q0 12 -5 12q-6 0 -21 -18q-11 -13 -11 -18q0 -9 32 -15q12 -2 15 -2q11 0 11 6q0 4 -10 13q-11 9 -11 22zM566 109q-30 13 -47 13q-11 0 -13 -5q-1 -1 -1 -5q0 -18 45 -26q5 -1 13 -1q19 0 19 9q0 8 -16 15zM364 120q0 3 -9 4q-9 0 -10 -2l2 -2
q8 -2 17 0zM274 119q-3 6 -63 6q-49 0 -54 -5q-5 -3 -5 -15q0 -8 19 -8q4 0 32 2q72 6 72 17q0 2 -1 3zM305 148q6 2 -3 3q-5 1 -13 0l-16 -2q1 -1 4 -1q15 -2 28 0zM451 170q2 8 2 10q0 4 -3 4q-5 0 -14 -10q-6 -13 -1 -14q11 0 16 10zM180 378q7 46 7 63q0 2 -1 5v2l-1 1
q-7 0 -26 -99t-19 -133v-5q1 -7 2 -7t6 29q5 41 15 62q7 17 17 82zM227 576q1 8 1 21q0 18 -3 18q-2 0 -5 -8q-8 -24 -8 -51q0 -11 3 -11q7 0 12 31zM191 606q-4 22 -10 22q-7 0 -17 -25q-43 -110 -77 -366q-11 -79 -11 -90q0 -15 10 -15q27 0 35 84q4 41 23 140.5t37 171.5
q11 50 11 68q0 7 -1 10zM91 670q5 7 7 7q12 0 13 -92q0 -72 4 -72q1 0 4 7q28 79 42.5 110t24.5 31q5 0 11 -8q8 -10 10.5 -10t12.5 9q14 12 20 12q10 0 10 -20q0 -56 -56 -309q-28 -129 -28 -135q0 -7 20 -7q14 0 24 1h8q42 0 94 -9q40 -8 59 -8q2 0 3 1h2q7 4 11 44
q8 69 35.5 179t56.5 192q11 30 23 30q7 0 7 -16q0 -12 12 -46q8 -21 8 -37q0 -15 -6 -52q-8 -59 -19 -68q-5 -5 -6 -5t-1 2q0 3 12 74q3 20 3 37q0 44 -12 44q-8 0 -13 -22q-13 -47 -34 -150.5t-24 -135.5q-3 -28 -3 -37q0 -6 2 -6t6 4q14 14 57.5 112.5t63.5 164.5
q43 136 61 136q8 0 8 -7q0 -19 -33 -127q-26 -85 -36 -135t-14 -116q-2 -28 -10 -51q-1 -3 -2.5 -6.5t-2 -6t-1.5 -4.5t-1 -3l-1 -2q0 -4 39 -8q20 -2 24 -2q17 0 28 10q10 8 16 8q12 0 12 -16q0 -10 9 -10t25 11q9 8 17 8q10 0 10 -15q0 -33 -23 -62q-13 -14 -13 -24
q0 -4 3 -9q7 -12 -4 -22q-23 -19 -65 -130q-24 -58 -36 -58h-6q-6 0 -6 4l10 37q7 24 7 39q0 5 -4 -3q-2 -6 -4 -13q-4 -19 -25 -39q-17 -17 -22 -17q-4 0 -13 9q-14 12 -14 22q0 7 31.5 68t39.5 72q7 7 7 14q0 14 -51 27q-10 2 -12 2q-7 0 -7 -4q0 -7 17 -14t17 -19
q0 -11 -65 -11q-55 0 -131 9q-39 4 -73 4q-32 0 -64 -4q-31 -4 -48 -4q-11 0 -17.5 2t-19.5 7.5t-26 10.5q-36 13 -41 18q-2 1 -2 10t4 33q11 59 26 152q16 105 16 185q0 10 -0.5 34t-0.5 40v57q0 91 3 97z" />
    <glyph glyph-name="afii10041" unicode="&#x427;" horiz-adv-x="608" 
d="M412 -8q0 -3 1 -5q2 -4 4 3q1 4 -1 7q-2 1 -3 0t-1 -5zM451 169q3 9 1 31q-2 12 -3 12t-5 -20q-3 -12 -3 -21q0 -11 4 -11q3 0 6 9zM482 220q0 3 -4 3q-3 0 -3 -3q0 -4 3 -4q4 0 4 4zM111 282q-16 36 -26 36q-2 0 -2 -2q0 -8 18 -28q12 -14 12 -11q0 1 -2 5zM314 324
q0 18 -3 18q-5 0 -21 -32q-12 -21 -12 -29q0 -2 1 -2q10 0 22.5 16t12.5 29zM440 394q11 51 11 66q0 8 -3 8q-4 0 -16 -59t-12 -80q0 -5 1 -6l1 -1q4 0 18 72zM185 481q2 13 2 20.5t-1 8.5q-4 0 -18 -32q-15 -30 -15 -64q0 -18 6 -29q1 -1 2 -1q11 0 24 97zM73 481
q11 23 7 27q0 1 -1 1q-5 0 -11 -13.5t-6 -23.5q0 -12 6 -1q3 4 5 10zM390 495q-7 22 -15 22q-3 0 -8 -5t-5 -12q0 -16 15 -24q10 -7 10 -10q0 -4 -17 -20q-18 -15 -18 -25q0 -1 2 -7q3 -4 3 -9q0 -8 -9 -20q-20 -27 -20 -67q0 -11 4 -11q16 0 38 45t25 84v11q0 30 -5 48z
M132 532q0 19 -6 19t-14 -18q-29 -75 -29 -121q0 -22 8 -38q5 -9 7 -9t8 19q7 23 7 68q2 44 10 52q9 9 9 28zM213 674q6 4 10 4q9 0 9 -8q0 -6 -11 -30q-22 -42 -22 -72q0 -17 7 -24t7 -18t-4 -24q-31 -143 -31 -185q0 -30 10.5 -41t34.5 -11q22 0 61.5 77.5t57.5 155.5
q13 56 16 59q4 2 21 -8q8 -7 13 -7t8 25q4 29 11 36q4 4 5 4q4 0 12 -34q3 -17 19 -27q5 -4 10 -4q8 0 20 22q11 20 14 20q1 0 3 -9q3 -15 7 -15t17 11q8 6 10 6q3 0 3 -19q0 -22 -15 -76q-36 -128 -34 -206l1 -36l10 36q10 32 21 123q18 147 41 152q1 0 3 0.5t3 0.5
q4 0 4 -8q0 -11 -16 -111q-9 -54 -20 -148t-16 -131q-9 -64 -11 -140q-1 -53 -4.5 -69t-13.5 -16q-9 0 -9 28q0 27 -11 27q-12 0 -48 -30q-31 -26 -41 -26q-2 0 -2 1q-4 8 0 13q7 13 15 218l4 130l-34 -36q-30 -31 -67 -52q-24 -13 -33 -13q-14 0 -94 36q-57 26 -77 46
q-14 14 -17.5 27t-8.5 59q-8 72 -14 102q-5 22 -5 29q0 10 12 28q15 22 22 22t29 37.5t26 55.5q3 15 10 20t32 10q36 9 40 13z" />
    <glyph glyph-name="afii10042" unicode="&#x428;" horiz-adv-x="775" 
d="M343 10q0 14 -34.5 22t-74.5 8q-44 0 -44 -7q0 -8 94 -30q28 -7 43 -7q16 0 16 14zM479 42q4 2 -2 4h-7q-6 0 -7 -1l3 -3q10 -3 13 0zM612 51q-25 0 -35 5q-2 1 -6 1q-13 0 -13 -14q0 -5 3 -10q4 -7 26 -7q17 0 32 4q16 4 16 11q0 10 -21 10h-2zM275 62l5 1q0 2 -28 2
t-28 -2q2 -1 6 -1q3 0 10.5 -0.5t11.5 -0.5t12 0.5t11 0.5zM153 69q3 5 0 10q-2 1 -3.5 0t-1.5 -5t1.5 -5t3.5 0zM577 108q2 8 0 17q-3 0 -4 -9q0 -9 2 -10zM678 91h1q3 0 6.5 15t3.5 24q0 4 -1 4h-1q-3 0 -6.5 -15t-3.5 -24q0 -4 1 -4zM402 192q9 76 9 139q0 42 -4 42
q-2 0 -3 -4q-5 -15 -15.5 -116.5t-10.5 -132.5q0 -7 1 -8q3 -3 4 -3q6 0 19 83zM138 248q9 133 9 169q0 3 -0.5 7t-0.5 5q-2 13 -3 13q-2 0 -12 -128q-11 -124 -11 -203q0 -32 3 -29q2 2 15 166zM651 297q10 127 10 217q0 50 -4 50q-1 0 -4 -10q-4 -17 -12.5 -203
t-10.5 -200q-1 -8 -1 -20q0 -13 3 -13l1 1q7 10 18 178zM146 625q11 26 16 26q4 0 8 -46.5t4 -87.5q0 -23 -1 -30q-1 -9 -1 -43q0 -50 2 -75l6 -83l6 97q4 79 8 97t15 18q7 0 7 -27q0 -37 -16 -216q-5 -57 -5 -81q0 -25 3 -28q4 -5 43.5 -17.5t52.5 -12.5l3 1q4 4 9.5 93.5
t5.5 140.5q0 5 -0.5 12t-0.5 9q-1 9 -1 26q0 24 3 30q4 7 9 7q14 0 14 -51q0 -60 21 -60q6 0 13 73q11 97 28 97q10 0 11 -45q1 -35 16 -51q24 -26 24 -116q0 -78 -20 -140q-8 -22 -8 -35q0 -4 1 -5q5 -7 42 -7q31 0 34 6q5 7 15 122t10 165q0 66 11 66q5 0 11 -16
q4 -12 4 -31q0 -41 -20 -219q-4 -33 -4 -67q0 -14 1 -16q3 -9 6 -9.5t10 7.5q11 12 16 146q7 159 13.5 217t18.5 58l4 -2q5 -2 5 -79q0 -70 -1 -121q-2 -96 -2 -120q0 -97 7 -97q1 0 6 18q5 24 11 198q10 287 34 311q7 7 19 -2q10 -9 10 -72q-3 -194 -17 -348q-2 -22 -2 -25
q0 -9 2 -9l2 2q7 11 22 126q24 188 37 188h1q6 -2 6 -28q0 -39 -16 -215q-14 -167 -22.5 -221.5t-20.5 -56.5q-13 -2 -23 18l-10 20l-61 -3q-5 0 -15 -0.5t-14 -0.5q-40 0 -70 9q-39 11 -63 11q-20 0 -23 -8q-3 -9 -17 4q-11 9 -13 9t-6 -12q-2 -8 -2 -10q0 -13 19.5 -18.5
t67.5 -5.5q45 0 54.5 -2t9.5 -12t-11 -12t-64 -2h-76l3 -30q0 -4 0.5 -8.5t1 -7t0.5 -4.5q0 -4 -2 -4q-1 0 -7 8q-11 15 -11 29q0 17 -12.5 24t-53.5 13q-60 9 -71 12q-14 2 -15 2q-8 0 -8 -20q0 -19 -7 -19q-9 0 -15 25q-5 19 -14 19q-5 0 -8 -1q-14 -4 -26 9q-8 9 -8 66
q0 11 2 117q6 176 10 195q3 18 1 18q-1 0 -3 -2q-6 -6 -24.5 -149t-18.5 -182q0 -54 -15 -54q-6 0 -6 210q0 200 -8 310q-3 46 -3 71q0 41 10 41q5 0 13 -8q8 -10 8 -22q0 -9 -3 -27q-4 -19 -4 -112q0 -200 8 -200l1 1q5 10 16 83q34 214 57 266z" />
    <glyph glyph-name="afii10043" unicode="&#x429;" horiz-adv-x="791" 
d="M375 151q9 6 25 6t20 -6q1 -2 1 -5q0 -8 -17 -8q-5 0 -17 2q-15 3 -15 7zM604 175q0 15 23 6q11 -5 11 -9q0 -7 -17 -7t-17 10zM251 359q0 21 2 19q1 0 1 -3q2 -16 0 -31q-1 -9 -2 0q-1 5 -1 15zM324 67q-49 7 -82 10l-45 4l44 -21q55 -27 95 -27q15 0 21 2q14 3 14 10
q0 14 -47 22zM631 76q0 33 -6 33q-7 0 -7 -44v-10q1 -40 4 -40q2 0 3 7q4 16 6 54zM673 97q0 19 -6 19q-10 0 -10 -9q0 -6 6 -15q5 -7 7 -8.5t2.5 1.5t0.5 12zM215 116q-10 7 -46 7q-34 0 -34 -6q0 -1 1 -2q12 -12 57 -12q16 0 20 2q11 4 2 11zM251 125q6 3 -9 3
q-11 0 -10 -2l2 -1q8 -2 17 0zM299 150q4 11 4 19q0 7 -3 7q-2 0 -4 -2q-6 -6 -4 -23v-18zM138 661q9 11 15 11q8 0 8 -26q0 -17 -3 -44q-6 -56 -13 -228q-7 -175 -11 -204l-3 -25l43 -3q6 0 17 -0.5t15 -0.5t7.5 0.5t6.5 0.5h2q3 3 3 173q0 169 9 169h2q6 0 7 -22t2 -143
q2 -134 9 -141q1 -1 2 -1q7 0 18 213q2 38 2 41q0 11 -2 11q-1 0 -7 -17l-9 -18l-1 4q0 16 10.5 59.5t14.5 43.5q1 0 1 -1q2 -8 11 6q3 6 7.5 10.5t6.5 3.5q6 0 6 -24q0 -31 -10 -172q-5 -85 -5 -109q0 -37 6 -37q1 0 3 2q3 2 14 124q8 90 16 122t22 37h2l2 1q3 0 3 -11
q0 -12 -20 -201q-15 -137 -18 -151l-5 -20l52 2l51 3l2 225q2 230 4 236q5 10 12 3t7 -167q1 -121 2 -121t4 49q12 207 23 221q5 5 7 5q8 0 11 -38l3 -37q3 0 11 65q10 75 21 75q2 0 7 -6q7 -11 4 -25q-4 -17 -17 -206t-13 -228v-5l1 -3q5 0 22 214q16 218 32 218
q11 0 11 -23q0 -19 -11 -93q-14 -93 -18 -196q-1 -20 -1 -47q0 -29 2 -29q6 0 15 145q14 188 33 188q9 0 9 -17q0 -20 -10 -71q-6 -32 -14 -135.5t-8 -143.5q0 -14 1 -15t30 -3t34 -6q7 -6 13 2q4 7 8 7q8 0 13 -22q4 -19 16 -35t22 -16q3 0 4 1q10 3 10 -7q0 -12 11 -12
q9 0 9 -23q0 -22 -1 -39q-5 -66 -14 -75q-10 -11 -16 -38l-5 -27l-35 2q-30 2 -37.5 10.5t-19.5 57.5q-11 47 -21 96q-3 12 -7 12q-2 0 -21 -7q-22 -9 -29 -9q-8 0 -12 16q-3 11 -9 14.5t-24 3.5q-28 0 -42 -12q-12 -11 -28 -4q-10 5 -31 5q-8 0 -28 -2q-46 -5 -46 -15
q0 -3 13 -6q52 -8 57 -34q1 -4 1 -10q0 -29 -56 -29q-23 0 -46 7.5t-74 31.5q-83 40 -121 47q-37 9 -48 18q-10 9 -10 249q0 291 12 300q11 7 11 18t6 15l1 1h1q9 0 9 -67q0 -35 -3 -83q-6 -92 -6 -153v-14q2 -43 3 -43q1 3 1 9q12 212 36 304q20 78 28 88z" />
    <glyph glyph-name="afii10044" unicode="&#x42a;" horiz-adv-x="684" 
d="M341 8q-13 11 -26 11q-17 0 -17 -16q0 -10 9 -16q13 -10 22 -10q8 0 16 10q10 11 -4 21zM547 37q0 7 -8 -1q-2 -2 -4 -5q-5 -7 3 -3q9 5 9 9zM512 61q14 20 14 28q0 5 -6 5q-8 0 -27 -11q-28 -16 -79 -23q-52 -6 -54 -10q-2 -2 -2 -4q0 -13 51 -18q7 -1 21 -1q57 0 82 34
zM290 133q0 -6 1 -7.5t3 2.5q4 10 0 14q-2 4 -4 -2v-7zM610 155q0 19 -9 28q-4 4 -6 4q-4 0 -4 -28v-19q1 -44 3 -44t7 13q9 23 9 46zM267 236q2 11 0 21q-2 4 -3 -2q-1 -4 -1 -11q0 -11 2 -11zM528 240q-10 11 -25 19.5t-22 8.5q-4 0 -4 -3q0 -6 21.5 -46.5t26.5 -43.5h2
q6 0 13 11t7 23q0 10 -19 31zM415 307q-13 8 -28 8q-13 0 -20 -7q-7 -12 -21 -81q-16 -80 -19 -88q-2 -10 -1 -11.5t11 0.5q2 1 6 1q8 0 8 -8t-10 -27l-11 -20l27 4q110 20 135 43l19 18l-42 80q-45 82 -54 88zM331 404q0 10 -5 10q-8 0 -18 -12q-12 -14 -12 -59
q0 -46 7 -46q5 0 16.5 45t11.5 62zM269 454q0 9 -35 9q-33 0 -33 -7q0 -6 25 -16q11 -5 23 -5q20 0 20 19zM338 492q0 20 -7 20q-4 0 -8 -11t-4 -21q0 -6 2 -10q3 -5 7 -5q10 0 10 27zM289 552q0 7 -5 7q-7 0 -35 -14q-24 -11 -24 -16q0 -3 3 -4q8 -5 19 -5q16 0 29 9.5
t13 22.5zM347 563q8 -4 10 1q-3 2 -5 3q-4 0 -5 -1t0 -3zM276 629q31 7 59 7q33 0 50 -11q17 -12 50 -16t34 -17q1 -2 1 -5q0 -5 -8 -5q-2 0 -22 2t-22 2q-11 0 -18 -12q-8 -19 -10 -68q-2 -55 -7 -89l-5 -36h41h6q49 0 89 -23t60 -61q12 -22 32 -42q21 -20 29.5 -46
t8.5 -72q0 -41 -4 -52.5t-26 -39.5q-33 -39 -46 -60q-18 -24 -72 -50q-36 -17 -54.5 -22t-47.5 -5q-44 0 -69 12t-44 43t-22 79q-4 48 -19 62q-12 11 -12 30q0 3 2 37q7 63 14 105q10 47 12 89l2 39l-40 12q-46 13 -74 17q-18 2 -21 2q-15 0 -34 -20q-19 -21 -25 -21
q-2 0 -2 5q0 15 9 39q5 11 -7 11q-11 0 -18 14q-2 3 -2 8q0 20 47 20q25 0 25 9q0 4 -7 8q-4 3 -4 6q0 14 53 28q44 12 44 18q0 5 -92 32q-9 2 -7 12q3 8 73 13q58 5 100 12z" />
    <glyph glyph-name="afii10045" unicode="&#x42b;" horiz-adv-x="716" 
d="M591 390q5 35 5 67q0 12 -1 12q-3 0 -6 -22q-4 -25 -4 -73l1 -26q1 0 5 42zM554 476q3 8 -1 13q-2 2 -3 -2v-7q0 -6 1 -7t2 1q1 1 1 2zM642 613q10 24 22 24q9 0 9 -14q0 -18 -13 -97q-24 -151 -24 -380q0 -48 1 -68q2 -62 2 -77q0 -56 -6 -68q-6 -16 -11 -16
q-10 0 -10 67q0 62 -7 66q-7 5 -7 -3q0 -7 -13 -7q-8 0 -11 -6t-3 -26q0 -42 -17 -42q-3 0 -10 5q-9 9 -9 102q0 89 -4 89t-14 -72q-9 -69 -18 -92q-7 -19 -11 -19q-3 0 -11 8q-10 10 -10 42q0 42 16 174q18 154 18 172q0 20 -9 44q-10 32 -12 68v34q8 -1 23.5 -4t23.5 -4
l16 50q20 60 38 60q6 0 10 -7q7 -13 2 -26q-1 -3 -1 -8q0 -8 19 -8q21 0 21 7q0 6 10 32zM291 8q9 10 4 10q-7 -1 -34 -18.5t-27 -21.5q0 -1 1 -1q10 0 29.5 10.5t26.5 20.5zM271 40q0 6 -15 6q-28 0 -51 -13q-16 -9 -28.5 -22t-12.5 -18q0 -2 2 -2q10 0 57.5 22t47.5 27z
M131 166q-1 0 -1 -1q-4 -9 -9.5 -50.5t-5.5 -55.5v-4q2 -2 7 -2q9 0 19.5 6.5t10.5 12.5q0 12 -4.5 35t-9.5 41t-7 18zM350 165q-5 17 -9 17q-9 0 -60 -51l-55 -53l33 -2h10q29 0 42 9q14 10 27 34t13 40q0 1 -0.5 3t-0.5 3zM258 285q-28 10 -61 16l-29 4l-5 -27
q-2 -12 -2 -26q0 -40 6.5 -96.5t12.5 -62.5h1q10 0 69.5 55.5t70.5 74.5q2 4 2 7q0 14 -19 30.5t-46 24.5zM323 310q-14 14 -34 14h-21l24 -14q25 -14 34 -14q4 0 4 3q0 4 -7 11zM178 599q20 59 33 59q11 0 11 -21q0 -26 -23 -136q-21 -96 -21 -113q0 -7 44 -7h8
q36 0 78 -21q58 -28 74 -62.5t17 -132.5v-21q0 -48 -18 -84q-31 -63 -70 -92t-93 -29q-29 0 -72 10q-49 12 -62.5 23t-13.5 41q0 16 -3 21.5t-11 5.5q-10 0 -12 6.5t-2 33.5q0 41 7 81q25 155 34 327q5 104 15 121l8 16l12 -15q8 -11 11 -11.5t10 7.5t10.5 7t11.5 -12
q9 -11 11 -11.5t6 9.5z" />
    <glyph glyph-name="afii10046" unicode="&#x42c;" horiz-adv-x="496" 
d="M338 12q2 4 2 5t-2 1q-6 0 -42 -18q-27 -14 -27 -20q0 -1 1 -1h2q10 0 35.5 13t30.5 20zM309 40q4 4 -5 5q-6 1 -19 1q-32 0 -63 -20q-38 -24 -38 -32q0 -3 6 -3q10 0 61.5 21.5t57.5 27.5zM161 135q-6 34 -11 34q-3 0 -6 -12q-16 -72 -16 -98l1 -4q1 -1 9 -0.5t16 2.5
q20 4 20 13q0 5 -3 14q-3 14 -10 51zM394 167q-4 18 -10 18q-6 -1 -62.5 -50.5t-56.5 -54.5q0 -6 29 -6q39 0 57 8q16 7 30 32t14 45q0 6 -1 8zM291 286q-37 12 -69 15q-18 2 -21 2q-8 0 -11 -3t-6 -14q-2 -8 -2 -26q0 -81 12 -143q6 -25 13 -27h1q14 0 87.5 64t73.5 77
q0 11 -25 29t-53 26zM366 310q-12 14 -34 14h-4h-25l28 -14q30 -14 38 -14q4 0 4 3q0 4 -7 11zM232 659q8 5 18 -4q4 -4 4 -13q0 -16 -23 -114q-29 -116 -29 -134q0 -8 2 -11t10 -3q1 0 21 2q2 0 6.5 0.5t7.5 0.5q49 0 109 -25.5t76 -54.5q14 -25 19 -95q2 -20 2 -53
q0 -49 -13.5 -81t-50.5 -71q-33 -36 -66 -49.5t-85 -13.5q-50 0 -94 11t-57 27q-12 16 -12 34q0 21 -17 28q-17 6 -17 34q0 29 13 107q35 223 41 333q4 87 16 99q7 8 10.5 7.5t9.5 -11.5q4 -8 6.5 -10t5 -1t10.5 8q9 9 12 9q4 0 14 -13t13 -13q5 0 18 34q13 30 20 36z" />
    <glyph glyph-name="afii10047" unicode="&#x42d;" horiz-adv-x="747" 
d="M269 -44q-15 7 -19 7q-3 0 -12 -6q-7 -5 -7 -7t7 -7q12 -7 31 -7q18 0 18 6q0 7 -18 14zM191 -7l43 12l-31 -1q-98 -2 -98 -11t27 -9q28 0 59 9zM590 21q-3 5 -6 5q-5 0 -45 -33q-44 -36 -56 -44l-18 -12h23h4q20 0 40 9q16 8 37.5 35t21.5 38q0 1 -0.5 1t-0.5 1z
M611 169q-5 5 -11 5q-19 0 -41 -33q-10 -15 -55.5 -49t-66.5 -43q-21 -8 -44 -43t-29 -35q-7 0 -7 -8q0 -6 17 -6q11 0 18 1q34 4 84 38q47 31 72 62q21 25 42.5 62t21.5 47zM520 182q-3 6 -9 6q-13 0 -52 -46q-37 -44 -37 -50q0 -1 4 -1q16 0 55.5 36.5t39.5 51.5q0 1 -1 3
zM560 256q0 9 -14 9t-14 -7q0 -6 9 -13q7 -6 13 -3t6 14zM567 383q0 8 -8 11q-5 -1 -6 -6q0 -11 7 -11t7 6zM457 544q-33 21 -52 21h-2q-11 0 -11 -2q0 -3 40 -23q43 -20 55 -20h1q1 1 -3 4.5t-11.5 9t-16.5 10.5zM378 621q-26 7 -55 7q-27 0 -38 -5q-14 -5 -14 -9
q0 -8 70 -10q63 0 63 5q0 3 -26 12zM221 636q60 20 104 20q43 0 88 -17q41 -15 91 -43.5t73 -49.5q16 -15 16 -28q0 -2 -2 -16q-2 -16 -2 -23q0 -38 41 -79q56 -58 56 -92q0 -15 10 -25q11 -11 2 -26q-11 -21 -25.5 -70.5t-14.5 -68.5q0 -24 -20.5 -86.5t-34.5 -81.5
q-16 -20 -54 -39q-32 -16 -55 -16q-15 0 -45 3q-50 5 -91 5q-35 0 -58 -2h-7q-39 0 -134 31q-69 22 -92.5 34.5t-23.5 27.5q0 4 2 12q5 17 28.5 23t105.5 12q92 6 126 15q23 8 45.5 33t34.5 58q13 33 13 48q0 14 -11 17q-67 19 -149 19h-10q-55 0 -70 8t-15 37q0 20 4 24
t27 9q33 8 51 21q14 11 35.5 14t93.5 4l108 2l11 21q6 12 6 21q0 18 -47 54q-46 35 -107 62t-100 29q-8 1 -20 1q-33 0 -33 -16q0 -8 6 -20t6 -18q0 -9 -20 -9q-14 0 -26 12t-16 31q-1 3 -1 9q0 13 15 31q16 20 16 30q0 2 -0.5 5t-0.5 4q0 10 14.5 17.5t55.5 21.5z" />
    <glyph glyph-name="afii10048" unicode="&#x42e;" horiz-adv-x="847" 
d="M513 -22q0 7 -8 7q-10 0 1 -11l4 -3q3 0 3 7zM280 246q6 -3 12 0q7 3 0 4h-7q-8 0 -8 -2q-1 -1 3 -2zM408 278q-15 50 -24 50q-5 0 -5 -16q0 -11 1 -18q1 -13 17 -40.5t22 -27.5h1q3 1 -12 52zM560 350q-41 27 -48 27q-8 0 -22 -29q-16 -31 -16 -89t16 -93
q14 -30 37 -49.5t43 -19.5q12 0 20 6t19 24q36 55 36 101q0 68 -85 122zM471 392q0 7 -7 7q-18 0 -27 -19q-8 -15 -8 -39q0 -20 7 -20q5 0 20 30t15 41zM654 379q-8 9 -24 20q-4 2 -5 2q-2 0 -2 -2q0 -5 13 -27q20 -37 34 -81l16 -48l5 29q1 4 1 12q0 23 -11 50t-27 45z
M178 382q7 7 4 16q-4 10 -9 0q-3 -5 -3 -13q0 -11 8 -3zM583 394q0 7 -8.5 14t-16.5 7q-6 0 -7 -3q-1 -1 -1 -5q0 -8 7.5 -15.5t15.5 -7.5q10 0 10 10zM423 463q7 12 0 12t-23 -20.5t-16 -28.5l1 -2q1 -1 2 -1q13 0 36 40zM520 464q-17 17 -29 17q-13 0 -24 -21
q-11 -22 -9 -24q7 -7 32 -7q22 0 33 7q9 7 9 10q0 4 -12 18zM587 495q-44 22 -57 22q-5 0 -5 -4q0 -10 32.5 -35.5t58.5 -33.5q24 -8 36 -8q7 0 7 4q0 7 -23 24.5t-49 30.5zM98 633q12 9 27 9q17 0 21 -10q5 -10 17 -3t20 7q11 0 20.5 -45.5t11.5 -111.5q4 -90 7 -93
q2 -2 7 -2q12 0 30.5 7t19.5 13q8 29 32 66t53 65q47 48 71.5 58.5t84.5 10.5q68 0 103.5 -16t87.5 -70q33 -35 45.5 -54t25.5 -55q21 -66 23 -77q1 -5 1 -16q0 -47 -21 -131t-46 -132q-18 -37 -47 -66.5t-52 -35.5q-74 -20 -110 -20q-10 0 -13 1q-16 3 -61 41
q-48 40 -72 58q-26 19 -50 61.5t-24 68.5q0 21 -9 35q-6 7 -39.5 17t-49.5 10q-18 0 -29 -111q-5 -55 -10 -74t-16 -33q-16 -19 -30 -19h-2q-10 2 -13 12t-6 50q-4 61 -10 72q-3 8 -7 8q-10 0 -10 -52q0 -112 -21 -112q-12 0 -16 16v5q-1 5 -1 10q0 48 8 185.5t16 213.5
q6 70 6 123q1 96 27 116z" />
    <glyph glyph-name="afii10049" unicode="&#x42f;" horiz-adv-x="674" 
d="M289 3q0 4 -3 4q-9 0 -22 -16l-14 -15l20 12q19 11 19 15zM352 60q0 8 -18 -13l-14 -17l16 14zM292 75q22 23 22 28l-1 1q-9 0 -56 -49q-13 -13 -23.5 -24.5t-15.5 -18t-3 -6.5q6 0 29.5 21t47.5 48zM296 133q5 8 2 10.5t-18 2.5q-15 -1 -27 -10.5t-41 -43.5
q-92 -106 -92 -117q0 -2 2 -2q3 0 13 5q14 8 84 75t77 80zM436 156q0 4 -4 4q-3 0 -3 -4q0 -3 3 -3q4 0 4 3zM401 192q0 3 -4 3q-3 0 -3 -3q0 -4 3 -4q4 0 4 4zM491 83q21 84 21 114q0 10 -3 10t-7 -9q-7 -13 -22 -88t-15 -98v-6q5 0 26 77zM442 209q8 0 11 8q-1 5 -6 6
q-11 0 -11 -7t6 -7zM187 226q0 10 -10 40q-9 25 -13 25q-1 0 -1 -4v-1q0 -13 9 -37.5t14 -24.5q1 0 1 2zM259 243q-30 28 -48 67l-20 42v-28q-2 -60 38 -112q16 -20 25 -20q5 0 11 3q17 8 21 -3q4 -10 16 -10t35 12l24 13l-37 5q-37 5 -65 31zM532 351q3 5 0 10q-2 1 -3.5 0
t-1.5 -5t1.5 -5t3.5 0zM250 362q16 34 16 41q0 5 -4 5q-6 0 -20 -10q-23 -13 -23 -34q0 -11 6 -26q3 -6 5 -6q4 0 20 30zM485 353q6 42 6 60q0 5 -8 -20q-33 -99 -33 -117q0 -6 12 6q14 13 23 71zM513 492q0 4 -4 4q-3 0 -3 -4q0 -3 3 -3q4 0 4 3zM464 546q0 12 -10 12
q-15 0 -51 -24q-60 -40 -60 -59q0 -4 5 -6q3 -1 9 -1q31 0 69 27t38 51zM520 568q0 4 -10 4t-13 -4q-4 -5 -9 -29q-6 -29 -31.5 -48.5t-78.5 -35.5q-47 -15 -58 -21.5t-26 -31.5q-38 -65 -38 -99q0 -2 0.5 -4t0.5 -3q4 -16 38 -28.5t69 -12.5q24 0 36 5l24 8l37 136
q36 134 48 148q11 11 11 16zM446 590q0 9 -34 9q-26 0 -36 -6q-62 -35 -101 -93q-41 -60 -41 -68q0 -5 6 -5q3 0 11 2q23 7 80 66q58 59 87 75q28 15 28 20zM352 612q0 3 -4 3q-3 0 -3 -3q0 -4 3 -4q4 0 4 4zM334 632q25 16 47 16q25 0 80 -26q60 -28 69 -28q8 0 16 -8
q8 -11 15.5 -46.5t7.5 -65.5t3 -30q1 0 6 10q9 19 17 19q12 0 12 -37v-17q0 -27 11 -31q12 -5 12 -16q0 -15 -19 -41q-16 -22 -48.5 -124.5t-49.5 -187.5q-13 -64 -27 -76q-15 -13 -21 -30q-4 -8 -8.5 -13.5t-8.5 -4.5q-11 5 -11 49q0 38 9 92q9 56 9 70l-1 3l-6 -15
q0 -4 -1 -7q-6 -24 -18 -40q-11 -12 -14 -12q-4 0 -13 9q-9 7 -12 7q-8 0 -59 -41q-52 -42 -94.5 -68t-59.5 -26h-2h-2q-15 0 -39 -14q-22 -14 -35 -14q-7 0 -7 5q0 11 23 31q18 16 18 17t-2 1q-1 0 -5 -1q-3 -1 -6 -1q-3 -1 -9 -1q-22 0 -22 20q0 6 1 9q6 16 27 45
q26 37 26 41h-1q-4 0 -34 -30q-38 -37 -38 -47q0 -3 2 -7q7 -13 -4 -17q-11 -5 -19 3q-5 5 -5 13q0 26 89 111l81 78l-18 12q-18 11 -37 50q-17 36 -17 61q0 26 14.5 61t51.5 105q58 108 78.5 138.5t47.5 46.5z" />
    <glyph glyph-name="afii10065" unicode="&#x430;" horiz-adv-x="687" 
d="M494 127q0 39 -7 44l-2 1q-3 0 -3 -12q0 -3 2 -25q6 -43 8 -43t2 35zM207 198q0 12 -23 -4q-9 -6 -18.5 -27t-9.5 -32q0 -4 2 -6h1q8 0 28 28.5t20 40.5zM165 279q0 7 -3 7q-4 0 -7 -8q-2 -6 3 -6q7 0 7 7zM249 307q0 7 -4 7q-8 0 -22 -18.5t-18 -35.5q-4 -16 9 -16
q8 0 21.5 24t13.5 39zM460 289q1 -1 4 -1t3 5q0 8 -6 21.5t-9 13.5t-3 -7q0 -25 11 -32zM515 309q-7 26 -17 26q-11 0 -11 -7q0 -12 12 -50.5t16 -39.5q3 -2 3 -16q0 -15 -1 -23v-11q0 -32 12 -76t25 -61q6 -8 8 -8q1 0 1 4q0 1 -2 19q-5 35 -23 128t-23 115zM372 333h-14
q-38 0 -50 -5q-10 -4 -31 -39.5t-21 -48.5q0 -4 88 -4q89 0 93 4q2 2 -2 17q-6 17 -36 17q-18 0 -47 -6q-24 -6 -36 -6q-16 0 -16 11q0 2 2 8q4 11 18.5 15.5t56.5 8.5q46 4 46 14q0 13 -51 14zM386 442q-11 26 -14 26q-6 0 -28 -40t-22 -51l1 -2h2q10 0 35 5q35 8 35 28
q0 12 -9 34zM306 446q17 53 17 61q0 3 -18.5 -31.5t-37 -71.5t-18.5 -42q0 -7 7 -7q14 0 22 16q9 18 28 75zM438 412q0 13 -13 66t-18 58q-1 1 -4 -2.5t-7 -11.5q-4 -12 -4 -18q0 -15 11 -44q14 -44 25 -55q4 -4 6 -5t3 1.5t1 10.5zM462 489q-27 73 -31 73q-1 -1 -1 -2
q0 -3 8 -35q1 -3 4.5 -18.5t7.5 -33t8.5 -35t9.5 -29t9 -11.5q9 0 9 11q0 14 -24 80zM317 561q3 5 0 10q-2 1 -3.5 0t-1.5 -5t1.5 -5t3.5 0zM386 568q10 19 8 28q-3 7 -10 -8q0 -2 -1 -3q-8 -21 -8 -27q0 -2 1 -2q3 0 10 12zM396 713q10 7 16 7q10 0 10 -17q0 -10 -4 -17
q-8 -16 -2 -29q4 -11 5.5 -11t9.5 14q9 18 19 18q9 0 9 -12q0 -11 -7 -22q-2 -6 -2 -11q0 -16 16 -64q27 -91 28 -97q12 -46 18 -58l11 -23h55q54 0 63 -10q2 -2 2 -5q0 -6 -42 -10l-47 -6l33 -9q43 -13 43 -31q0 -7 -10 -13q-7 -4 -15 -4q-13 0 -13 15q0 10 -21 10t-21 -8
q0 -5 21 -93q21 -81 21 -147q0 -48 9 -90.5t18 -42.5q1 0 3 2q7 7 11 7q8 0 8 -24q0 -15 -2.5 -19.5t-10.5 -4.5q-12 0 -27.5 18t-15.5 32q0 15 -7.5 28t-16.5 13q-10 0 -24 27l-14 26l-5 -31q-6 -35 -16 -35q-4 0 -9 5q-9 9 -23 90q-12 60 -16 72t-16 13q-24 3 -24 11
q0 5 13 8q19 4 19 8q0 8 -58 8h-11q-57 -1 -57 -3t45 -11q34 -6 34 -8q0 -1 -17 -6q-12 -2 -23 -2q-55 0 -99 17q-11 4 -17 4q-7 0 -14 -11q-9 -13 -33 -70t-32 -84q-6 -20 -27 -55.5t-27 -35.5q-9 0 -9 9q0 11 10 38t10 39q0 3 -1 4t-3 1q-15 0 -43 -74q-17 -44 -24 -44
q-6 0 -6 9q0 28 68 209q18 47 18 65q0 16 8 32q3 6 3 11q0 9 -15 24q-13 15 -13 22q0 12 42 38q29 18 37 31t8 42q0 36 28 114q31 92 38 92q3 0 8 -7q4 -6 8 -6q3 0 15 19q15 24 22 24q5 0 9 -13q4 -14 12 -14q7 0 20.5 27.5t18.5 51.5q5 25 17 33z" />
    <glyph glyph-name="afii10066" unicode="&#x431;" horiz-adv-x="698" 
d="M365 -13q0 3 -9 4q-10 0 -11 -2l2 -2q8 -2 18 0zM431 36q3 5 -5 5t-5 -5q5 -3 10 0zM544 44q6 8 6 9q1 1 0 1q-2 0 -44 -21q-34 -17 -34 -24q0 -1 1 -1h2q10 0 35.5 13t33.5 23zM268 81q-7 23 -24 23q-5 0 -9 -4q-5 -5 -5 -29q0 -29 17 -29q8 0 16 8q8 10 8 17q0 6 -3 14
zM359 98q-13 13 -21 13q-10 0 -17 -13q-7 -14 -7 -22q0 -9 10 -9q1 0 11 2q31 10 31 17q0 5 -7 12zM545 136q0 3 -11 3q-10 0 -7 -7q3 -5 10.5 -3.5t7.5 7.5zM562 209q-12 21 -25 28q-6 3 -8 3q-1 0 -1 -1q0 -3 13 -29q18 -36 25 -36q6 0 6 6q0 9 -10 29zM485 201
q-8 23 -15 32t-21 9q-12 0 -53 -13q-42 -13 -88 -17q-41 -5 -56 -15t-15 -35q0 -22 17 -30q18 -8 23 -18q5 -8 8 -8q5 0 22 14q21 18 35 18t37 -20q25 -21 32 -21q8 0 34.5 17t39.5 31q10 13 10 19q0 4 -10 37zM174 243q0 15 -11 15q-10 0 -10 -1q0 -6 -14.5 -78t-17.5 -79
q-5 -13 -18 -28q-19 -22 -19 -67q0 -14 5 -17q1 -1 5 -1q12 0 30.5 13.5t22.5 26.5q3 9 5 54q2 48 11 91q11 55 11 71zM400 278h-8q-44 -1 -71 -11q-10 -5 -39 -5q-28 -1 -28 -12q0 -9 21 -12q1 0 5 -0.5t6 -0.5q35 0 92.5 13t57.5 21q0 7 -36 7zM573 286q-11 7 -18 7t4 -7
t17 -7q8 0 -3 7zM545 296q0 4 -4 4q-3 0 -3 -4q0 -3 3 -3q4 0 4 3zM529 302q3 5 -5 5t-5 -5q5 -3 10 0zM174 300q13 0 13 39q0 2 -0.5 6t-0.5 5q-1 11 -2.5 11.5t-4.5 -9.5q-9 -30 -9 -44q0 -8 4 -8zM158 481q3 8 -1 13q-2 2 -3 -2v-7q0 -6 1 -7t2 1q1 1 1 2zM466 533
q6 2 -2 3l-10 1q-16 0 -15 -3l3 -1q11 -2 24 0zM191 586q4 15 -5 15q-5 0 -11 -12.5t-6 -21.5q0 -5 2 -7q1 -1 2 -1q9 0 18 27zM475 585q-11 1 -93.5 19t-107.5 18q-16 0 -16 -6q0 -8 10 -8t14 -18l5 -19l63 5q88 5 103 5q28 1 26 3q-1 1 -4 1zM442 624q0 3 -9 4
q-10 0 -11 -2l2 -2q8 -2 18 0zM321 646q0 4 -4 4q-3 0 -3 -4q0 -3 3 -3q4 0 4 3zM207 677q21 13 52 13q6 0 48 -2q237 -12 264 -29q10 -6 11.5 -10.5t-2.5 -12.5q-8 -14 3 -18t11 -20q0 -15 8 -23q4 -4 4 -9q0 -14 -21 -14q-16 -1 -3 -8q11 -7 11 -16q0 -12 -14 -19
q-9 -5 -35 -5q-32 0 -199 10l-78 4l-4 -19q-3 -19 -9 -82q-2 -36 -2 -41q0 -21 7 -24q11 -2 146 -9q104 -5 144 -12.5t70 -27.5q37 -25 37 -89q0 -27 -9 -54q-10 -28 -44 -78.5t-53 -65.5q-40 -30 -156 -53q-50 -10 -72 -10q-21 0 -42 5q-30 5 -40 5q-12 0 -38 -8
q-33 -11 -69 -11q-33 0 -58 8.5t-31 23.5q-2 4 -2 10q0 13 23 167q17 120 26 231q12 149 30 203q16 52 29 52q5 0 11 -6q7 -7 12 -7q8 0 8 20q0 17 26 31z" />
    <glyph glyph-name="afii10067" unicode="&#x432;" horiz-adv-x="711" 
d="M454 42q0 5 -9 6t-13 -4q-4 -4 -66 -4q-48 -2 -48 -5t44 -11q5 -1 17 -1q25 0 50 6t25 13zM576 68q5 15 -8 15q-34 -2 -70 -43q-35 -41 -112 -41q-52 0 -110 17q-45 14 -63 14q-3 0 -3 -1q0 -3 24 -13q34 -14 101.5 -29.5t110.5 -19.5q30 -2 35 -2q21 0 42 17
q36 30 53 86zM578 247q-17 30 -25 30q-6 0 -6 -17v-10q0 -30 -5 -82l-6 -65l17 8q27 13 34 25.5t7 43.5q0 39 -16 67zM453 300q-66 9 -89 9q-25 0 -53 -7q-32 -8 -69 -8h-8h-14q-20 0 -20 -5q0 -19 -12 -71q-14 -59 -14 -94v-33l41 -9q48 -10 152 -10q113 0 124 11
q11 12 19 51.5t8 76.5q0 13 -2 29q-8 44 -12 48t-51 12zM486 328q-4 7 -12 7q-6 0 -2 -7t11 -7t3 7zM570 321q-35 21 -45 21q-6 0 -6 -3q0 -12 44 -31q24 -11 35 -25.5t21 -48.5q7 -27 14 -27t9 24v5q0 44 -72 85zM328 346q0 3 -3 3q-4 0 -4 -3q0 -4 4 -4q3 0 3 4zM446 346
q0 13 -14 13q-10 0 -18 -7q-12 -10 -5 -17q6 -6 16 -6q21 0 21 17zM150 432q1 4 1 11q0 12 -5 12t-10 -14q-14 -44 -14 -171q0 -52 2 -75q1 -11 3 -11q8 0 25 82q10 43 10 63q0 11 -3 15q-3 6 -3 11q0 9 7 19q11 18 11 29q-1 9 -2 9t-6 -10q-4 -7 -8 -7q-9 0 -9 22
q0 10 1 15zM167 500q0 3 -7 3t-7 -8q0 -10 11 1zM482 506q-6 17 -10 17t-4 -19t-15 -60q-10 -27 -10 -39q0 -6 3 -9q4 -4 8 -4q11 0 24 53q7 27 7 43q0 10 -3 18zM415 518q-8 38 -13 38t-42 -72.5t-37 -81.5q0 -1 1 -1q6 0 43 7l42 8l6 32q3 15 3 34q0 20 -3 36zM363 565
q0 13 -22 21t-47 8q-28 0 -34 -8t-18 -67t-12 -83q0 -16 3.5 -19.5t24.5 -5.5q6 -1 15 -1q11 0 17 6.5t23 33.5q50 79 50 115zM365 655q-21 8 -35 8q-7 0 -23 -4q-26 -4 -26 -12q0 -2 2 -4q3 -3 11 -3q11 0 22 4q16 4 22 4q11 0 33 -11q28 -15 32 -15q2 0 2 1q0 4 -14 15.5
t-26 16.5zM276 679q26 12 52 12q64 0 111 -62q22 -31 44 -58q28 -35 28 -71q0 -21 -8 -59q-7 -32 -7 -50q0 -11 3 -12q6 -4 67 -34q62 -29 79 -51q25 -29 25 -72q0 -40 -24 -68q-18 -22 -41 -86q-29 -77 -56 -102t-82 -25h-5q-42 1 -138 24.5t-137 43.5q-40 18 -53 18
q-18 0 -18 16q0 1 0.5 4t0.5 5q0 6 -7.5 15t-13.5 9q-5 0 -9 -15q-5 -13 -23 -12q-13 1 -16 7t-5 27q0 2 -0.5 6t-0.5 6q0 43 30 205t30 201q0 11 -1 15q0 1 -0.5 4t-0.5 5q0 27 13 72t23 49q8 3 23 -14q12 -16 25 -16q16 0 40 24q24 26 52 39z" />
    <glyph glyph-name="afii10068" unicode="&#x433;" horiz-adv-x="570" 
d="M168 407q3 5 0 10q-2 1 -3.5 0t-1.5 -5t1.5 -5t3.5 0zM165 648q8 10 22 6q2 0 26 -4.5t41 -6.5q56 -10 126 -25q73 -16 98 -18q26 -3 26 -13q0 -8 -19 -15q-18 -6 -18 -19q0 -5 -3 -11t-3 -7q0 -4 22 -4q18 0 31 -6.5t13 -14.5q0 -2 -2 -6q-4 -7 -28 -11q-16 -3 -20.5 -7
t-3.5 -15l2 -18l-107 -2q-106 0 -114 -8q-15 -15 -38 -313q-11 -134 -19 -147q-6 -11 -8 -11q-4 0 -17 16q-10 11 -13 21.5t-3 40.5q0 8 2 76v52q0 62 -1 62q-3 0 -23 -114.5t-20 -127.5t-7 -27t-13 -14q-2 0 -3 1q-8 10 -8 68q0 55 7 84q10 40 24 148.5t19 180.5q2 40 2 43
q0 21 -9 21q-15 0 -21 -26t-12 -112q-7 -114 -18 -177q-10 -60 -14 -141q-1 -20 -1 -45q0 -29 9 -33q10 -4 10 -13q0 -11 -13 -23q-7 -7 -13 -7q-11 0 -11 43q0 24 7 111q4 36 4 103v36q0 54 11 184t20 172q4 18 14 18q8 0 20 -13q9 -10 14 -10q8 0 17 36q7 30 16 42z" />
    <glyph glyph-name="afii10069" unicode="&#x434;" horiz-adv-x="746" 
d="M624 131q5 7 2.5 10t-13.5 3t-19 -10t-26 -47q-24 -50 -24 -59l6 -2q7 8 38.5 52.5t35.5 52.5zM529 150q-16 0 -26 -10t-23.5 -37t-13.5 -38q0 -2 1 -3h1q8 0 41.5 36t33.5 45q0 7 -14 7zM157 141q-20 37 -24 37q-2 0 -2 -6q0 -14 14 -73q21 -81 34 -81q2 0 3 1q2 2 2 10
q0 19 -9 55.5t-18 56.5zM453 201q-30 5 -101 5q-54 0 -54 -4t58.5 -8t93.5 -4q18 0 20 1q8 4 -7 8q-4 1 -10 2zM573 208q-34 4 -47 4h-17l16 -11q15 -11 15 -20q0 -10 16 -10q23 0 36 16q6 9 6 12q0 5 -25 9zM170 253q3 6 0 12q-3 7 -4 0v-7q0 -8 2 -8q1 -1 2 3zM206 338
q6 0 13 16t7 28q0 5 -1 6q-1 7 -10 -9q-2 -4 -4 -9q-10 -24 -10 -29q0 -3 5 -3zM478 404q0 4 -4 4q-3 0 -3 -4q0 -3 3 -3q4 0 4 3zM412 366l-35 92l-23 1h-5q-13 0 -20.5 -8.5t-27.5 -46.5q-10 -19 -55 -105l-25 -51h91q97 0 150 -5q36 -2 39 -2q18 0 18 9q0 12 -29.5 71
t-35.5 59q-2 0 -2 -9q0 -21 9 -75q2 -16 2 -19q0 -9 -3 -9q-12 0 -48 98zM537 445q-12 24 -21 36q-10 14 -11 -1q0 -15 11 -24q8 -5 8 -18q0 -7 -1 -11q-1 -2 -1 -8q0 -23 12 -59t19 -36l2 2q2 6 2 15q0 54 -20 104zM403 489q-11 37 -18 37q-3 0 -3 -4q0 -9 20 -62
q7 -23 11 -23q1 0 1 3q0 11 -11 49zM383 590q4 19 3 19q-4 0 -17.5 -23t-13.5 -29q0 -2 4 -2q6 0 13.5 10.5t10.5 24.5zM460 550q-2 24 -12 59l-10 31l-15 -32q-12 -27 -12 -37q0 -6 7 -39q10 -40 32 -82q15 -28 17 -28q0 1 -1 3q-37 109 -37 125q0 10 7 10q12 0 20 -18
q5 -13 6 -13v5.5t-2 15.5zM444 698q8 8 12 8q8 0 8 -39q0 -90 41 -140q37 -48 53 -97.5t17 -119.5q0 -50 7 -59t45 -10q17 0 31 -7q7 -4 5.5 -8t-13.5 -14q-16 -12 -16 -24q0 -5 1 -7q5 -16 9 -16q5 3 27 31q19 27 27 27q2 0 3 -1q1 -2 1 -3q0 -19 -67 -141
q-73 -133 -83 -141q-10 -7 -35 -7q-33 0 -33 9q0 7 30.5 77t30.5 76q0 2 -1 2q-8 0 -58 -53q-63 -65 -74 -65q-3 0 -3 5q0 12 33 86q31 67 31 78q0 5 -50 9q-6 1 -77.5 12.5t-108.5 11.5h-45l4 -33q5 -29 15.5 -64.5t17.5 -45.5q4 -5 4 -12q0 -15 -12 -15q-2 0 -4 1
q-6 2 -8 -2.5t-2 -19.5q0 -16 2 -19.5t9 -1.5q6 2 7.5 -1.5t0.5 -16.5q-2 -23 -10 -25h-1q-12 0 -40 28q-32 32 -45 76q-17 51 -40 83q-47 64 -47 87q0 8 3 14q7 18 18 9q5 -5 14 -5q17 0 17 18q0 14 10 21q10 8 62 104.5t60 122.5q10 29 52 69q38 36 69 82q30 44 43 44
q7 0 13 -9q6 -8 9.5 -8.5t11.5 5.5q11 9 11 17q0 9 8 17z" />
    <glyph glyph-name="afii10070" unicode="&#x435;" horiz-adv-x="636" 
d="M174 -14q3 5 -5 5t-5 -5q5 -3 10 0zM176 29q0 4 -3 4q-4 0 -4 -4q0 -3 4 -3q3 0 3 3zM301 33q0 7 -38 7t-38 -7t38 -7t38 7zM124 26q9 0 6.5 7t-6.5 7t-6.5 -7t6.5 -7zM239 78q0 3 -4 3q-3 0 -3 -3q0 -4 3 -4q4 0 4 4zM252 85q0 3 -3 3q-4 0 -4 -3q0 -4 4 -4q3 0 3 4z
M100 107q7 7 5 23q-1 10 -5 10q-7 0 -7 -23q0 -13 3 -13q1 0 4 3zM208 205q3 11 -1 14.5t-12 -4.5q-5 -4 -5 -23q0 -26 7 -31q3 -2 5 1.5t2 10.5q0 14 4 32zM148 174q5 33 5 46q0 12 -3 17q-1 4 -4 4q-5 0 -8 -35l-8 -64q-3 -19 3 -19t15 51zM256 262q2 -2 8 -2q13 0 31 4
t18 8t-24 4q-35 0 -35 -10zM334 278q3 5 -5 5t-5 -5q5 -3 10 0zM298 310q-18 7 -28 7q-11 0 -11 -6q0 -13 19 -13q5 0 15 2q13 4 13.5 5t-4.5 3q-1 1 -4 2zM162 310q0 -3 1 -4q2 -3 5 2q1 4 -1 7q-2 1 -3.5 0t-1.5 -5zM415 345q-12 12 -46 12q-19 0 -24 -6l-2 -4q0 -6 37 -7
h12q24 0 24 4zM491 495q1 3 -4 5.5t-12 3.5q-8 1 -11.5 -0.5t-1.5 -6.5q4 -9 16 -9t13 7zM130 650q5 7 11 7q9 0 73 -17q60 -16 99 -16q9 0 57 2q88 4 107 4q81 0 81 -15q0 -5 -58 -5h-16h-11q-69 0 -69 -6t69 -11q71 -5 95 -11t24 -22q0 -7 -16 -7q-13 0 -46 3t-96.5 7
t-97.5 7q-6 1 -13 1l-3 -1q0 -3 40 -10q45 -9 65 -9h2h3q13 0 56 -10.5t50 -16.5q8 -5 8 -14q0 -16 -34.5 -31.5t-86.5 -21.5q-68 -8 -96 -8q-32 0 -45.5 -11.5t-13.5 -39.5v-10q3 -35 18 -35q10 0 27 12q13 9 50.5 16.5t67.5 7.5q18 0 27 -3q12 -4 28 -26t16 -33
q0 -10 -37.5 -27.5t-83.5 -30.5q-54 -14 -78 -25q-20 -10 -31 -10q-30 0 -38 -75q-2 -28 -2 -32q0 -20 12 -20q6 0 10 1h1q9 0 55 -13q41 -12 129 -24q95 -11 95 -28q0 -4 -4 -8q-6 -9 -32 -9q-23 0 -23 -10q0 -11 -130 -11t-135 -9q-6 -10 -6 -12q0 -8 82 -16q21 -3 34 -4
q97 -10 97 -24q0 -3 -3 -6q-10 -10 -51 -10q-42 0 -83 8q-62 12 -107 14q-12 1 -27 1q-8 0 -8 -1t12 -8q15 -9 15 -17q0 -4 -5 -4q-6 0 -10 2q-15 6 -60.5 33.5t-45.5 31.5q0 3 15 18q11 10 11 24q0 10 -1 17q-4 23 -4 37q0 15 7 50q21 116 32 255q2 38 2 43q0 24 -11 32
q-7 6 -7 11q0 13 34 23q23 8 29 30q6 20 13 20q8 0 11 -24q2 -19 17.5 -24t100.5 -13q39 -4 75 -4q51 0 51 11q0 7 -15 7q-19 0 -75 17q-71 21 -117 33q-57 15 -61 21q-3 5 1 21q4 12 13 12q2 0 16 -2q6 -1 20 -1q44 0 44 7l-1 1q-3 3 -54 14q-62 12 -62 24q0 2 2 6z" />
    <glyph glyph-name="afii10072" unicode="&#x436;" horiz-adv-x="794" 
d="M167 123q14 21 9 21q-8 0 -27 -21q-21 -21 -9 -21t27 21zM476 158q-4 7 -8 7q-5 0 4 -11l4 -3q3 1 0 7zM615 353q0 1 0.5 1t0.5 1q0 4 -9 4q-17 0 -53 -13q-28 -11 -53 -26t-25 -20q0 -2 2 -2h1q12 0 72 24t64 31zM295 345q-25 34 -27 34q-3 0 21 -37q27 -36 29 -36
q1 0 -2 6t-8.5 15.5t-12.5 17.5zM394 385q3 7 0 12q-4 6 -5 0v-7q0 -8 2 -8zM312 372q-8 13 -23 21q-8 6 -6 1l12 -18q17 -21 22 -21q2 0 2 2q0 5 -7 15zM521 438q3 6 3 9q0 2 -2 2q-6 0 -28 -20t-22 -32q0 -6 3 -6q5 0 19 14q21 19 27 33zM173 446q-15 17 -19 17q-1 0 2 -4
t11 -13q15 -17 19 -17q1 0 -2 4t-11 13zM576 512q8 11 11 16t2 5q-4 0 -22 -20.5t-18 -24.5q0 -3 2 -3q6 0 25 27zM235 516q-66 66 -78 66q-4 0 -4 -6q0 -15 61.5 -78t76.5 -63q7 0 7 5q0 12 -63 76zM729 645q0 6 -13 6q-24 0 -103 -116q-34 -49 -34 -61q0 -2 1 -2
q5 0 16 10q14 12 73.5 85t59.5 78zM698 671q12 6 23 6q18 0 21 -14q1 -4 1 -12q0 -21 -25 -55t-113 -136q-16 -18 -33.5 -39t-29 -34.5t-13.5 -15.5q-8 -10 -8 -12q0 -3 4 -3q5 0 37 10q39 14 66 14q18 0 21 -6q1 -1 1 -5q0 -11 -23.5 -28.5t-61.5 -33.5q-68 -32 -68 -33
q0 -21 171 -198q82 -86 82 -92q0 -7 -5 -7q-14 0 -67 49q-51 47 -66 47q-8 0 -8 -13t-8 -13q-11 0 -44 29q-57 47 -82 47q-11 0 -19.5 -37t-10.5 -93q-4 -70 -14 -74q-2 -1 -5 -1q-18 0 -18 98q0 7 0.5 24t0.5 27q1 37 1 84q0 55 -9 55q-12 0 -25 -138q-5 -58 -5 -84
q0 -24 4 -42q3 -14 3 -26q0 -7 -2 -13q-5 -13 -12 -2q-9 11 -16 9h-1q-11 0 -11 37q0 17 3 36q5 33 5 78q0 42 -5 60q-2 9 -6 9q-7 0 -40 -36q-45 -47 -70 -77q-29 -33 -47 -33t-18 6q0 7 43.5 62.5t76.5 90.5q24 26 24 28q0 1 -1 1q-5 0 -74 -48q-61 -43 -84 -43
q-17 0 -22 -3.5t-8 -17.5q-1 -10 -4.5 -15t-7.5 -4q-11 4 -11 22q0 16 8 27q11 15 11 36q0 22 19.5 38t93.5 56q81 44 81 56t-60 68q-67 61 -167 193q-27 34 -27 46t19 12q22 0 44 -17q23 -18 25 -18q3 0 3 23q0 24 16 25h2q15 0 86 -68q70 -70 75 -70q2 0 4.5 36t5.5 74.5
t8 43.5q2 2 4 2q4 0 4 -29q0 -37 7 -37t7 -29q0 -22 3 -22q7 0 7 24q0 2 -0.5 4.5t-0.5 3.5q-1 3 -1 9q0 12 12 26q13 13 28 49q15 33 20 33q14 0 14 -107q0 -25 -1 -38q-1 -15 -1 -35q0 -15 1 -15t2 4q5 21 7 64q1 42 10 42h3q11 -2 12 -40q1 -56 8 -56q5 0 36 33
q58 61 78 61q5 0 9 -3q6 -4 7 -4q7 0 53 65q26 37 38 42z" />
    <glyph glyph-name="afii10073" unicode="&#x437;" horiz-adv-x="569" 
d="M389 5q0 5 -4 5q-9 0 -41 -12q-46 -17 -59 -20l-16 -5q0 -1 32 -2h3q30 0 57.5 10.5t27.5 23.5zM222 22h1q0 2 -32 2q-30 0 -58 -4.5t-28 -10.5q0 -1 0.5 -1t0.5 -1q2 -1 5 -1q33 0 111 16zM456 121q3 6 0 12q-3 7 -4 0v-7q0 -8 2 -8zM514 134q0 24 -7 27q-2 2 -4.5 -0.5
t-2.5 -7.5q0 -11 -4 -41q-2 -18 -2 -19q0 -3 1 -3q2 0 8 8q11 15 11 36zM435 175q-4 16 -10 16q-9 0 -19 -24q-16 -34 -23 -43q-12 -15 -19 -39q-3 -17 -25 -33q-20 -15 -20 -22q0 -5 11 -5q13 0 34.5 7.5t33.5 16.5q14 11 20 22.5t12 40.5q6 28 6 52q0 8 -1 11zM451 224
q-21 24 -30 24q-2 0 -2 -2q0 -3 4 -10q6 -12 24 -29t24 -17q1 0 1 1q0 9 -21 33zM466 276q-16 13 -23 13q-2 0 -2 -2q0 -3 13 -15q18 -18 24 -14q3 5 -12 18zM342 290q-37 0 -50 4q-10 3 -13 3l-2 -1q0 -3 60 -27q44 -18 56 -18h1q4 2 -8 21q-8 11 -15.5 14.5t-28.5 3.5z
M271 300q0 3 -4 3q-3 0 -3 -3t3 -3q4 0 4 3zM375 356q0 3 -4 3q-3 0 -3 -3q0 -4 3 -4q4 0 4 4zM325 378q1 5 -4 7t-17 1q-38 -1 -94.5 -20.5t-56.5 -31.5q0 -10 12 -10q15 0 40 17q27 19 100 26q16 2 20 11zM359 410q3 5 1 18q-1 10 -5 10q-3 0 -22 -12l-24 -15l23 -2
q22 -2 27 1zM394 440q8 12 2 23q-3 6 -6 6q-7 0 -7 -25v-6q3 -13 11 2zM459 466q-15 32 -17 32q-4 0 -10.5 -23t-6.5 -37q0 -10 6 -16t15 -6q11 0 18 8q5 5 5 12q0 10 -10 30zM337 594q-43 13 -94 13q-17 0 -22 -2q-12 -3 -12 -7q0 -7 46 -20q54 -14 91 -30q39 -14 46 -14h1
q1 1 1 3q0 10 -20 31t-37 26zM171 651q50 5 66 5h3q20 0 65 -12t61 -22q26 -17 64 -65t50 -80q11 -28 11 -44q0 -27 -43 -36q-22 -5 -29 -9.5t-8 -14.5q-1 -15 -10 -26q-3 -5 -3 -8q0 -15 38 -27q23 -6 44 -27q17 -18 32.5 -65.5t15.5 -80.5q0 -28 -12.5 -60.5t-25.5 -36.5
q-9 -3 -28 -33q-17 -31 -33 -36q-74 -35 -116 -35q-23 0 -85 10q-57 11 -97 11q-2 0 -6 -0.5t-5 -0.5q-7 -1 -17 -1q-12 0 -15 12q-3 15 -21 15t-21 5q-2 4 -2 5q0 17 48.5 32.5t115.5 19.5q80 5 97 14q26 14 26 37q0 4 -2 8q-5 11 14 15q20 5 35 34q17 29 17 46q0 13 -9 22
q-14 14 -79 34t-100 21q-53 1 -109 37q-2 2 2 12q5 11 45.5 34t81.5 37q57 19 101.5 52t44.5 54q0 3 -1 5q-2 8 -61 32q-59 23 -108 23l-50 1l2 26q0 3 0.5 7t0.5 5q0 14 -11 14q-13 0 -17 -7t-12 -7q-10 0 -15 12q-2 6 -2 8q0 25 72 29z" />
    <glyph glyph-name="afii10074" unicode="&#x438;" horiz-adv-x="698" 
d="M123 89q1 6 1 18q0 22 -7 40q-6 17 -8 17q-3 0 -3 -62q0 -58 5 -58t12 45zM271 209q0 4 -3 4q-6 0 -32 -24q-27 -25 -27 -45q0 -7 5 -7l2 1h2q7 2 30 32.5t23 38.5zM173 253q3 6 0 12q-3 7 -4 0v-7q0 -8 2 -8q1 -1 2 3zM233 227q9 1 51 61.5t42 69.5l-1 1q-3 0 -52 -53
q-49 -52 -49 -71q0 -8 9 -8zM557 392q0 9 -4 9q-7 0 -19 -20q-11 -17 -11 -76v-27q2 -86 6 -100q4 -9 6 -10q1 11 6.5 68t10.5 105t5 51zM396 401q20 25 20 31q0 1 -1 1q-2 0 -16 -14q-9 -10 -19 -25.5t-10 -19.5q0 -1 1 -1q2 0 25 28zM133 290l1 -3q5 0 5 93q0 55 -2 55
q-9 0 -9 -79q0 -51 5 -66zM551 461q8 8 5 16q-3 10 -10 0q-3 -5 -3 -13q0 -11 8 -3zM612 532q-8 21 -12 21q-8 0 -8 -36q0 -37 -11 -134q-10 -87 -10 -162q0 -28 3 -28q6 0 25.5 128t19.5 153q0 35 -7 58zM67 648q4 10 20 6q9 -3 37 -8q14 -2 19 -7.5t8 -21.5q5 -25 18 -34
q7 -5 9.5 -15t2.5 -41q0 -8 -2 -94q-2 -68 -2 -79q0 -38 3 -38q5 0 23 153q17 153 35 153q1 0 5 -2q8 -5 8 -26t-9 -72q-18 -102 -18 -200q0 -19 2 -19q8 0 89 78.5t109 113.5q40 50 91.5 103t60.5 53t9 -20q0 -12 5 -21.5t10 -9.5t8 7t7 7q15 0 25 -56q4 -27 13 -52
q4 -5 4 -22q0 -24 -7 -67q-7 -58 -7 -69q0 -16 5 -31q4 -13 4 -39q0 -30 -4 -75q-8 -98 -8 -178q0 -70 -5.5 -93.5t-22.5 -23.5q-13 0 -17 26q-3 18 -19 90q-16 64 -22 64q-4 0 -4 -21q0 -23 -11.5 -70.5t-17.5 -51.5q-8 -6 -20 10q-8 9 -11 38.5t-5 114.5q-1 28 -1 82
q0 80 3 110q4 27 4 46t-7 19q-9 0 -39 -35q-88 -101 -135 -180q-23 -38 -51.5 -77.5t-35.5 -43.5q-7 -5 -14 -35t-21 -30q-10 0 -32 17q-18 14 -24 14t-14 -8q-10 -10 -13 -10t-10 9q-15 21 -15 123q0 61 5 108q5 67 5 89q0 32 -6 71l-10 62l-3 -195q-2 -125 -4.5 -159.5
t-9.5 -34.5q-17 0 -17 136q0 81 6 212q11 219 14 228q1 3 3.5 11t3.5 11z" />
    <glyph glyph-name="afii10075" unicode="&#x439;" horiz-adv-x="696" 
d="M122 29q1 7 1 20q0 25 -7 43q-6 17 -8 17q-3 0 -3 -63v-10q0 -53 6 -53q5 0 11 46zM255 124q16 25 16 29q0 1 -1 1q-5 0 -27.5 -17t-28.5 -25q-5 -5 -5 -23q0 -12 1.5 -12.5t11.5 7.5q15 13 33 40zM172 194q3 5 0 10q-2 2 -3.5 0.5t-1.5 -5.5t1.5 -5.5t3.5 0.5zM283 233
q12 17 21.5 32t14 23.5t2.5 8.5q-10 0 -54 -53.5t-44 -64.5q0 -12 5 -12q9 0 55 66zM556 333q0 11 -12 2q-5 -4 -9 -9q-11 -12 -12 -87v-31q0 -105 8 -105h1q1 1 12.5 109t11.5 121zM377 327q5 0 22 21.5t17 27.5l-1 1h-1q-3 0 -13.5 -12.5t-18 -25t-5.5 -12.5zM132 234
l1 -3q6 0 6 101q0 48 -2 48q-10 0 -10 -85q0 -43 5 -61zM556 411q0 11 -7 11t-7 -11q0 -10 7 -10t7 10zM611 476q-7 21 -13 21q-7 0 -7 -35q0 -37 -11 -134q-10 -100 -10 -159q0 -31 3 -31h1q5 5 25 130t20 151q0 31 -8 57zM67 594q3 8 13 8q9 0 16 -7t27 -9q13 -1 17.5 -6
t8.5 -24q6 -28 20 -33q6 -2 8.5 -9.5t2.5 -34.5q0 -5 -2 -101q-1 -33 -1 -78q0 -42 3 -42q6 0 21 143q13 117 18 138t18 21q14 0 14 -25q0 -15 -10 -72q-18 -94 -18 -192q0 -23 3 -23q8 0 90.5 79.5t116.5 121.5q47 57 90.5 101.5t51.5 44.5q9 0 9 -19q0 -17 6 -29
q4 -6 7 -6t11 6q7 5 11 5q12 0 18 -41q1 -22 13 -55q6 -15 6 -31q0 -11 -7 -67q-6 -46 -6 -66t4 -35q5 -18 5 -42q0 -20 -5 -75q-7 -84 -7 -173q0 -82 -7 -105q-6 -17 -16 -17q-15 0 -21 31q-31 155 -43 155q-4 0 -4 -23q0 -26 -10 -67.5t-18 -48.5q-9 -9 -20 6
q-13 16 -16 157q-1 29 -1 83q0 79 3 106q3 22 3 43q0 16 -1 19q-3 9 -5 9q-4 0 -17 -16q-96 -114 -157 -207q-57 -88 -74 -106q-21 -27 -27 -50q-9 -32 -19 -32q-7 0 -30 14q-22 13 -29 13q-6 0 -13 -4q-9 -6 -13.5 -5.5t-10.5 8.5q-16 23 -16 131q0 19 2 47q9 96 9 144
q0 45 -7 79q-5 28 -7 28q-3 0 -4 -172q-1 -136 -2.5 -165.5t-8.5 -29.5h-2q-18 3 -18 135q0 79 6 211q9 219 21 256zM459 624q0 6 -6 6t-11.5 -7.5t-1.5 -11.5t11.5 1.5t7.5 11.5zM295 649q-22 28 -32 28q-5 0 -8 -8q-1 -1 -1 -5q0 -22 38 -44q22 -10 25 -10q4 0 4 3
q0 7 -26 36zM313 690q0 16 -7 20q-1 1 -3 1q-4 0 -4 -5q0 -8 7 -20q7 -9 7 4zM228 706l3 50l31 -4q33 -5 46 -14.5t29 -41.5q17 -38 28 -42q6 -2 8 -2q23 0 23 48q0 39 13 39q5 0 12 -6q9 -8 26 7q12 12 20 12q16 0 16 -72q0 -54 -8.5 -76t-30.5 -22q-7 0 -10 1q-6 1 -14 1
q-13 0 -21 -14q-12 -16 -30 -16q-16 0 -58 26t-65 51q-12 14 -15.5 21t-3.5 22q0 18 1 32z" />
    <glyph glyph-name="afii10076" unicode="&#x43a;" horiz-adv-x="716" 
d="M352 234q0 10 -5 13t-11 -4q-7 -6 -4.5 -14.5t10.5 -8.5q10 0 10 14zM419 247q-27 29 -37 29q-9 0 6 -15q12 -12 12 -33v-6v-11q0 -18 3 -24q5 -8 51 -35t54 -27h1q4 4 -28.5 47.5t-61.5 74.5zM352 313q0 4 -3 4q-10 0 -57 -37q-50 -39 -60 -56q-12 -16 -12 -35
q0 -11 6 -11q7 0 21.5 17.5t14.5 26.5q0 11 23 22q15 6 41 32.5t26 36.5zM186 359q5 25 5 52v7l-2 28l-5 -24q-5 -18 -5 -51v-8l1 -35zM237 645q6 5 12 5q12 0 16 -45q2 -18 2 -28q0 -74 -30 -162q-10 -33 -10 -50q0 -20 10 -20q9 0 15 8q2 5 6 5q7 0 7 -13q0 -7 -3 -13
q-9 -15 -3 -15q3 0 89 82q218 210 255 210q13 0 13 -8q0 -16 -74 -87q-70 -65 -70 -77q0 -1 2 -1q5 0 32 21q29 22 85 71.5t58 54.5q3 7 13 4.5t10 -9.5q0 -11 -50 -64.5t-122 -119.5q-85 -76 -85 -84q0 -5 82 -98q89 -101 121.5 -142.5t32.5 -56.5q0 -7 -6 -11h-1
q-9 0 -43 27q-24 21 -66.5 44.5t-54.5 23.5q-3 0 -3 -2q0 -4 36 -36q33 -29 61 -63.5t28 -47.5q0 -18 -19 -18q-13 0 -29 9q-24 12 -144 134q-112 115 -127 115h-2q-9 -5 -38 -39q-21 -23 -26 -38.5t-11 -75.5q-9 -84 -16 -91q-8 -9 -14 -9q-11 0 -11 20q0 21 -8 25
q-8 8 -14 23q-6 14 -12 14q-10 0 -12 -35q-1 -31 -14.5 -51t-35.5 -22h-8q-17 0 -17 20q0 9 7 51q6 33 6 60q0 9 -1 12v8q0 40 11 122q22 165 22 169q3 35 13 87q7 37 7 62q0 23 3 30t17 12q13 5 18.5 13.5t10.5 34.5q9 39 19 39h1q10 -1 14 -26l4 -24l16 31q17 29 25 35z
" />
    <glyph glyph-name="afii10077" unicode="&#x43b;" horiz-adv-x="748" 
d="M126 176q6 26 6 33q0 3 -1 3q-4 0 -23 -53q-15 -48 -15 -55q0 -5 3 -8t4 -3q6 0 26 83zM245 434q12 58 12 73q0 6 -2 6q-6 0 -30 -76q-63 -195 -63 -223q0 -2 1 -2q8 0 40 87.5t42 134.5zM402 492q-38 72 -45 73q-2 1 -5 1q-2 0 -2 -3q0 -5 9 -33q12 -33 22 -76
q7 -30 38.5 -134t38.5 -132q12 -47 37 -120t33 -82q2 -2 4 -2q4 0 4 24q0 21 -1 37q-1 66 -27 157q-54 192 -106 290zM297 540q9 18 9 32q0 12 -4 12q-6 0 -12 -36l-5 -28zM363 668q7 9 21 9q22 0 51 -25.5t49 -65.5q48 -91 93 -230q19 -61 25 -71t6 -30q0 -15 28 -95
q27 -79 42 -155q14 -78 22 -87q4 -5 4 -10q0 -14 -19 -14q-20 0 -36.5 47.5t-43.5 184.5q-14 73 -38.5 142.5t-44.5 95.5q-19 24 -33 62q-15 40 -29 54q-12 14 -12 23q0 5 16.5 15.5t16.5 17.5q0 4 -23 43q-45 71 -71 71q-9 0 -9 -13q0 -17 12 -33t36 -74q34 -84 55 -128
q76 -173 103 -308q13 -62 13 -90q0 -25 -12 -25q-3 0 -5 1q-3 1 -7 1q-6 0 -7.5 -7t-2.5 -31q-1 -16 -3.5 -21t-11.5 -6h-2q-8 0 -16 10t-22 39q-30 63 -92 283q-22 81 -49 165.5t-31 84.5q-8 0 -50 -150q-74 -259 -106 -296q-14 -18 -30 -54q-18 -42 -28 -42q-5 0 -5 12
q0 17 10 48q9 30 9 41q0 4 -2 4q-3 0 -10 -16q-6 -14 -30 -28t-39 -14q-6 0 -8 2q-3 3 -3 11q0 37 68 222q48 130 48 138q0 4 25 60q64 142 86 179q12 20 12 35q0 21 10 21q14 0 23 -29t21 -29q9 0 13 21q3 23 13 34z" />
    <glyph glyph-name="afii10078" unicode="&#x43c;" horiz-adv-x="769" 
d="M386 36q3 5 0 10q-2 2 -3.5 0.5t-1.5 -5.5t1.5 -5.5t3.5 0.5zM358 139q0 11 -5 28q-6 21 -6 3q0 -16 6 -28l4 -7zM344 190q3 5 0 10q-2 2 -3.5 0.5t-1.5 -5.5t1.5 -5.5t3.5 0.5zM409 285q0 15 -7 15t-7 -26q0 -20 3 -20q2 0 4 4q7 10 7 27zM294 261q-4 28 -11 35
q-4 4 -5 4q-2 0 -2 -3q0 -7 11 -35l10 -28zM482 391q16 48 16 73q0 7 -2 7q-4 0 -12 -21q-8 -20 -20.5 -64.5t-12.5 -53.5q0 -4 6 0q8 5 25 59zM215 492q-20 47 -28 47q-2 0 -2 -7q0 -11 16 -52.5t23 -47.5q6 -4 7 -4q3 0 3 6q0 14 -19 58zM110 628q14 14 19 14q7 0 11 -18
q6 -26 11 -26q3 0 9 18q9 27 26 27q18 0 39 -27q23 -27 23 -34q0 -6 14 -23q13 -16 17 -5q6 12 14 12q10 0 29.5 -47t33.5 -102q17 -65 25 -65q10 0 36.5 47t40.5 88q14 43 25 52q9 7 28 42q19 39 30 39q6 0 12 -9q7 -8 7 -28q0 -11 -1 -18t-1 -18q0 -16 8 -21q5 -3 5 -7
q0 -8 -26 -61q-31 -60 -35 -88l-4 -24l11 17q10 16 21 50q10 32 33 51q13 11 16.5 16.5t3.5 18.5q0 4 -2 28q-2 30 -2 31q0 14 11 17q13 4 18 -15q11 -53 22 -53q1 0 2 1q4 4 12 44q4 24 7.5 31t11.5 7q13 0 12 -17q0 -2 -0.5 -6t-0.5 -5q0 -19 6 -19q5 0 11 15q11 22 16 22
q12 0 12 -32q0 -23 -4 -54q-7 -56 -7 -226v-34v-64q0 -136 -10 -168q-11 -38 -20 -38q-3 0 -8 7q-21 35 -29 211q-4 111 -8 111q-2 0 -5 -11q-10 -30 -10 -83q-1 -54 -16 -89q-15 -32 -25 -32q-14 0 -14 54q0 40 9 102q11 77 11 120q0 40 -7 40q-6 0 -15 -33
q-3 -12 -43 -115.5t-43 -121.5q-6 -27 -26 -52q-41 -52 -41 -86q0 -16 -12.5 -42t-20.5 -26h-2q-6 3 -15 31q-15 46 -24 46q-4 0 -7 -3q-6 -4 -9.5 -2t-9.5 14q-26 51 -65 202q-15 55 -41 128t-34 84q-7 9 -11 9q-7 0 -7 -36q0 -9 2 -61q5 -105 5 -157q0 -33 -4 -131
q-4 -61 -7 -76.5t-11 -15.5t-22.5 37t-20.5 72q-8 45 -11 45q-2 0 -2 -34v-24q1 -13 1 -32q0 -26 -8 -26q-18 0 -24.5 51.5t-7.5 211.5q-2 200 -6 238q-2 16 -2 19q0 15 22 36q25 25 28 45q5 22 20 39z" />
    <glyph glyph-name="afii10079" unicode="&#x43d;" horiz-adv-x="647" 
d="M513 86q0 -6 1 -7l3 3q3 10 0 13q-2 4 -4 -2v-7zM526 122q0 3 -3 3t-3 -3q0 -4 3 -4t3 4zM121 219q0 -6 1 -7l3 3q2 9 0 13t-4 -2v-7zM513 268q0 -6 1 -7l3 3q3 10 0 13q-2 4 -4 -2v-7zM246 275q-46 11 -54 11q-6 0 -10 -6t-4 -13q0 -5 3 -8q7 -7 27 -13.5t35 -6.5
q6 0 8 1q32 7 35 8q13 3 13 6q0 8 -53 21zM97 264q2 15 0 28q-2 5 -2 -1q-1 -5 0 -15l2 -15v3zM524 313q2 8 0 17q-3 6 -3 -9q0 -11 2 -10zM531 362q2 8 0 17q-3 6 -3 -9q0 -11 2 -10zM419 358q2 11 0 21q-2 -3 -3 -13l2 -11zM146 379q2 11 0 21q-3 6 -3 -12q0 -12 1 -12z
M429 422q4 15 4 30q0 8 -2 8q-3 0 -6 -13t-3 -26q0 -20 1 -20t6 21zM478 459q5 53 5 80v7l-3 16l-5 -17q-28 -104 -28 -144q0 -12 3 -15q4 -6 9 -6q11 0 19 79zM550 649q4 6 7 6q7 0 7 -57v-31v-44q0 -24 1 -24t4 7q24 65 31 65q3 0 3 -9q0 -24 -18 -103q-54 -239 -54 -311
q0 -7 1 -8q3 -3 3 -28q0 -34 -4.5 -77.5t-10.5 -54.5q-7 -16 -18 -16q-10 0 -22 -37q-16 -51 -27 -51q-2 0 -4 2q-10 10 -10 147q0 111 8 186q7 72 7 92q0 25 -5 25q-3 0 -6 -6q-5 -7 -26 -132q-12 -75 -17.5 -97.5t-12.5 -22.5h-1q-9 3 -9 54v37l1 89l-26 -13
q-54 -27 -133 -27h-12l-33 2l1 -28q1 -15 -11 -101.5t-12 -105.5q0 -4 0.5 -11.5t0.5 -10.5q0 -20 -5.5 -36t-14.5 -17h-1q-7 0 -11.5 9t-4.5 21q0 5 2 15q1 3 1 11q0 16 -5 33q-7 25 -14 25q-5 0 -12 -4q-8 -4 -14 -4q-8 0 -19 11q-10 10 -12.5 25t-2.5 69q2 90 10 158
q5 39 5 65q0 18 -4 22q-7 7 -7 63q0 37 2 46.5t12 12.5q14 4 14 37q0 28 7 51.5t15 23.5h1q7 -3 7 -49q0 -51 -5 -116q-1 -12 -2 -26t-1.5 -22t-0.5 -13q0 -17 6 -17l2 1h3q14 1 15 34q2 35 20 121.5t25 94.5q6 7 25.5 18t25.5 11q1 0 1 -21q0 -85 -9 -191l-3 -41l31 -13
q21 -10 35 -10q8 0 19 3q23 7 63 7q38 0 44 11q4 12 4 98q0 85 7 90q1 1 3 1q7 0 12.5 -14t5.5 -31q0 -21 8 -21q7 0 11 19q23 104 43 104q4 0 9 -6q5 -8 5 -45q0 -95 -22 -251q-20 -154 -20 -228q0 -6 0.5 -16.5t0.5 -15.5q1 -19 4 -19q8 0 10 55q1 61 33 302.5t40 252.5z
" />
    <glyph glyph-name="afii10080" unicode="&#x43e;" horiz-adv-x="629" 
d="M388 -2q17 10 17 13q0 1 -1 1q-6 0 -24.5 -9.5t-18.5 -14.5l1 -1q3 -3 26 11zM341 77q-5 6 -32 6q-26 0 -26 -9q0 -16 18 -18h6q12 0 23.5 5.5t11.5 12.5q0 2 -1 3zM378 99q3 5 -5 5t-5 -5q5 -3 10 0zM91 215q2 8 0 17q-3 0 -4 -9q0 -9 2 -10zM471 246q7 12 5 25
q-4 12 -5 0q0 -11 -4 -25q-3 -9 -2.5 -9t6.5 9zM479 309q7 20 -1 28q-6 6 -7 -6v-13l2 -23q1 0 6 14zM342 343q-2 16 -19.5 48.5t-31.5 32.5q-11 0 -16 -16q-13 -32 -24 -88t-11 -86q0 -42 14.5 -74t34.5 -34q16 -2 44 -9q12 -3 20 -3q10 0 30 14q16 13 21.5 27t16.5 70
q15 81 15 111q0 24 -4 31t-25 18q-22 10 -29 10q-11 0 -11 -11q0 -6 5 -18t5 -16q0 -7 -8 -20t-14 -13q-8 0 -13 26zM411 454q-21 7 -41 7q-18 0 -18 -5q1 -4 32.5 -20.5t39.5 -16.5q6 0 6 8q0 7 -5.5 15.5t-13.5 11.5zM114 404q19 59 19 68q0 1 -1 1q-5 0 -15 -17.5
t-10 -25.5q0 -10 -7 -14t-7 -26q0 -23 -11 -34q-7 -8 -7 -27q0 -5 2 -33q3 -37 6 -37q1 0 3 6q4 13 6 45q2 28 22 94zM497 473q0 12 -6.5 21t-16.5 9t5 -25q12 -18 15 -18t3 13zM377 516q-4 7 -18 7t-28 -7.5t-14 -16.5t11 -9q8 0 15 1q36 6 36 19q0 2 -2 6zM247 545
q23 20 23 26q0 2 -3 2q-11 0 -30 -15t-33 -35q-13 -17 -10 -18q1 0 8 4q6 3 45 36zM404 601q14 0 14 6q0 8 -14 8t-14 -8q0 -6 14 -6zM369 640q19 8 30 6q2 0 7 -1t14 -3t14 -3q26 -5 37 -14.5t33 -50.5q28 -49 37 -60q11 -13 26 -58t19 -82q1 -7 1 -21q0 -80 -50 -200
q-83 -197 -199 -209h-10q-28 0 -57 9.5t-42 24.5q-12 14 -35 21q-25 8 -40 30q-10 17 -35 46q-21 25 -45 73q-17 33 -22 53.5t-9 66.5q-2 40 -2 48q0 33 18 86q37 113 96 176t127 63q14 0 28 -3q17 -4 32 -4q14 0 27 6z" />
    <glyph glyph-name="afii10081" unicode="&#x43f;" horiz-adv-x="682" 
d="M109 334q3 9 -1 13q-2 4 -4 -2v-7q0 -7 2 -7q2 -1 3 3zM506 309q8 53 8 70q0 11 -2 13q-4 4 -7 4q-16 0 -20 -100q-1 -20 -1 -48q0 -24 2 -24q7 0 20 85zM116 379q2 11 0 21q-2 4 -3 -3l-1 -9q0 -12 2 -12q1 0 2 3zM230 322q0 111 -7 111t-12 -53.5t-5 -121.5
q0 -8 0.5 -23t0.5 -23l2 -48l10 23q11 23 11 135zM482 436q0 10 -42 10h-16h-58l42 -10q47 -10 58 -10q16 0 16 10zM195 440q4 11 -12 13q-2 0 -4 0.5t-3 0.5q-9 0 -9 -5t11 -13q7 -5 7 -9t-11 -28q-21 -41 -32 -274q-6 -111 -6 -152q0 -44 8 -52q4 -4 9 -4q16 0 35 69
q11 41 11 63q0 12 -5 45q-6 35 -6 165q0 153 7 181zM123 428q2 12 0 25q-2 7 -3 -3l-1 -10q0 -16 3 -15zM527 448q2 8 2 11q0 12 -7 12q-8 0 -15 -11q-11 -16 -11 -24q0 -9 10 -12q6 -2 7 -2q9 0 14 26zM137 505q3 5 -5 5t-5 -5q5 -3 10 0zM391 502q-12 1 -34 4t-39 5t-27 3
q-24 2 -27 2q-12 0 -17 -9q-2 -6 -2 -8q0 -23 66 -31q49 -7 95 -7q83 0 83 21q0 10 -98 20zM593 518q-9 6 -22 6q-11 0 -14 -5q-4 -8 -9 -47q-2 -22 -2 -26q0 -16 6 -20q5 -2 5 -10q0 -4 -7 -37q-11 -42 -15 -79l-4 -38l14 31q16 35 19 70q6 42 18 57q18 25 18 70
q0 24 -7 28zM212 514q0 14 -15 16h-5q-15 0 -15 -11q0 -8 8 -13q11 -8 17 -8q10 0 10 16zM536 522q-3 14 -25 14q-14 0 -33 -8l-21 -9l30 -9q15 -5 30 -5q20 0 20 13l-1 2v2zM405 534q0 4 -4 4q-3 0 -3 -4q0 -3 3 -3q4 0 4 3zM104 523q0 7 -7 11t-7 -2q0 -8 7 -12t7 3z
M585 547q3 5 -5 5t-5 -5q5 -3 10 0zM132 562q0 4 -4 4q-3 0 -3 -4q0 -3 3 -3q4 0 4 3zM303 573q-12 0 -28 4q-7 2 -13 0.5t-8 -4.5t1 -8q3 -6 21 -6q19 0 31 7q6 4 5.5 5.5t-9.5 1.5zM212 590q-6 2 -8.5 3t-5 0.5t-3.5 -2t-4 -5.5q-1 -1 -1 -4q0 -6 7 -11t17 -5q9 0 9 9
q0 10 -11 15zM597 601q-12 14 -18 14q-3 0 -8 -5t-5 -13q0 -16 14 -21q8 -2 11 -2q13 0 13 11q0 8 -7 16zM186 637q-2 10 -12 12q-4 1 -6 -0.5t0 -6.5q2 -10 12 -12q4 -1 6 0.5t0 6.5zM151 673q4 4 8 4q8 0 36 -24q26 -21 30 -21q3 0 10 10q9 15 16 15t7 -17q0 -13 7 -15.5
t44 -2.5q49 0 120 -13q49 -10 79 -10q36 0 40 16q8 24 25 24q7 0 14 -4q10 -6 14 -5.5t10 8.5q10 12 16 12q5 0 8 -6.5t4.5 -26t1.5 -57.5q0 -9 -0.5 -34.5t-0.5 -41.5q-3 -131 -25 -322.5t-35 -202.5q-8 -8 -16 -8q-10 0 -16 18q-4 14 -5.5 14.5t-4.5 -11.5q-3 -14 -10 -14
t-7 14q0 16 19 132t19 139q0 9 -2 9l-1 -1q-10 -11 -38.5 -106.5t-28.5 -117.5q1 -8 5 -4q1 1 5 6q8 11 13 11t5 -14q0 -16 -8.5 -28.5t-19.5 -12.5q-15 0 -18 -14q-4 -13 -7 -13q-5 0 -5 14q0 9 3 21q4 13 4 29q0 12 -3 21q-3 12 -3 48q0 37 4.5 134.5t4.5 129.5
q0 36 -4 40q-6 6 -88.5 22t-107.5 16h-18v-90q0 -157 -32 -306.5t-66 -149.5q-22 0 -27 26.5t-7 137.5v41q0 120 6 172q5 39 5 69v5q-1 1 -5 -15.5t-12 -47.5t-15 -65q-34 -148 -49 -148q-3 0 -5 2q-1 2 -1 4q0 20 18 124q19 100 19 135q0 2 -0.5 5t-0.5 4q-6 20 4 27
q6 4 10 33t4 57q0 36 -7 36q-8 0 -12 -14t-7 -14q-6 0 -6 30v7q3 73 28 106q7 10 11 10t15 -11q16 -16 32 -16q9 0 12 6t-7 15q-10 8 -10 42q0 18 5 23z" />
    <glyph glyph-name="afii10082" unicode="&#x440;" horiz-adv-x="634" 
d="M382 167q0 6 -15 6q-19 0 -62 -10q-62 -14 -62 -20q0 -2 2 -4q5 -6 18 -6q20 0 55 13q35 14 50 14q14 0 14 7zM343 227q-44 6 -88 13q-16 2 -20 2q-21 0 -21 -20q0 -9 1 -14q2 -9 5.5 -12t16.5 -3q3 0 10 0.5t12 0.5q44 2 91 14l49 11zM314 404q-60 8 -74 8q-5 0 -5 -1
q0 -5 -7 -43q-4 -23 -4 -42q0 -38 28 -44q36 -9 55 -15q23 -8 73 -8q78 0 87 14q5 8 5 36v11l-3 39l-46 19q-46 19 -109 26zM522 462q-7 13 -14 13t-7 -15q0 -13 7 -27t14 -14t7 15q0 12 -7 28zM271 513q-10 10 -17 10q-5 0 -5 -9q0 -14 10 -38l12 -26l66 -11q38 -6 54 -6
t16 5q0 4 -18 15q-2 1 -38.5 23t-51.5 24q-17 2 -28 13zM381 545q-22 14 -55 14q-14 0 -14 -5q0 -4 37.5 -20.5t46.5 -16.5q8 0 8 5q0 10 -23 23zM319 598q0 3 -4 3q-3 0 -3 -3q0 -4 3 -4q4 0 4 4zM256 649q24 7 36 7q11 0 18 -7q9 -9 44 -14q37 -6 87.5 -32.5t74.5 -52.5
q27 -29 27 -37q0 -9 14 -21q36 -33 36 -161q0 -21 -17.5 -72t-29.5 -66q-17 -21 -17 -27q0 -15 -15.5 -24.5t-39.5 -9.5q-34 0 -54 -14q-61 -41 -161 -41h-5h-10q-45 0 -52 -7q-8 -8 -12 -72q-6 -104 -43 -104q-11 0 -18 8.5t-14 33.5q-5 15 -8 19t-12 4q-1 0 -4 -0.5
t-5 -0.5h-7q-17 0 -22.5 15.5t-5.5 67.5q0 46 1 78q5 133 16 147q11 12 12 114q1 73 5.5 97t19.5 24q2 0 10 -2q10 -2 15 -2q25 0 40 31q10 23 29 31q11 4 14.5 10.5t3.5 23.5q0 24 11 36t38 20z" />
    </font>
</defs>
</svg>
